<?xml version="1.0"?>
<!-- Converted with SVG Converter - Version 0.9.5 (Compiled Mon May 30 09:08:51 2011) - Copyright (C) 2011 Nokia -->
<svg xmlns="http://www.w3.org/2000/svg" width="96" x="0px" y="0px" version="1.1" viewBox="0 0 96 96" height="96" xmlns:xlink="http://www.w3.org/1999/xlink" baseProfile="tiny" id="ORANGE_BACKGROUNDS" xml:space="preserve">
 <metadata id="metadata3069"/>
 <defs id="defs3067">
  <linearGradient id="linearGradient5113">
   <stop offset="0" style="stop-color:#64af2d;stop-opacity:1;" id="stop5115"/>
  </linearGradient>
  <linearGradient id="linearGradient5332">
   <stop offset="0" style="stop-color:#78c56d;stop-opacity:1;" id="stop5334"/>
  </linearGradient>
  <linearGradient id="linearGradient3799">
   <stop offset="0" style="stop-color:#7886e4;stop-opacity:1;" id="stop3801"/>
  </linearGradient>
  <linearGradient id="RED_x2F_ORANGE_5_2_-1" y1="8.0107002" x1="47.9995" y2="87.9897" gradientUnits="userSpaceOnUse" x2="47.9995">
   <stop offset="0" style="stop-color:#FFDB62" id="stop3054-7"/>
   <stop offset="0.1393" style="stop-color:#FAD15C" id="stop3056-4"/>
   <stop offset="0.3741" style="stop-color:#EDB74D" id="stop3058-0"/>
   <stop offset="0.4848" style="stop-color:#E6A844" id="stop3060-9"/>
   <stop offset="1" style="stop-color:#C96B25" id="stop3062-4"/>
  </linearGradient>
  <linearGradient gradientTransform="translate(2.000003,-1.988)" id="linearGradient3091" y1="8.0107002" y2="87.9897" x1="47.9995" x2="47.9995" gradientUnits="userSpaceOnUse">
   <stop offset="0" style="stop-color:#FFDB62" id="stop3054-7"/>
   <stop offset="0.1393" style="stop-color:#FAD15C" id="stop3056-4"/>
   <stop offset="0.3741" style="stop-color:#EDB74D" id="stop3058-0"/>
   <stop offset="0.4848" style="stop-color:#E6A844" id="stop3060-9"/>
   <stop offset="1" style="stop-color:#C96B25" id="stop3062-4"/>
  </linearGradient>
  <linearGradient gradientTransform="translate(1.5e-6,5e-4)" id="linearGradient3124" y1="8.0107002" x1="47.9995" y2="87.9897" gradientUnits="userSpaceOnUse" x2="47.9995">
   <stop offset="0" style="stop-color:#FFDB62" id="stop3054-7"/>
   <stop offset="0.1393" style="stop-color:#FAD15C" id="stop3056-4"/>
   <stop offset="0.3741" style="stop-color:#EDB74D" id="stop3058-0"/>
   <stop offset="0.4848" style="stop-color:#E6A844" id="stop3060-9"/>
   <stop offset="1" style="stop-color:#C96B25" id="stop3062-4"/>
  </linearGradient>
  <linearGradient gradientTransform="translate(1.5e-6,5e-4)" id="linearGradient3124-1" y1="8.0107002" x1="47.9995" y2="87.9897" gradientUnits="userSpaceOnUse" x2="47.9995">
   <stop offset="0" style="stop-color:#FFDB62" id="stop3054-7-4"/>
   <stop offset="0.1393" style="stop-color:#FAD15C" id="stop3056-4-0"/>
   <stop offset="0.3741" style="stop-color:#EDB74D" id="stop3058-0-9"/>
   <stop offset="0.4848" style="stop-color:#E6A844" id="stop3060-9-4"/>
   <stop offset="1" style="stop-color:#C96B25" id="stop3062-4-8"/>
  </linearGradient>
  <linearGradient id="RED_x2F_ORANGE_5_2_-1-7" y1="8.0107002" x1="47.9995" y2="87.9897" gradientUnits="userSpaceOnUse" x2="47.9995">
   <stop offset="0" style="stop-color:#FFDB62" id="stop3054-7-4"/>
   <stop offset="0.1393" style="stop-color:#FAD15C" id="stop3056-4-0"/>
   <stop offset="0.3741" style="stop-color:#EDB74D" id="stop3058-0-9"/>
   <stop offset="0.4848" style="stop-color:#E6A844" id="stop3060-9-4"/>
   <stop offset="1" style="stop-color:#C96B25" id="stop3062-4-8"/>
  </linearGradient>
  <linearGradient gradientTransform="translate(1.5e-6,5e-4)" id="linearGradient3234" y1="8.0107002" y2="87.9897" x1="47.9995" x2="47.9995" gradientUnits="userSpaceOnUse">
   <stop offset="0" style="stop-color:#FFDB62" id="stop3054-7-4"/>
   <stop offset="0.1393" style="stop-color:#FAD15C" id="stop3056-4-0"/>
   <stop offset="0.3741" style="stop-color:#EDB74D" id="stop3058-0-9"/>
   <stop offset="0.4848" style="stop-color:#E6A844" id="stop3060-9-4"/>
   <stop offset="1" style="stop-color:#C96B25" id="stop3062-4-8"/>
  </linearGradient>
  <linearGradient gradientTransform="translate(1.5e-6,5e-4)" id="linearGradient3234-8" y1="8.0107002" y2="87.9897" x1="47.9995" x2="47.9995" gradientUnits="userSpaceOnUse">
   <stop offset="0" style="stop-color:#FFDB62" id="stop3054-7-4-4"/>
   <stop offset="0.1393" style="stop-color:#FAD15C" id="stop3056-4-0-5"/>
   <stop offset="0.3741" style="stop-color:#EDB74D" id="stop3058-0-9-5"/>
   <stop offset="0.4848" style="stop-color:#E6A844" id="stop3060-9-4-1"/>
   <stop offset="1" style="stop-color:#C96B25" id="stop3062-4-8-7"/>
  </linearGradient>
  <linearGradient id="RED_x2F_ORANGE_5_2_-1-7-2" y1="8.0107002" x1="47.9995" y2="87.9897" gradientUnits="userSpaceOnUse" x2="47.9995">
   <stop offset="0" style="stop-color:#FFDB62" id="stop3054-7-4-4"/>
   <stop offset="0.1393" style="stop-color:#FAD15C" id="stop3056-4-0-5"/>
   <stop offset="0.3741" style="stop-color:#EDB74D" id="stop3058-0-9-5"/>
   <stop offset="0.4848" style="stop-color:#E6A844" id="stop3060-9-4-1"/>
   <stop offset="1" style="stop-color:#C96B25" id="stop3062-4-8-7"/>
  </linearGradient>
  <linearGradient gradientTransform="translate(1.5e-6,5e-4)" id="linearGradient3277" y1="8.0107002" y2="87.9897" x1="47.9995" x2="47.9995" gradientUnits="userSpaceOnUse">
   <stop offset="0" style="stop-color:#FFDB62" id="stop3054-7-4-4"/>
   <stop offset="0.1393" style="stop-color:#FAD15C" id="stop3056-4-0-5"/>
   <stop offset="0.3741" style="stop-color:#EDB74D" id="stop3058-0-9-5"/>
   <stop offset="0.4848" style="stop-color:#E6A844" id="stop3060-9-4-1"/>
   <stop offset="1" style="stop-color:#C96B25" id="stop3062-4-8-7"/>
  </linearGradient>
  <linearGradient id="linearGradient3803-1" y1="31.75" x1="-77.5" y2="31.75" x2="-15" gradientUnits="userSpaceOnUse">
   <stop offset="0" style="stop-color:#78d9e4;stop-opacity:1;" id="stop3801-4"/>
  </linearGradient>
  <linearGradient id="linearGradient3799-7">
   <stop offset="0" style="stop-color:#78d9e4;stop-opacity:1;" id="stop3801-4"/>
  </linearGradient>
  <linearGradient id="linearGradient3819-9" y1="31.75" y2="31.75" x1="-77.5" x2="-15" gradientUnits="userSpaceOnUse">
   <stop offset="0" style="stop-color:#782ee4;stop-opacity:1;" id="stop3801-4-8"/>
  </linearGradient>
  <linearGradient id="linearGradient3799-7-4">
   <stop offset="0" style="stop-color:#782ee4;stop-opacity:1;" id="stop3801-4-8"/>
  </linearGradient>
  <linearGradient id="linearGradient3850-2" y1="31.75" y2="31.75" x1="-77.5" x2="-15" gradientUnits="userSpaceOnUse">
   <stop offset="0" style="stop-color:#782e38;stop-opacity:1;" id="stop3801-4-8-5"/>
  </linearGradient>
  <linearGradient id="linearGradient3799-7-4-4">
   <stop offset="0" style="stop-color:#782e38;stop-opacity:1;" id="stop3801-4-8-5"/>
  </linearGradient>
  <linearGradient gradientTransform="translate(1.5e-6,5e-4)" id="linearGradient3277-1" y1="8.0107002" y2="87.9897" x1="47.9995" x2="47.9995" gradientUnits="userSpaceOnUse">
   <stop offset="0" style="stop-color:#FFDB62" id="stop3054-7-4-4-4"/>
   <stop offset="0.1393" style="stop-color:#FAD15C" id="stop3056-4-0-5-0"/>
   <stop offset="0.3741" style="stop-color:#EDB74D" id="stop3058-0-9-5-9"/>
   <stop offset="0.4848" style="stop-color:#E6A844" id="stop3060-9-4-1-4"/>
   <stop offset="1" style="stop-color:#C96B25" id="stop3062-4-8-7-8"/>
  </linearGradient>
  <linearGradient id="RED_x2F_ORANGE_5_2_-1-7-2-7" y1="8.0107002" x1="47.9995" y2="87.9897" gradientUnits="userSpaceOnUse" x2="47.9995">
   <stop offset="0" style="stop-color:#FFDB62" id="stop3054-7-4-4-4"/>
   <stop offset="0.1393" style="stop-color:#FAD15C" id="stop3056-4-0-5-0"/>
   <stop offset="0.3741" style="stop-color:#EDB74D" id="stop3058-0-9-5-9"/>
   <stop offset="0.4848" style="stop-color:#E6A844" id="stop3060-9-4-1-4"/>
   <stop offset="1" style="stop-color:#C96B25" id="stop3062-4-8-7-8"/>
  </linearGradient>
  <linearGradient gradientTransform="translate(1.5e-6,5e-4)" id="linearGradient4552" y1="8.0107002" y2="87.9897" x1="47.9995" x2="47.9995" gradientUnits="userSpaceOnUse">
   <stop offset="0" style="stop-color:#FFDB62" id="stop3054-7-4-4-4"/>
   <stop offset="0.1393" style="stop-color:#FAD15C" id="stop3056-4-0-5-0"/>
   <stop offset="0.3741" style="stop-color:#EDB74D" id="stop3058-0-9-5-9"/>
   <stop offset="0.4848" style="stop-color:#E6A844" id="stop3060-9-4-1-4"/>
   <stop offset="1" style="stop-color:#C96B25" id="stop3062-4-8-7-8"/>
  </linearGradient>
  <linearGradient gradientTransform="translate(1.5e-6,5e-4)" id="linearGradient4552-2" y1="8.0107002" y2="87.9897" x1="47.9995" x2="47.9995" gradientUnits="userSpaceOnUse">
   <stop offset="0" style="stop-color:#FFDB62" id="stop3054-7-4-4-4-5"/>
   <stop offset="0.1393" style="stop-color:#FAD15C" id="stop3056-4-0-5-0-5"/>
   <stop offset="0.3741" style="stop-color:#EDB74D" id="stop3058-0-9-5-9-1"/>
   <stop offset="0.4848" style="stop-color:#E6A844" id="stop3060-9-4-1-4-7"/>
   <stop offset="1" style="stop-color:#C96B25" id="stop3062-4-8-7-8-1"/>
  </linearGradient>
  <linearGradient id="RED_x2F_ORANGE_5_2_-1-7-2-7-4" y1="8.0107002" x1="47.9995" y2="87.9897" gradientUnits="userSpaceOnUse" x2="47.9995">
   <stop offset="0" style="stop-color:#FFDB62" id="stop3054-7-4-4-4-5"/>
   <stop offset="0.1393" style="stop-color:#FAD15C" id="stop3056-4-0-5-0-5"/>
   <stop offset="0.3741" style="stop-color:#EDB74D" id="stop3058-0-9-5-9-1"/>
   <stop offset="0.4848" style="stop-color:#E6A844" id="stop3060-9-4-1-4-7"/>
   <stop offset="1" style="stop-color:#C96B25" id="stop3062-4-8-7-8-1"/>
  </linearGradient>
  <linearGradient xlink:href="#HIGHLIGHTS_RO1_2_" id="linearGradient6179" y1="8.2559004" x1="47.9995" y2="87.504303" gradientUnits="userSpaceOnUse" x2="47.9995"/>
  <linearGradient id="RED_x2F_ORANGE_5_2_-8" y1="8.0107002" x1="47.9995" y2="87.9897" gradientUnits="userSpaceOnUse" x2="47.9995">
   <stop offset="0" style="stop-color:#FFDB62" id="stop6363"/>
   <stop offset="0.1393" style="stop-color:#FAD15C" id="stop6365"/>
   <stop offset="0.3741" style="stop-color:#EDB74D" id="stop6367"/>
   <stop offset="0.4848" style="stop-color:#E6A844" id="stop6369"/>
   <stop offset="1" style="stop-color:#C96B25" id="stop6371"/>
  </linearGradient>
  <linearGradient id="HIGHLIGHTS_RO5_1_" y1="8.2559004" x1="47.9995" y2="87.504303" gradientUnits="userSpaceOnUse" x2="47.9995">
   <stop offset="0" style="stop-color:#FFFFFF" id="stop6375"/>
   <stop offset="0.0958" style="stop-color:#FDF8F5" id="stop6377"/>
   <stop offset="0.2579" style="stop-color:#F6E6DB" id="stop6379"/>
   <stop offset="0.4666" style="stop-color:#EBC9AF" id="stop6381"/>
   <stop offset="0.7136" style="stop-color:#DCA073" id="stop6383"/>
   <stop offset="0.9904" style="stop-color:#CA6D28" id="stop6385"/>
   <stop offset="1" style="stop-color:#C96B25" id="stop6387"/>
  </linearGradient>
  <linearGradient id="linearGradient4048" y1="8.2559004" x1="47.9995" y2="87.504303" gradientUnits="userSpaceOnUse" x2="47.9995">
   <stop offset="0" style="stop-color:#FFFFFF" id="stop6375"/>
   <stop offset="0.0958" style="stop-color:#FDF8F5" id="stop6377"/>
   <stop offset="0.2579" style="stop-color:#F6E6DB" id="stop6379"/>
   <stop offset="0.4666" style="stop-color:#EBC9AF" id="stop6381"/>
   <stop offset="0.7136" style="stop-color:#DCA073" id="stop6383"/>
   <stop offset="0.9904" style="stop-color:#CA6D28" id="stop6385"/>
   <stop offset="1" style="stop-color:#C96B25" id="stop6387"/>
  </linearGradient>
  <linearGradient id="linearGradient4051" y1="8.0107002" x1="47.9995" y2="87.9897" gradientUnits="userSpaceOnUse" x2="47.9995">
   <stop offset="0" style="stop-color:#FFDB62" id="stop6363"/>
   <stop offset="0.1393" style="stop-color:#FAD15C" id="stop6365"/>
   <stop offset="0.3741" style="stop-color:#EDB74D" id="stop6367"/>
   <stop offset="0.4848" style="stop-color:#E6A844" id="stop6369"/>
   <stop offset="1" style="stop-color:#C96B25" id="stop6371"/>
  </linearGradient>
  <linearGradient xlink:href="#HIGHLIGHTS_RO2_1_" id="linearGradient4094" y1="8.2559004" x1="47.9995" y2="87.504303" gradientUnits="userSpaceOnUse" x2="47.9995"/>
  <linearGradient xlink:href="#RED_x2F_ORANGE_1_2_" id="linearGradient4136" y1="8.0107002" x1="47.9995" y2="87.9897" gradientUnits="userSpaceOnUse" x2="47.9995"/>
  <linearGradient xlink:href="#RED_x2F_ORANGE_2_1_" id="linearGradient4138" y1="8.0107002" x1="47.9995" y2="87.9897" gradientUnits="userSpaceOnUse" x2="47.9995"/>
  <linearGradient xlink:href="#RED_x2F_ORANGE_3_2_" id="linearGradient4140" y1="8.0107002" x1="47.9995" y2="87.9897" gradientUnits="userSpaceOnUse" x2="47.9995"/>
  <linearGradient xlink:href="#RED_x2F_ORANGE_4_1_" id="linearGradient4142" y1="8.0107002" x1="47.9995" y2="87.9897" gradientUnits="userSpaceOnUse" x2="47.9995"/>
  <linearGradient xlink:href="#HIGHLIGHT_GRA5_1_" id="linearGradient4338" y1="8" x1="47.9995" y2="88.000504" gradientUnits="userSpaceOnUse" x2="47.9995"/>
  <linearGradient xlink:href="#HIGHLIGHT_GRA4_2_" id="linearGradient4452" y1="8" x1="47.9995" y2="88.000504" gradientUnits="userSpaceOnUse" x2="47.9995"/>
  <linearGradient xlink:href="#GRAY_5_1_" id="linearGradient5072" y1="8.0107002" x1="47.9995" y2="87.9897" gradientUnits="userSpaceOnUse" x2="47.9995"/>
  <linearGradient xlink:href="#GRAY_4_1_" id="linearGradient5074" y1="8.0107002" x1="47.9995" y2="87.9897" gradientUnits="userSpaceOnUse" x2="47.9995"/>
  <linearGradient xlink:href="#GRAY_3_1_" id="linearGradient5076" y1="8.0107002" x1="47.9995" y2="87.9897" gradientUnits="userSpaceOnUse" x2="47.9995"/>
  <linearGradient xlink:href="#GRAY_2_1_" id="linearGradient5078" y1="8.0107002" x1="47.9995" y2="87.9897" gradientUnits="userSpaceOnUse" x2="47.9995"/>
  <linearGradient xlink:href="#GRAY_1_1_" id="linearGradient5082" y1="8.0107002" x1="47.9995" y2="87.9897" gradientUnits="userSpaceOnUse" x2="47.9995"/>
  <linearGradient xlink:href="#GREEN_4_1_" id="linearGradient5086" y1="8.0107002" x1="47.9995" y2="87.9897" gradientUnits="userSpaceOnUse" x2="47.9995"/>
  <linearGradient xlink:href="#GREEN_3_1_" id="linearGradient5088" y1="8.0107002" x1="47.9995" y2="87.9897" gradientUnits="userSpaceOnUse" x2="47.9995"/>
  <linearGradient xlink:href="#GREEN_2_1_" id="linearGradient5090" y1="8.0107002" x1="47.9995" y2="87.9897" gradientUnits="userSpaceOnUse" x2="47.9995"/>
  <linearGradient xlink:href="#GREEN_1_1_" id="linearGradient5092" y1="8.0107002" x1="47.9995" y2="87.9897" gradientUnits="userSpaceOnUse" x2="47.9995"/>
  <linearGradient id="linearGradient5094" y1="8.0107002" x1="47.9995" y2="87.9897" gradientUnits="userSpaceOnUse" x2="47.9995">
   <stop offset="0.0364" style="stop-color:#4791D9" id="stop4267"/>
   <stop offset="0.2496" style="stop-color:#4288CF" id="stop4269"/>
   <stop offset="0.6102" style="stop-color:#366EB5" id="stop4271"/>
   <stop offset="1" style="stop-color:#264C91" id="stop4273"/>
  </linearGradient>
  <linearGradient xlink:href="#BLUE_3_3_" id="linearGradient5096" y1="8.0107002" x1="47.9995" y2="87.9897" gradientUnits="userSpaceOnUse" x2="47.9995"/>
  <linearGradient xlink:href="#BLUE_2_3_" id="linearGradient5098" y1="8.0107002" x1="47.9995" y2="87.9897" gradientUnits="userSpaceOnUse" x2="47.9995"/>
  <linearGradient xlink:href="#BLUE_1_3_" id="linearGradient5100" y1="8.0107002" x1="47.9995" y2="87.9897" gradientUnits="userSpaceOnUse" x2="47.9995"/>
  <linearGradient xlink:href="#PINK_2_3_" id="linearGradient5102" y1="8.0107002" x1="47.9995" y2="87.9897" gradientUnits="userSpaceOnUse" x2="47.9995"/>
  <linearGradient xlink:href="#PINK_1_3_" id="linearGradient5104" y1="8.0107002" x1="47.9995" y2="87.9897" gradientUnits="userSpaceOnUse" x2="47.9995"/>
  <linearGradient xlink:href="#VIOLET_2_3_" id="linearGradient5106" y1="8.0107002" x1="47.9995" y2="90.757004" gradientUnits="userSpaceOnUse" x2="47.9995"/>
  <linearGradient xlink:href="#VIOLET_1_3_" id="linearGradient5108" y1="9.7622004" x1="47.9995" y2="89.741203" gradientUnits="userSpaceOnUse" x2="47.9995"/>
  <linearGradient gradientTransform="matrix(0.14388489,0,0,0.14184397,113.31386,2.588652)" id="linearGradient5117" y1="-35.875" x1="-54.5" y2="-35.875" x2="-19.75" gradientUnits="userSpaceOnUse">
   <stop offset="0" style="stop-color:#64af2d;stop-opacity:1;" id="stop5115"/>
  </linearGradient>
  <linearGradient gradientTransform="matrix(0.14388489,0,0,0.14184397,-12.158274,-16.411348)" id="linearGradient5117-3" y1="-35.875" x1="-54.5" y2="-35.875" x2="-19.75" gradientUnits="userSpaceOnUse">
   <stop offset="0" style="stop-color:#449311;stop-opacity:1;" id="stop5115-9"/>
  </linearGradient>
  <linearGradient id="linearGradient5113-1">
   <stop offset="0" style="stop-color:#449311;stop-opacity:1;" id="stop5115-9"/>
  </linearGradient>
  <linearGradient gradientTransform="matrix(0.14388489,0,0,0.14184397,113.31386,7.588652)" id="linearGradient5133" y1="-35.875" y2="-35.875" x1="-54.5" x2="-19.75" gradientUnits="userSpaceOnUse">
   <stop offset="0" style="stop-color:#449311;stop-opacity:1;" id="stop5115-9"/>
  </linearGradient>
  <linearGradient gradientTransform="matrix(0.14388489,0,0,0.14184397,-7.158274,-16.411348)" id="linearGradient5133-6" y1="-35.875" y2="-35.875" x1="-54.5" x2="-19.75" gradientUnits="userSpaceOnUse">
   <stop offset="0" style="stop-color:#128406;stop-opacity:1;" id="stop5115-9-0"/>
  </linearGradient>
  <linearGradient id="linearGradient5113-1-5">
   <stop offset="0" style="stop-color:#128406;stop-opacity:1;" id="stop5115-9-0"/>
  </linearGradient>
  <linearGradient gradientTransform="matrix(0.14388489,0,0,0.14184397,113.31386,12.588652)" id="linearGradient5164" y1="-35.875" y2="-35.875" x1="-54.5" x2="-19.75" gradientUnits="userSpaceOnUse">
   <stop offset="0" style="stop-color:#128406;stop-opacity:1;" id="stop5115-9-0"/>
  </linearGradient>
  <linearGradient gradientTransform="matrix(0.14388489,0,0,0.14184397,-2.158274,-16.411348)" id="linearGradient5164-8" y1="-35.875" y2="-35.875" x1="-54.5" x2="-19.75" gradientUnits="userSpaceOnUse">
   <stop offset="0" style="stop-color:#009351;stop-opacity:1;" id="stop5115-9-0-0"/>
  </linearGradient>
  <linearGradient id="linearGradient5113-1-5-6">
   <stop offset="0" style="stop-color:#009351;stop-opacity:1;" id="stop5115-9-0-0"/>
  </linearGradient>
  <linearGradient gradientTransform="matrix(0.14388489,0,0,0.14184397,113.31386,17.588652)" id="linearGradient5195" y1="-35.875" y2="-35.875" x1="-54.5" x2="-19.75" gradientUnits="userSpaceOnUse">
   <stop offset="0" style="stop-color:#009351;stop-opacity:1;" id="stop5115-9-0-0"/>
  </linearGradient>
  <linearGradient gradientTransform="matrix(0.14388489,0,0,0.14184397,113.31386,37.588652)" id="linearGradient5195-4" y1="-35.875" y2="-35.875" x1="-54.5" x2="-19.75" gradientUnits="userSpaceOnUse">
   <stop offset="0" style="stop-color:#1b34b2;stop-opacity:1;" id="stop5115-9-0-0-6"/>
  </linearGradient>
  <linearGradient id="linearGradient5113-1-5-6-8">
   <stop offset="0" style="stop-color:#1b34b2;stop-opacity:1;" id="stop5115-9-0-0-6"/>
  </linearGradient>
  <linearGradient gradientTransform="matrix(0.14388489,0,0,0.14184397,113.31386,32.588652)" id="linearGradient5164-5" y1="-35.875" y2="-35.875" x1="-54.5" x2="-19.75" gradientUnits="userSpaceOnUse">
   <stop offset="0" style="stop-color:#0066a8;stop-opacity:1;" id="stop5115-9-0-9"/>
  </linearGradient>
  <linearGradient id="linearGradient5113-1-5-0">
   <stop offset="0" style="stop-color:#0066a8;stop-opacity:1;" id="stop5115-9-0-9"/>
  </linearGradient>
  <linearGradient gradientTransform="matrix(0.14388489,0,0,0.14184397,113.31386,27.588652)" id="linearGradient5133-0" y1="-35.875" y2="-35.875" x1="-54.5" x2="-19.75" gradientUnits="userSpaceOnUse">
   <stop offset="0" style="stop-color:#0082b6;stop-opacity:1;" id="stop5115-9-6"/>
  </linearGradient>
  <linearGradient id="linearGradient5113-1-0">
   <stop offset="0" style="stop-color:#0082b6;stop-opacity:1;" id="stop5115-9-6"/>
  </linearGradient>
  <linearGradient gradientTransform="matrix(0.14388489,0,0,0.14184397,-12.158274,-16.411348)" id="linearGradient5117-1" y1="-35.875" x1="-54.5" y2="-35.875" x2="-19.75" gradientUnits="userSpaceOnUse">
   <stop offset="0" style="stop-color:#0d9758;stop-opacity:1;" id="stop5115-8"/>
  </linearGradient>
  <linearGradient id="linearGradient5113-3">
   <stop offset="0" style="stop-color:#0d9758;stop-opacity:1;" id="stop5115-8"/>
  </linearGradient>
  <linearGradient gradientTransform="matrix(0.14388489,0,0,0.14184397,113.31386,22.588652)" id="linearGradient5238" y1="-35.875" y2="-35.875" x1="-54.5" x2="-19.75" gradientUnits="userSpaceOnUse">
   <stop offset="0" style="stop-color:#0d9758;stop-opacity:1;" id="stop5115-8"/>
  </linearGradient>
  <linearGradient gradientTransform="matrix(0.14388489,0,0,0.14184397,-12.158274,-11.411348)" id="linearGradient5238-6" y1="-35.875" y2="-35.875" x1="-54.5" x2="-19.75" gradientUnits="userSpaceOnUse">
   <stop offset="0" style="stop-color:#2c00a5;stop-opacity:1;" id="stop5115-8-6"/>
  </linearGradient>
  <linearGradient id="linearGradient5113-3-0">
   <stop offset="0" style="stop-color:#2c00a5;stop-opacity:1;" id="stop5115-8-6"/>
  </linearGradient>
  <linearGradient gradientTransform="matrix(0.14388489,0,0,0.14184397,113.31386,47.588652)" id="linearGradient5133-0-6" y1="-35.875" y2="-35.875" x1="-54.5" x2="-19.75" gradientUnits="userSpaceOnUse">
   <stop offset="0" style="stop-color:#62226a;stop-opacity:1;" id="stop5115-9-6-8"/>
  </linearGradient>
  <linearGradient id="linearGradient5113-1-0-1">
   <stop offset="0" style="stop-color:#62226a;stop-opacity:1;" id="stop5115-9-6-8"/>
  </linearGradient>
  <linearGradient gradientTransform="matrix(0.14388489,0,0,0.14184397,113.31386,52.588652)" id="linearGradient5164-5-4" y1="-35.875" y2="-35.875" x1="-54.5" x2="-19.75" gradientUnits="userSpaceOnUse">
   <stop offset="0" style="stop-color:#e50c98;stop-opacity:1;" id="stop5115-9-0-9-6"/>
  </linearGradient>
  <linearGradient id="linearGradient5113-1-5-0-9">
   <stop offset="0" style="stop-color:#e50c98;stop-opacity:1;" id="stop5115-9-0-9-6"/>
  </linearGradient>
  <linearGradient gradientTransform="matrix(0.14388489,0,0,0.14184397,113.31386,57.588652)" id="linearGradient5195-4-3" y1="-35.875" y2="-35.875" x1="-54.5" x2="-19.75" gradientUnits="userSpaceOnUse">
   <stop offset="0" style="stop-color:#ec297b;stop-opacity:1;" id="stop5115-9-0-0-6-8"/>
  </linearGradient>
  <linearGradient id="linearGradient5113-1-5-6-8-7">
   <stop offset="0" style="stop-color:#ec297b;stop-opacity:1;" id="stop5115-9-0-0-6-8"/>
  </linearGradient>
  <linearGradient gradientTransform="matrix(0.14388489,0,0,0.14184397,113.31386,42.588652)" id="linearGradient5305" y1="-35.875" y2="-35.875" x1="-54.5" x2="-19.75" gradientUnits="userSpaceOnUse">
   <stop offset="0" style="stop-color:#2c00a5;stop-opacity:1;" id="stop5115-8-6"/>
  </linearGradient>
  <linearGradient gradientTransform="matrix(0.14388489,0,0,0.14184397,113.31386,77.588652)" id="linearGradient5195-4-3-3" y1="-35.875" y2="-35.875" x1="-54.5" x2="-19.75" gradientUnits="userSpaceOnUse">
   <stop offset="0" style="stop-color:#ff7a0d;stop-opacity:1;" id="stop5115-9-0-0-6-8-9"/>
  </linearGradient>
  <linearGradient id="linearGradient5113-1-5-6-8-7-5">
   <stop offset="0" style="stop-color:#ff7a0d;stop-opacity:1;" id="stop5115-9-0-0-6-8-9"/>
  </linearGradient>
  <linearGradient gradientTransform="matrix(0.14388489,0,0,0.14184397,113.31386,72.588652)" id="linearGradient5164-5-4-8" y1="-35.875" y2="-35.875" x1="-54.5" x2="-19.75" gradientUnits="userSpaceOnUse">
   <stop offset="0" style="stop-color:#ff5b00;stop-opacity:1;" id="stop5115-9-0-9-6-0"/>
  </linearGradient>
  <linearGradient id="linearGradient5113-1-5-0-9-4">
   <stop offset="0" style="stop-color:#ff5b00;stop-opacity:1;" id="stop5115-9-0-9-6-0"/>
  </linearGradient>
  <linearGradient gradientTransform="matrix(0.14388489,0,0,0.14184397,113.31386,67.588652)" id="linearGradient5133-0-6-7" y1="-35.875" y2="-35.875" x1="-54.5" x2="-19.75" gradientUnits="userSpaceOnUse">
   <stop offset="0" style="stop-color:#f74000;stop-opacity:1;" id="stop5115-9-6-8-3"/>
  </linearGradient>
  <linearGradient id="linearGradient5113-1-0-1-6">
   <stop offset="0" style="stop-color:#f74000;stop-opacity:1;" id="stop5115-9-6-8-3"/>
  </linearGradient>
  <linearGradient gradientTransform="matrix(0.14388489,0,0,0.14184397,-12.158274,-6.411348)" id="linearGradient5305-6" y1="-35.875" y2="-35.875" x1="-54.5" x2="-19.75" gradientUnits="userSpaceOnUse">
   <stop offset="0" style="stop-color:#e21429;stop-opacity:1;" id="stop5115-8-6-5"/>
  </linearGradient>
  <linearGradient id="linearGradient5113-3-0-1">
   <stop offset="0" style="stop-color:#e21429;stop-opacity:1;" id="stop5115-8-6-5"/>
  </linearGradient>
  <linearGradient gradientTransform="matrix(0.14388489,0,0,0.14184397,113.31386,62.588652)" id="linearGradient5372" y1="-35.875" y2="-35.875" x1="-54.5" x2="-19.75" gradientUnits="userSpaceOnUse">
   <stop offset="0" style="stop-color:#e21429;stop-opacity:1;" id="stop5115-8-6-5"/>
  </linearGradient>
  <linearGradient gradientTransform="matrix(0.14388489,0,0,0.14184397,113.31386,97.588652)" id="linearGradient5195-4-3-3-7" y1="-35.875" y2="-35.875" x1="-54.5" x2="-19.75" gradientUnits="userSpaceOnUse">
   <stop offset="0" style="stop-color:#e0e0e0;stop-opacity:1;" id="stop5115-9-0-0-6-8-9-7"/>
  </linearGradient>
  <linearGradient id="linearGradient5113-1-5-6-8-7-5-3">
   <stop offset="0" style="stop-color:#e0e0e0;stop-opacity:1;" id="stop5115-9-0-0-6-8-9-7"/>
  </linearGradient>
  <linearGradient gradientTransform="matrix(0.14388489,0,0,0.14184397,113.31386,92.588652)" id="linearGradient5164-5-4-8-2" y1="-35.875" y2="-35.875" x1="-54.5" x2="-19.75" gradientUnits="userSpaceOnUse">
   <stop offset="0" style="stop-color:#e8e8e8;stop-opacity:1;" id="stop5115-9-0-9-6-0-0"/>
  </linearGradient>
  <linearGradient id="linearGradient5113-1-5-0-9-4-6">
   <stop offset="0" style="stop-color:#e8e8e8;stop-opacity:1;" id="stop5115-9-0-9-6-0-0"/>
  </linearGradient>
  <linearGradient gradientTransform="matrix(0.14388489,0,0,0.14184397,113.31386,87.588652)" id="linearGradient5133-0-6-7-1" y1="-35.875" y2="-35.875" x1="-54.5" x2="-19.75" gradientUnits="userSpaceOnUse">
   <stop offset="0" style="stop-color:#f7d303;stop-opacity:1;" id="stop5115-9-6-8-3-5"/>
  </linearGradient>
  <linearGradient id="linearGradient5113-1-0-1-6-6">
   <stop offset="0" style="stop-color:#f7d303;stop-opacity:1;" id="stop5115-9-6-8-3-5"/>
  </linearGradient>
  <linearGradient gradientTransform="matrix(0.14388489,0,0,0.14184397,-12.158274,-1.411348)" id="linearGradient5372-7" y1="-35.875" y2="-35.875" x1="-54.5" x2="-19.75" gradientUnits="userSpaceOnUse">
   <stop offset="0" style="stop-color:#ffa300;stop-opacity:1;" id="stop5115-8-6-5-4"/>
  </linearGradient>
  <linearGradient id="linearGradient5113-3-0-1-5">
   <stop offset="0" style="stop-color:#ffa300;stop-opacity:1;" id="stop5115-8-6-5-4"/>
  </linearGradient>
  <linearGradient gradientTransform="matrix(0.14388489,0,0,0.14184397,113.31386,82.588652)" id="linearGradient5439" y1="-35.875" y2="-35.875" x1="-54.5" x2="-19.75" gradientUnits="userSpaceOnUse">
   <stop offset="0" style="stop-color:#ffa300;stop-opacity:1;" id="stop5115-8-6-5-4"/>
  </linearGradient>
  <linearGradient gradientTransform="matrix(0.14388489,0,0,0.14184397,-12.158274,8.588652)" id="linearGradient5164-5-4-8-2-1" y1="-35.875" y2="-35.875" x1="-54.5" x2="-19.75" gradientUnits="userSpaceOnUse">
   <stop offset="0" style="stop-color:#d3d3d3;stop-opacity:1;" id="stop5115-9-0-9-6-0-0-6"/>
  </linearGradient>
  <linearGradient id="linearGradient5113-1-5-0-9-4-6-4">
   <stop offset="0" style="stop-color:#d3d3d3;stop-opacity:1;" id="stop5115-9-0-9-6-0-0-6"/>
  </linearGradient>
  <linearGradient gradientTransform="matrix(0.14388489,0,0,0.14184397,113.31386,107.58865)" id="linearGradient5195-4-3-3-7-0" y1="-35.875" y2="-35.875" x1="-54.5" x2="-19.75" gradientUnits="userSpaceOnUse">
   <stop offset="0" style="stop-color:#cecece;stop-opacity:1;" id="stop5115-9-0-0-6-8-9-7-1"/>
  </linearGradient>
  <linearGradient id="linearGradient5113-1-5-6-8-7-5-3-7">
   <stop offset="0" style="stop-color:#cecece;stop-opacity:1;" id="stop5115-9-0-0-6-8-9-7-1"/>
  </linearGradient>
  <linearGradient gradientTransform="matrix(0.14388489,0,0,0.14184397,113.31386,102.58865)" id="linearGradient5498" y1="-35.875" y2="-35.875" x1="-54.5" x2="-19.75" gradientUnits="userSpaceOnUse">
   <stop offset="0" style="stop-color:#d3d3d3;stop-opacity:1;" id="stop5115-9-0-9-6-0-0-6"/>
  </linearGradient>
  <linearGradient id="SVGID_1_" y1="39.117199" x1="48.452099" y2="70.455498" gradientUnits="userSpaceOnUse" x2="48.452099">
   <stop offset="0.3232" style="stop-color:#FAFCEF" id="stop4392-1"/>
   <stop offset="1" style="stop-color:#D0CBC5" id="stop4394-7"/>
  </linearGradient>
  <linearGradient gradientTransform="translate(68.546831,-90.188689)" id="linearGradient4418" y1="39.117199" y2="70.455498" x1="48.452099" x2="48.452099" gradientUnits="userSpaceOnUse">
   <stop offset="0.3232" style="stop-color:#FAFCEF" id="stop4392-1"/>
   <stop offset="1" style="stop-color:#D0CBC5" id="stop4394-7"/>
  </linearGradient>
  <linearGradient gradientTransform="matrix(0,-79.244629,-79.244629,0,298.0083,460.06738)" id="linearGradient4305" y1="0" y2="0" x1="0" gradientUnits="userSpaceOnUse" x2="1">
   <stop offset="0" style="stop-opacity:1;stop-color:#ffffff" id="stop4307"/>
   <stop offset="1" style="stop-opacity:1;stop-color:#ffffff" id="stop4309"/>
  </linearGradient>
  <linearGradient gradientTransform="matrix(0,-79.244629,-79.244629,0,298.0083,460.06738)" id="linearGradient4287" y1="0" y2="0" x1="0" gradientUnits="userSpaceOnUse" x2="1">
   <stop offset="0" style="stop-opacity:1;stop-color:#ffffff" id="stop4289-2"/>
   <stop offset="1" style="stop-opacity:0;stop-color:#ffffff" id="stop4291"/>
  </linearGradient>
  <linearGradient gradientTransform="matrix(0,-74.982803,-74.982803,0,298.0083,464.77588)" id="linearGradient4247" y1="0" y2="0" x1="0" gradientUnits="userSpaceOnUse" x2="1">
   <stop offset="0" style="stop-opacity:1;stop-color:#ffffff" id="stop4249"/>
   <stop offset="1" style="stop-opacity:1;stop-color:#ffffff" id="stop4251"/>
  </linearGradient>
  <linearGradient gradientTransform="matrix(0,-74.982803,-74.982803,0,298.0083,464.77588)" id="linearGradient4229" y1="0" y2="0" x1="0" gradientUnits="userSpaceOnUse" x2="1">
   <stop offset="0" style="stop-opacity:1;stop-color:#ffffff" id="stop4231"/>
   <stop offset="1" style="stop-opacity:0.17999542;stop-color:#ffffff" id="stop4233"/>
  </linearGradient>
  <linearGradient gradientTransform="matrix(0,-80.694397,-80.694397,0,298.0083,460.85986)" id="linearGradient4189" y1="0" y2="0" x1="0" gradientUnits="userSpaceOnUse" x2="1">
   <stop offset="0" style="stop-opacity:1;stop-color:#000000" id="stop4191"/>
   <stop offset="1" style="stop-opacity:1;stop-color:#000000" id="stop4193"/>
  </linearGradient>
  <linearGradient gradientTransform="matrix(0,-80.694397,-80.694397,0,298.0083,460.85986)" id="linearGradient4171" y1="0" y2="0" x1="0" gradientUnits="userSpaceOnUse" x2="1">
   <stop offset="0" style="stop-opacity:0;stop-color:#ffffff" id="stop4173"/>
   <stop offset="1" style="stop-opacity:1;stop-color:#ffffff" id="stop4175"/>
  </linearGradient>
  <linearGradient gradientTransform="matrix(0,-80.694397,-80.694397,0,298.0083,460.85986)" id="linearGradient4171-4" y1="0" y2="0" x1="0" gradientUnits="userSpaceOnUse" x2="1">
   <stop offset="0" style="stop-opacity:0;stop-color:#ffffff" id="stop4173-9"/>
   <stop offset="1" style="stop-opacity:1;stop-color:#ffffff" id="stop4175-6"/>
  </linearGradient>
  <linearGradient gradientTransform="matrix(0,-80.694397,-80.694397,0,298.0083,460.85986)" id="linearGradient4189-3" y1="0" y2="0" x1="0" gradientUnits="userSpaceOnUse" x2="1">
   <stop offset="0" style="stop-opacity:1;stop-color:#000000" id="stop4191-7"/>
   <stop offset="1" style="stop-opacity:1;stop-color:#000000" id="stop4193-8"/>
  </linearGradient>
  <linearGradient gradientTransform="matrix(0,-74.982803,-74.982803,0,298.0083,464.77588)" id="linearGradient4229-7" y1="0" y2="0" x1="0" gradientUnits="userSpaceOnUse" x2="1">
   <stop offset="0" style="stop-opacity:1;stop-color:#ffffff" id="stop4231-6"/>
   <stop offset="1" style="stop-opacity:0.17999542;stop-color:#ffffff" id="stop4233-3"/>
  </linearGradient>
  <linearGradient gradientTransform="matrix(0,-74.982803,-74.982803,0,298.0083,464.77588)" id="linearGradient4247-6" y1="0" y2="0" x1="0" gradientUnits="userSpaceOnUse" x2="1">
   <stop offset="0" style="stop-opacity:1;stop-color:#ffffff" id="stop4249-1"/>
   <stop offset="1" style="stop-opacity:1;stop-color:#ffffff" id="stop4251-5"/>
  </linearGradient>
  <linearGradient gradientTransform="matrix(0,-79.244629,-79.244629,0,298.0083,460.06738)" id="linearGradient4287-1" y1="0" y2="0" x1="0" gradientUnits="userSpaceOnUse" x2="1">
   <stop offset="0" style="stop-opacity:1;stop-color:#ffffff" id="stop4289-2-6"/>
   <stop offset="1" style="stop-opacity:0;stop-color:#ffffff" id="stop4291-5"/>
  </linearGradient>
  <linearGradient gradientTransform="matrix(0,-79.244629,-79.244629,0,298.0083,460.06738)" id="linearGradient4305-7" y1="0" y2="0" x1="0" gradientUnits="userSpaceOnUse" x2="1">
   <stop offset="0" style="stop-opacity:1;stop-color:#ffffff" id="stop4307-5"/>
   <stop offset="1" style="stop-opacity:1;stop-color:#ffffff" id="stop4309-4"/>
  </linearGradient>
  <linearGradient gradientTransform="matrix(0,-80.694397,-80.694397,0,298.0083,460.85986)" id="linearGradient5735" y1="0" x1="0" y2="0" gradientUnits="userSpaceOnUse" x2="1">
   <stop offset="0" style="stop-opacity:1;stop-color:#000000" id="stop4191-7"/>
   <stop offset="1" style="stop-opacity:1;stop-color:#000000" id="stop4193-8"/>
  </linearGradient>
  <linearGradient gradientTransform="matrix(0,-74.982803,-74.982803,0,298.0083,464.77588)" id="linearGradient5737" y1="0" x1="0" y2="0" gradientUnits="userSpaceOnUse" x2="1">
   <stop offset="0" style="stop-opacity:1;stop-color:#ffffff" id="stop4249-1"/>
   <stop offset="1" style="stop-opacity:1;stop-color:#ffffff" id="stop4251-5"/>
  </linearGradient>
  <linearGradient gradientTransform="matrix(0,-79.244629,-79.244629,0,298.0083,460.06738)" id="linearGradient5739" y1="0" x1="0" y2="0" gradientUnits="userSpaceOnUse" x2="1">
   <stop offset="0" style="stop-opacity:1;stop-color:#ffffff" id="stop4307-5"/>
   <stop offset="1" style="stop-opacity:1;stop-color:#ffffff" id="stop4309-4"/>
  </linearGradient>
  <linearGradient gradientTransform="matrix(0,-79.244629,-79.244629,0,298.0083,460.06738)" id="linearGradient5928" y1="0" x1="0" y2="0" gradientUnits="userSpaceOnUse" x2="1">
   <stop offset="0" style="stop-opacity:1;stop-color:#ffffff" id="stop4307-5"/>
   <stop offset="1" style="stop-opacity:1;stop-color:#ffffff" id="stop4309-4"/>
  </linearGradient>
  <linearGradient gradientTransform="matrix(0,-74.982803,-74.982803,0,298.0083,464.77588)" id="linearGradient5940" y1="0" x1="0" y2="0" gradientUnits="userSpaceOnUse" x2="1">
   <stop offset="0" style="stop-opacity:1;stop-color:#ffffff" id="stop4249-1"/>
   <stop offset="1" style="stop-opacity:1;stop-color:#ffffff" id="stop4251-5"/>
  </linearGradient>
  <linearGradient gradientTransform="matrix(0,-80.694397,-80.694397,0,298.0083,460.85986)" id="linearGradient5952" y1="0" x1="0" y2="0" gradientUnits="userSpaceOnUse" x2="1">
   <stop offset="0" style="stop-opacity:1;stop-color:#000000" id="stop4191-7"/>
   <stop offset="1" style="stop-opacity:1;stop-color:#000000" id="stop4193-8"/>
  </linearGradient>
  <linearGradient gradientTransform="matrix(0,-74.982803,-74.982803,0,298.0083,464.77588)" id="linearGradient6110" y1="0" x1="0" y2="0" gradientUnits="userSpaceOnUse" x2="1">
   <stop offset="0" style="stop-opacity:1;stop-color:#ffffff" id="stop4249-1"/>
   <stop offset="1" style="stop-opacity:1;stop-color:#ffffff" id="stop4251-5"/>
  </linearGradient>
  <linearGradient gradientTransform="matrix(0,-79.244629,-79.244629,0,298.0083,460.06738)" id="linearGradient6612" y1="0" y2="0" x1="0" gradientUnits="userSpaceOnUse" x2="1">
   <stop offset="0" style="stop-opacity:1;stop-color:#ffffff" id="stop6614"/>
   <stop offset="1" style="stop-opacity:1;stop-color:#ffffff" id="stop6616"/>
  </linearGradient>
  <linearGradient gradientTransform="matrix(0,-79.244629,-79.244629,0,298.0083,460.06738)" id="linearGradient6594" y1="0" y2="0" x1="0" gradientUnits="userSpaceOnUse" x2="1">
   <stop offset="0" style="stop-opacity:1;stop-color:#ffffff" id="stop6596"/>
   <stop offset="1" style="stop-opacity:0;stop-color:#ffffff" id="stop6598"/>
  </linearGradient>
  <linearGradient gradientTransform="matrix(0,-74.982803,-74.982803,0,298.0083,464.77588)" id="linearGradient6554" y1="0" y2="0" x1="0" gradientUnits="userSpaceOnUse" x2="1">
   <stop offset="0" style="stop-opacity:1;stop-color:#ffffff" id="stop6556"/>
   <stop offset="1" style="stop-opacity:1;stop-color:#ffffff" id="stop6558"/>
  </linearGradient>
  <linearGradient gradientTransform="matrix(0,-74.982803,-74.982803,0,298.0083,464.77588)" id="linearGradient6536" y1="0" y2="0" x1="0" gradientUnits="userSpaceOnUse" x2="1">
   <stop offset="0" style="stop-opacity:1;stop-color:#ffffff" id="stop6538"/>
   <stop offset="1" style="stop-opacity:0.17999542;stop-color:#ffffff" id="stop6540"/>
  </linearGradient>
  <linearGradient gradientTransform="matrix(0,-80.694397,-80.694397,0,298.0083,460.85986)" id="linearGradient6496" y1="0" y2="0" x1="0" gradientUnits="userSpaceOnUse" x2="1">
   <stop offset="0" style="stop-opacity:1;stop-color:#000000" id="stop6498"/>
   <stop offset="1" style="stop-opacity:1;stop-color:#000000" id="stop6500"/>
  </linearGradient>
  <linearGradient gradientTransform="matrix(0,-80.694397,-80.694397,0,298.0083,460.85986)" id="linearGradient6478" y1="0" y2="0" x1="0" gradientUnits="userSpaceOnUse" x2="1">
   <stop offset="0" style="stop-opacity:0;stop-color:#ffffff" id="stop6480"/>
   <stop offset="1" style="stop-opacity:1;stop-color:#ffffff" id="stop6482"/>
  </linearGradient>
 </defs>
 <linearGradient id="RED_x2F_ORANGE_5_2_" y1="8.0107002" x1="47.9995" y2="87.9897" gradientUnits="userSpaceOnUse" x2="47.9995">
  <stop offset="0" style="stop-color:#FFDB62" id="stop3054"/>
  <stop offset="0.1393" style="stop-color:#FAD15C" id="stop3056"/>
  <stop offset="0.3741" style="stop-color:#EDB74D" id="stop3058"/>
  <stop offset="0.4848" style="stop-color:#E6A844" id="stop3060"/>
  <stop offset="1" style="stop-color:#C96B25" id="stop3062"/>
 </linearGradient>
 <g style="display:inline" id="layer5">
  <rect width="96" x="0" y="0" height="96" style="fill:#000000;fill-opacity:0;stroke:none;display:inline" id="rect3119"/>
 </g>
 <g style="display:inline" id="layer4">
  <path style="opacity:0.4" id="SHADOW" d="m 88.023,49 c 0,29.633 -10.364,40 -40,40 -29.635,0 -40,-10.367 -40,-40 0,-29.634 10.366,-40 40,-40 29.636,0 40,10.365 40,40 z"/>
 </g>
 <g style="display:inline" id="layer21">
  <g id="BLUE_BACKGROUNDS">
   <g id="BLUE_4_2_">
    <linearGradient id="BLUE_4_3_" y1="8.0107002" x1="47.9995" y2="87.9897" gradientUnits="userSpaceOnUse" x2="47.9995">
     <stop offset="0.0364" style="stop-color:#4791D9" id="stop4267"/>
     <stop offset="0.2496" style="stop-color:#4288CF" id="stop4269"/>
     <stop offset="0.6102" style="stop-color:#366EB5" id="stop4271"/>
     <stop offset="1" style="stop-color:#264C91" id="stop4273"/>
    </linearGradient>
    <path style="fill:url(#linearGradient5094);fill-opacity:1" id="BLUE_4_1_" d="m 8,47.989 c 0,29.633 10.365,40 40,40 29.637,0 40,-10.367 40,-40 C 88,19.004 78.074,8.459 49.909,8.01 H 46.092 C 17.928,8.459 8,19.004 8,47.989 z"/>
    <linearGradient id="HIGHLIGHT_BLU4_1_" y1="8.2559004" x1="47.9995" y2="87.504303" gradientUnits="userSpaceOnUse" x2="47.9995">
     <stop offset="0.0364" style="stop-color:#FFFFFF" id="stop4277"/>
     <stop offset="0.129" style="stop-color:#F5F7FA" id="stop4279"/>
     <stop offset="0.2858" style="stop-color:#DBE1ED" id="stop4281"/>
     <stop offset="0.4876" style="stop-color:#AFBDD7" id="stop4283"/>
     <stop offset="0.7265" style="stop-color:#738CB8" id="stop4285"/>
     <stop offset="0.9942" style="stop-color:#284D92" id="stop4287"/>
     <stop offset="1" style="stop-color:#264C91" id="stop4289"/>
    </linearGradient>
    <path style="opacity:0.25;fill:url(#HIGHLIGHT_BLU4_1_)" id="HIGHLIGHT_BLU4" d="M 48,8 C 18.365,8 8,18.365 8,48 8,77.633 18.365,88 48,88 77.637,88 88,77.633 88,48 88,18.365 77.637,8 48,8 z m 0,79.023 C 18.842,87.023 9,77.176 9,48 9,18.824 18.842,8.977 48,8.977 77.158,8.977 87,18.824 87,48 87,77.176 77.158,87.023 48,87.023 z"/>
   </g>
  </g>
 </g>
 <g style="display:inline" id="layer7">
  <path style="opacity:0.5;fill:#000000;fill-opacity:1;stroke:none;display:inline" id="rect4611-7" d="m 29,24 c -3.324,0 -6,2.676 -6,6 l 0,25 c 0,3.324 2.676,6 6,6 l 1.0625,0 0.03125,10 L 40,61 l 4,0 0,-5.9375 9.53125,0 4.90625,0 c 2.211744,2.2e-5 4.169479,0.511083 5.5625,1.8125 0.474538,0.443363 0.729804,1.050669 1.03125,1.625 0.0799,-0.121374 0.10186,-0.289067 0.1875,-0.40625 1.542469,-2.110438 4.076927,-3.218727 6.84375,-3.21875 0.315195,6e-6 0.630148,0.01097 0.9375,0.03125 L 73,30 c 0,-3.324 -2.676,-6 -6,-6 z m 43.0625,32.875 c -2.302089,1.9e-5 -4.046554,0.802427 -5.21875,2.40625 -1.172202,1.603856 -1.750001,3.933607 -1.75,7.03125 -10e-7,3.436204 0.594725,5.957035 1.75,7.53125 1.155269,1.574219 2.854161,2.34375 5.15625,2.34375 0.973298,0 1.978505,-0.135417 2.96875,-0.40625 l 0,-1.875 c -0.863292,0.262372 -1.710296,0.406252 -2.53125,0.40625 -1.481127,2e-6 -2.603196,-0.685545 -3.34375,-2.03125 C 68.353186,70.935552 67.999996,68.918627 68,66.21875 c -4e-6,-2.488269 0.343094,-4.349595 1.0625,-5.59375 0.719395,-1.244124 1.811191,-1.874983 3.25,-1.875 0.880199,1.7e-5 1.767568,0.15822 2.65625,0.4375 l 0,-1.9375 C 74.105458,56.996113 73.128897,56.875019 72.0625,56.875 z m -26.40625,0.1875 0,1.90625 1.5625,0 0,15.125 -1.5625,0 0,1.90625 5.875,0 0,-1.90625 -1.59375,0 0,-15.125 1.59375,0 0,-1.90625 z m 7.4375,0 0,18.9375 2.71875,0 0,-8.1875 2,0 4,8.1875 3.15625,0 -4.53125,-8.625 c 1.159495,-0.363923 2.055327,-1.013337 2.65625,-1.90625 0.600899,-0.892892 0.906237,-1.971993 0.90625,-3.25 -1.3e-5,-1.751938 -0.473645,-3.032861 -1.375,-3.875 -0.901378,-0.842104 -2.283212,-1.281231 -4.1875,-1.28125 z m 2.71875,1.84375 2.375,0 c 0.99869,1.7e-5 1.750642,0.289405 2.25,0.84375 0.499339,0.554378 0.74999,1.368504 0.75,2.46875 -1e-5,1.244153 -0.275075,2.190441 -0.8125,2.8125 -0.537444,0.622081 -1.331388,0.93751 -2.40625,0.9375 l -2.15625,0 z"/>
  <g id="g4890">
   <path style="opacity:0.03333297;fill:#000000;fill-opacity:1;stroke:none;display:inline" id="path4892" d="M 28.65625,26.53125 C 22.845935,27.889873 26.517908,35.958716 25.5,40 26.465707,45.61407 23.719365,52.387393 26.53125,57.46875 28.385755,59.967171 33.90859,56.430959 32.5625,61 31.81964,70.015136 36.850128,56.635 41.5,58.5 38.850182,50.037682 47.60479,52.97979 53,52.5625 57.186771,52.047317 62.085141,52.675076 65.53125,54.34375 67.505811,52.346933 72.121549,53.636141 70.5,49.5 69.852156,42.455818 71.658165,34.810121 69.875,28.03125 66.139158,24.330683 59.667417,27.597027 55,26.5 c -8.780581,0.0216 -17.566088,-0.0427 -26.34375,0.03125 z"/>
   <path style="opacity:0.03333297;fill:#000000;fill-opacity:1;stroke:none;display:inline" id="path4896" d="m 28.34375,26.1875 c -5.808593,1.725844 -2.21107,9.58013 -3.1875,13.8125 0.930744,5.658494 -1.695743,12.325227 0.9375,17.53125 1.995839,2.878621 7.81488,-0.74435 6.125,4.46875 -1.63371,7.865809 8.345225,-4.693642 9.625,-5.15625 -1.745499,-7.287166 8.441127,-2.642206 12.6875,-3.9375 3.698977,-0.217568 7.765967,-0.114619 10.75,2.0625 1.942136,-2.36474 7.203625,-0.81007 5.5625,-5.15625 C 70.19283,42.621995 71.992875,34.897311 70.25,27.9375 66.585623,23.793866 59.775014,27.314257 55,26.15625 46.115926,26.179582 37.222557,26.111232 28.34375,26.1875 z"/>
   <path style="opacity:0.03333297;fill:#000000;fill-opacity:1;stroke:none;display:inline" id="path4900" d="M 28.5625,25.8125 C 22.173815,27.133637 25.616404,35.616682 24.78125,40 c 1.08127,5.81261 -2.067691,12.929817 1.3125,18.09375 1.995689,2.401544 7.16039,-0.663969 5.755494,3.906235 C 30.818009,72.647436 36.855942,57.287758 42,59.21875 c -2.069107,-7.71494 5.348933,-5.942734 11,-5.9375 4.188834,-0.488586 9.181487,0.04384 12.5,1.96875 2.009458,-2.386125 7.252927,-0.795913 5.71875,-5.15625 -0.508973,-7.26647 0.899191,-14.885753 -0.46875,-22 C 67.343622,23.184555 59.912303,26.968464 55,25.78125 46.188111,25.802933 37.371756,25.738444 28.5625,25.8125 z"/>
   <path style="opacity:0.03333297;fill:#000000;fill-opacity:1;stroke:none;display:inline" id="path4904" d="M 28.375,25.46875 C 21.868804,26.89978 25.205743,35.464129 24.4375,40 c 1.045894,5.84141 -1.986014,12.917169 1.25,18.15625 2.136053,2.754088 7.580436,-0.364235 5.822024,4.843727 C 30.385738,73.145781 36.612221,59.110557 41,59.5625 c 1.225583,-4.420251 3.41581,-7.875857 11,-5.9375 4.36711,-0.06889 9.906662,-0.653317 13.28125,2.28125 1.70914,-1.571297 3.999982,-2.310286 6.28125,-2.46875 -0.481591,-8.461431 0.873161,-17.260217 -0.5,-25.5625 C 67.562809,22.806958 60.039213,26.615218 55,25.4375 46.126203,25.459528 37.243578,25.394232 28.375,25.46875 z M 66.65625,63.8125 c -0.193685,1.477539 0.315427,-1.057688 0,0 z m -0.09375,1.40625 c -0.271908,1.524296 0.362831,5.69586 0.46875,5.5625 -0.548464,-1.500199 -0.458963,-6.73206 -0.46875,-5.5625 z m 0.59375,6 c -0.02635,0.152971 0.191991,0.512013 0,0 z"/>
   <path style="opacity:0.03333297;fill:#000000;fill-opacity:1;stroke:none;display:inline" id="path4908" d="M 28.5,25.09375 C 21.615645,26.279891 24.624535,35.282532 24.0625,40 c 1.125412,5.965714 -2.205518,13.360404 1.5,18.5625 1.962797,2.570751 7.170389,-0.319093 5.570903,4.437482 C 29.313052,73.318734 36.031653,62.711329 39.5625,59.9375 45.397871,60.314538 40.703283,50.161616 50,54 c 4.888721,0.564339 11.358931,-1.627405 15.125,2.5625 1.778274,-1.841691 4.269873,-2.754605 6.8125,-2.75 C 71.3464,45.19423 72.989769,36.087571 71.375,27.6875 67.538897,22.265904 59.485448,26.311315 54,25.0625 c -8.498971,0.02217 -17.0054,-0.04346 -25.5,0.03125 z m 19.78125,33.875 c 0.348573,4.309183 -0.720638,15.334363 0.59375,15.125 -0.435288,-3.861987 0.844703,-15.262824 -0.59375,-15.125 z m 5.875,15.96875 C 55.511403,70.49057 54.34767,63.524754 54.75,58.125 53.389442,62.436807 54.535321,69.620464 54.15625,74.9375 z M 60.5,58.40625 c 3.101187,1.349067 1.0559,7.076972 0.90625,7.3125 2.429095,-1.736062 1.887153,-6.981629 -0.90625,-7.3125 z m 9,0.03125 c -4.677793,3.067389 -4.058011,10.703681 -1.59375,15.03125 1.143963,1.253772 3.36416,2.039251 1,0.375 C 65.999158,69.799286 66.031022,61.606968 69.5,58.4375 z m -10.59375,8.53125 c 1.659086,6.038347 6.358736,10.994649 1.051145,1.774917 -0.528269,-0.135824 -0.419953,-1.884493 -1.051145,-1.774917 z"/>
   <path style="opacity:0.03333297;fill:#000000;fill-opacity:1;stroke:none;display:inline" id="path4912" d="m 28.46875,24.75 c -4.61945,0.333863 -5.434847,5.843171 -4.75,9.535714 0.390829,7.524765 -0.709921,15.391919 0.40625,22.745536 1.015376,2.66568 4.047177,3.636681 6.65625,3.25 0.515031,2.953313 -1.599566,12.368691 2.543042,6.461102 3.22119,-2.406707 5.182019,-7.799137 9.956958,-6.461102 -1.130005,-5.015421 0.503535,-7.267299 5.71875,-5.9375 5.200047,0.682032 12.236223,-1.888155 16.09375,2.75 1.784192,-2.006081 4.50875,-3.001577 7.1875,-2.9375 -0.217654,-8.546941 0.40338,-17.32391 -0.25,-25.75 C 69.866368,22.498748 62.38142,25.366331 57.714286,24.71875 47.966657,24.740914 38.212625,24.675294 28.46875,24.75 z M 71.3125,57.625 c -6.118561,0.617531 -5.973764,8.554407 -5.09375,13.03125 0.28412,3.83381 5.340167,6.125954 8.03125,4.15625 -4.737358,1.607722 -7.322797,-3.591537 -6.9375,-7.59375 -0.472079,-3.797157 0.762819,-9.868864 5.75,-9.15625 3.16242,0.143712 -0.629068,-0.770813 -1.75,-0.4375 z M 46.375,58.25 c 3.634454,0.2212 0.54406,7.167249 1.5625,10.004464 1.9519,3.692558 -3.152851,8.105305 0.580357,7.026786 4.115079,1.18499 -1.395988,-3.133794 0.700893,-6.901785 0.978357,-2.87581 -1.960252,-9.668586 1.433036,-10.129465 0.931296,-0.610492 -4.59616,-0.93035 -4.276786,0 z m 7.4375,17.03125 c 3.84076,-0.03126 -1.721116,-9.465163 3.428571,-8.1875 3.550838,0.558147 2.571124,8.32674 6.540179,8.1875 -0.482052,-2.684243 -5.677375,-7.231501 -3.15625,-8.75 4.164819,-1.358505 3.337249,-9.30616 -1.5625,-8.71875 -5.882988,-1.829355 -5.725032,2.529404 -5.25,7.111607 0,3.452381 0,6.904762 0,10.357143 z m 2,-17.09375 c 3.328815,-0.995722 7.002953,1.319923 6.03125,5 -0.147205,3.446714 -4.042425,3.981375 -6.75,3.5 0.524083,-2.243638 -1.045083,-7.651715 0.71875,-8.5 z"/>
   <path style="opacity:0.03333297;fill:#000000;fill-opacity:1;stroke:none;display:inline" id="path4916" d="m 28.40625,24.375 c -3.563481,0.299095 -5.682866,4.070302 -5.0625,7.410714 0.08955,8.119094 -0.175185,16.270624 0.125,24.370536 0.583463,3.125945 3.902683,4.98174 6.9375,4.5 0.0081,3.166671 0.02122,6.333333 0.03125,9.5 3.205041,-3.124853 6.278798,-6.562609 9.5625,-9.5 2.493127,0.321996 4.56254,0.220279 3.65625,-2.857142 -0.797675,-3.010473 0.89569,-3.529906 3.558035,-3.080358 4.800323,0.232354 9.704156,-0.486975 14.441965,0.40625 1.362033,0.478826 2.754565,1.233238 3.375,2.625 1.765187,-2.352958 4.734989,-3.364376 7.625,-3.21875 -0.0872,-8.558301 0.171952,-17.148298 -0.125,-25.6875 -0.634115,-3.473203 -4.447112,-5.076334 -7.674107,-4.5 -12.149669,0.02117 -24.304129,-0.04211 -36.450893,0.03125 z m 42.875,32.875 c -4.483007,0.230737 -6.06417,5.253581 -5.84375,9.0625 -0.122988,3.732416 0.899554,8.993518 5.40625,9.4375 1.160138,0.0589 3.235091,0.373672 3.78125,-0.607143 0.25317,-1.55554 -2.074918,0.0076 -3.0625,-0.549107 -3.884527,-0.97771 -3.94933,-6.004081 -3.875,-9.28125 -0.104945,-2.908247 1.099442,-7.090788 4.65625,-6.90625 1.690564,0.925475 3.534846,-0.725748 1.1875,-1.09375 -0.745881,-0.06481 -1.502339,-0.142857 -2.25,-0.0625 z M 46,58.625 c 2.842088,-0.659053 1.074902,3.291169 1.5625,4.986606 0,3.608632 0,7.217263 0,10.825894 -3.656072,0.135352 0.04355,2.024628 2.008928,1.21875 3.945194,-0.371628 -0.856687,-0.922824 0.02232,-2.991071 0,-4.68006 0,-9.360119 0,-14.040179 3.683471,-0.120625 0.0201,-2.02758 -1.977678,-1.21875 C 46.448296,57.39902 45.644656,57.076632 46,58.625 z m 7.4375,17.03125 c 3.193976,0.969274 1.708752,-2.740652 2.03125,-4.642856 -0.413187,-2.290185 0.0274,-4.623336 2.65625,-3.357144 1.302083,2.666667 2.604167,5.333333 3.90625,8 3.743892,0.919385 1.259341,-1.919521 0.377141,-3.791557 -0.249809,-1.524369 -3.282488,-4.09913 -1.759555,-4.953563 4.241472,-1.316761 4.058015,-9.045911 -0.719294,-9.379446 -2.151707,-0.257005 -4.329553,-0.06716 -6.492042,-0.125434 0,6.083333 0,12.166667 0,18.25 z m 2.375,-17.09375 c 2.084191,-0.217511 5.287733,-0.176499 5.625,2.5 0.576925,2.350069 -0.62619,5.542083 -3.46875,5.25 -3.13171,0.993317 -2.549856,-1.726929 -2.5,-3.915178 0.230236,-1.115726 -0.460562,-3.315199 0.34375,-3.834822 z"/>
   <path style="opacity:0.03333297;fill:#000000;fill-opacity:1;stroke:none;display:inline" id="path4920" d="m 28.375,23.9375 c -2.66777,0.237926 -4.94878,2.371059 -5.382973,5.008616 -0.193514,2.107021 -0.0336,4.237594 -0.08578,6.353884 0.0133,6.736837 -0.02658,13.476325 0.0199,20.211507 0.190625,2.675926 2.286709,5.003563 4.921907,5.476855 0.696839,0.148626 1.413184,0.09681 2.120692,0.105388 0.01015,3.385417 0.02242,6.770831 0.03125,10.15625 3.312714,-3.413625 6.692675,-6.76613 10.03125,-10.15625 1.354167,0 2.708333,0 4.0625,0 0,-1.979167 0,-3.958333 0,-5.9375 5.085016,0.02544 10.172441,-0.05124 15.255932,0.03923 1.544976,0.07256 3.103492,0.531843 4.306568,1.523275 0.362074,0.249296 0.745355,0.719642 0.93857,1.144844 0.17945,0.423692 0.534746,1.162695 0.65518,0.355156 C 65.70133,57.58 66.381344,56.852374 67.085166,56.44759 68.809879,55.226592 71.011223,54.836226 73.09375,55 73.080392,46.4965 73.120407,37.990337 73.073849,29.488493 72.883224,26.812567 70.78714,24.48493 68.151942,24.011638 66.249119,23.779944 64.315235,23.966076 62.4,23.90625 51.096496,23.919529 39.790342,23.8797 28.488493,23.926151 l -0.0995,0.0099 -0.01399,0.0014 z m 42.84375,32.875 c -1.614805,0.162835 -3.221343,0.811742 -4.21875,2.125 -1.288287,1.485244 -1.723484,3.561319 -1.923867,5.486982 -0.148974,2.867379 -0.122482,5.892827 1.124838,8.539961 0.803899,1.745693 2.537467,3.004668 4.469947,3.209877 1.456662,0.226662 2.981349,0.08366 4.391582,-0.33057 0,-0.6875 0,-1.375 0,-2.0625 -1.50135,0.477657 -3.43178,0.747219 -4.71875,-0.1875 -1.642485,-1.236779 -1.953526,-3.499479 -2.1875,-5.46875 -0.07444,-2.569208 -0.23338,-5.368345 1.125,-7.65625 0.311592,-0.520697 0.836685,-1.035188 1.40625,-1.25 1.352021,-0.704697 2.976288,-0.278352 4.375,0.09375 0,-0.71875 0,-1.4375 0,-2.15625 -1.252857,-0.304474 -2.553564,-0.437655 -3.84375,-0.34375 z m -25.65625,0.25 c 0,0.666667 0,1.333333 0,2 0.471925,0.148909 1.570839,-0.329172 1.5625,0.3 0,4.879167 0,9.758333 0,14.6375 -0.472527,0.146223 -1.560404,-0.322904 -1.5625,0.29375 0,0.6 0,1.2 0,1.8 2.020833,0 4.041667,0 6.0625,0 0,-0.697917 0,-1.395833 0,-2.09375 -0.485763,-0.145487 -1.586067,0.323567 -1.59375,-0.3 0,-4.879167 0,-9.758333 0,-14.6375 0.483134,-0.146032 1.580464,0.322131 1.59375,-0.29375 0,-0.6 0,-1.2 0,-1.8 -2.020833,0 -4.041667,0 -6.0625,0 l 0,0.09375 z m 7.4375,0 c 0,6.34375 0,12.6875 0,19.03125 0.96875,0 1.9375,0 2.90625,0 0,-2.729167 0,-5.458333 0,-8.1875 0.614583,0 1.229167,0 1.84375,0 1.333529,2.72907 2.665502,5.458909 4,8.1875 1.125,0 2.25,0 3.375,0 -1.515423,-2.888196 -3.042572,-5.770368 -4.5625,-8.65625 1.971237,-0.581754 3.390028,-2.456409 3.497034,-4.51049 0.109324,-1.62662 -0.08424,-3.513228 -1.372034,-4.64576 -1.566411,-1.483507 -3.932938,-1.300109 -5.95,-1.3125 -1.245833,0 -2.491667,0 -3.7375,0 l 0,0.09375 z M 58.1875,59 c 1.076919,-0.03568 2.288533,0.473821 2.625,1.5625 0.490667,1.422559 0.398881,3.18245 -0.53125,4.40625 -0.768291,0.966007 -2.224357,0.948584 -3.4125,0.90625 -0.778486,0.157653 -1.163306,-0.07836 -0.9625,-0.9 0,-1.991667 0,-3.983333 0,-5.975 0.760417,0 1.520833,0 2.28125,0 z"/>
   <path style="opacity:0.03333297;fill:#000000;fill-opacity:1;stroke:none;display:inline" id="path4924" d="m 28.34375,23.6875 c -3.927937,0.266269 -6.364023,4.407345 -5.6875,8.098215 0.08591,8.172187 -0.170211,16.370486 0.125,24.526785 0.588011,3.14101 3.778222,5.388925 6.9375,5.03125 0.0095,3.510418 0.02652,7.020824 0.03125,10.53125 3.443022,-3.535374 6.941719,-7.016741 10.40625,-10.53125 2.207242,-0.01746 5.207116,0.757711 4.1875,-2.486608 -0.557784,-2.77951 0.27134,-4.172112 3.214286,-3.450892 4.611156,0.239553 9.336649,-0.497853 13.879464,0.40625 1.681796,0.456346 2.993743,1.765655 3.5625,3.40625 1.453236,-3.052778 5.092476,-4.351303 8.34375,-3.9375 -0.08637,-8.861148 0.170868,-17.748502 -0.125,-26.59375 -0.675038,-3.796172 -4.807762,-5.661032 -8.361608,-5.03125 -12.170561,0.02117 -24.345448,-0.04212 -36.513392,0.03125 z m 42.84375,32.875 c -4.497086,0.152974 -6.580545,4.999818 -6.416167,8.982005 -0.194641,4.049673 0.532383,9.722012 5.197417,10.767995 1.763006,0.395744 3.615706,0.228697 5.34375,-0.25 0.44728,-2.345103 -0.163188,-2.897648 -2.28125,-2.125 -3.413217,0.565327 -4.654732,-3.470202 -4.637308,-6.200681 -0.0458,-2.844396 -0.322429,-7.145399 2.762308,-8.455569 1.36166,-0.447029 2.829631,-0.0078 4.15625,0.375 0.468782,-2.028224 -0.227051,-3.361433 -2.399319,-3.090568 -0.574406,-0.01964 -1.152256,-0.07045 -1.725681,-0.0032 z m -25.875,0.5 c -0.914465,3.018632 2.653499,1.554835 1.5625,4.75 0,3.979167 0,7.958333 0,11.9375 -2.614815,-0.859731 -2.041238,4.030317 0.566965,2.59375 1.952055,-0.235444 5.426941,1.051941 4.433035,-2.129465 -2.038675,-0.07591 -1.644865,-2.584301 -1.59375,-4.75 0,-3.383928 0,-6.767857 0,-10.151785 2.638276,0.887923 2.09266,-4.026691 -0.535715,-2.59375 -1.308731,0.242599 -3.723583,-0.478574 -4.433035,0.34375 z m 7.4375,0 c 0,6.427083 0,12.854167 0,19.28125 2.768598,0.566217 4.104037,-0.300726 3.40625,-3.200893 0.491702,-1.649667 -1.243912,-5.52665 1.4375,-4.986607 1.451537,2.657274 2.558273,5.861511 4.21875,8.1875 2.485296,0.187062 4.840126,0.3373 2.470426,-2.396098 C 63.223152,71.830378 61.90039,69.628498 61,67.5625 65.633122,65.967693 65.562619,57.668341 60.4375,56.90625 57.895034,56.533656 55.310245,56.798487 52.75,56.71875 l 0,0.34375 z m 5.4375,2.1875 c 3.793735,-0.276336 3.479764,6.743385 -0.21875,6.375 -3.07377,0.921984 -1.395425,-2.908147 -1.8125,-4.642858 -0.321695,-1.99264 0.264272,-1.813314 2.03125,-1.732142 z"/>
   <path style="opacity:0.03333297;fill:#000000;fill-opacity:1;stroke:none;display:inline" id="path4928" d="m 28.3125,23.3125 c -5.285164,0.405859 -6.963358,6.51276 -6.03125,10.973215 0.296253,7.533616 -0.539053,15.290808 0.3125,22.714285 0.828175,2.88115 3.808009,4.90456 6.75,4.71875 0.712675,2.548832 -1.440012,12.046846 1.25,9.78125 3.548824,-3.064841 6.495885,-7.572632 10.401786,-9.78125 6.391485,2.695056 1.580647,-5.81221 5.151786,-5.9375 5.574452,0.74565 12.053876,-1.570542 17.102678,1.375 1.172462,0.962878 1.651224,4.018383 2.5625,1.34375 1.814486,-2.509374 4.995923,-3.193585 7.90625,-2.84375 C 73.435809,46.472774 74.239056,37.074394 73.40625,28 71.662833,22.103905 64.554273,23.150178 59.857142,23.28125 49.342918,23.303885 38.824076,23.237159 28.3125,23.3125 z m 42.84375,32.875 c -3.507636,0.218428 -5.995819,3.134188 -6.4375,6.5 0.720718,-4.409083 -3.736296,-7.160222 -7.709822,-6.34375 -5.881925,-1.954842 -4.763632,3.090535 -4.633928,7.147322 0,4.409226 0,8.818452 0,13.227678 5.631871,1.864014 4.08937,-3.446344 4.15625,-7.147322 1.630669,-2.901155 3.119487,6.264179 5.28125,7.147322 7.088732,1.726195 1.977749,-3.908981 0.45758,-7.384971 -2.229635,-2.08937 1.976666,-2.546027 2.07367,-4.740029 0.09213,1.440817 -0.117578,5.763598 1.09375,8.1875 1.410512,3.996438 6.515739,4.932061 10.25,3.5625 1.055413,-4.059269 -1.17987,-2.875857 -3.9375,-2.8125 -4.077951,-1.638356 -3.0069,-7.526206 -2.65625,-11.09375 0.411914,-3.307494 4.176018,-3.5263 6.59375,-2.3125 0.895263,-4.186438 -1.34729,-3.987942 -4.53125,-3.9375 z m -26.21875,0.875 c 0.525427,3.251359 2.498699,5.054873 1.5625,9.767858 1.094203,4.671584 -1.303023,5.851738 -1.5625,9.169642 0.800105,0.969546 8.638709,2.32374 7.3125,-1.428572 -2.169426,-1.617776 -1.605329,-5.969075 -1.59375,-9.767857 -1.406241,-4.757432 2.296449,-4.405932 1.59375,-8.459821 -1.996203,0.535106 -6.653663,-1.078592 -7.3125,0.71875 z m 13.25,2.5625 c 3.676345,-0.244086 2.743098,6.891317 -0.933036,5.625 -1.23098,0.28425 -1.552408,-7.207802 0.933036,-5.625 z"/>
   <path style="opacity:0.03333297;fill:#000000;fill-opacity:1;stroke:none;display:inline" id="path4932" d="M 28.28125,22.96875 C 21.978971,23.457095 20.97661,31.057295 21.9375,36 c 0.834995,7.379014 -1.535916,15.381476 0.875,22.46875 1.263234,2.166737 3.665689,3.663109 6.1875,3.59375 0.141584,5.773184 -1.541536,15.90255 4.658391,6.845354 2.289435,-5.647662 10.069563,-5.645031 11.404109,-8.876604 1.945991,2.440028 1.858803,12.145896 -0.46875,14 -1.219078,5.969078 7.629743,1.870257 11.21875,3.03125 2.516733,-2.704419 -0.345586,-13.313942 3.95134,-2.798945 3.606161,6.619406 9.676339,1.289107 3.363275,-4.081112 -2.742945,-1.376652 0.430297,-3.803007 0.904135,-3.869943 -0.688124,5.333366 2.647649,11.94856 8.8125,10.90625 4.293866,0.947151 4.595927,-6.658839 0.15625,-4 -5.04214,0.08608 -3.998197,-7.430494 -3.5625,-10.6875 0.416097,-3.325931 4.283153,-3.116761 6.59375,-1.9375 -0.184825,-4.632209 -3.421828,-6.752025 -1.96875,-12.6875 -0.812267,-7.018205 1.505242,-14.647192 -0.875,-21.375 C 68.784326,19.863298 59.465398,24.146296 53,22.9375 c -8.238855,0.02365 -16.482569,-0.04546 -24.71875,0.03125 z m 29.90625,37 c 3.365593,-0.0581 2.157379,6.468363 -1.3125,4.9375 0.5892,-1.373429 -1.344601,-5.721786 1.3125,-4.9375 z m -6.65625,0.0625 c 1.236701,1.788059 0.425523,18.347957 -0.53125,10 0.351991,-3.096619 -0.703046,-7.812873 0.53125,-10 z"/>
   <path style="opacity:0.03333297;fill:#000000;fill-opacity:1;stroke:none;display:inline" id="path4936" d="M 28.53125,22.59375 C 21.929608,22.866081 20.468143,30.715855 21.5625,36 c 0.843841,7.425369 -1.585875,15.588436 0.96875,22.65625 1.231807,2.209112 3.591928,3.615081 6.09375,3.78125 0.532613,4.55128 -1.981363,16.666929 3.87598,8.141337 3.449694,-4.563334 8.799486,-8.568242 12.93652,-9.141337 -0.09613,-1.899965 1.848148,10.88782 -0.78125,11.21875 -3.203478,5.86168 4.06483,5.043539 8.4375,4.78125 7.883197,3.655718 1.561996,-14.103634 6.350426,-3.038412 -0.330493,4.527817 10.113938,4.00152 6.868324,1.007162 2.416829,2.720228 8.463848,3.154222 10.09375,0.5 C 77.763577,70.738493 74.501632,73.212756 71.5,72.71875 68.431159,69.959768 68.642119,63.627649 71.0625,60.5 c 2.423028,-1.387513 6.670805,2.606614 5.34375,-2.3125 -2.309694,-2.78109 -2.274173,-7.429274 -1.96875,-12.28125 -1.185431,-6.86734 2.570191,-15.456123 -2.25,-21.25 C 66.295095,20.08757 57.858616,23.720728 51,22.5625 c -7.487661,0.02186 -14.989624,-0.04303 -22.46875,0.03125 z m 29.65625,37.75 c 3.416342,-0.350035 0.544176,7.044187 -0.9375,3.1875 0.47662,-0.861198 -1.050064,-3.870759 0.9375,-3.1875 z m -6.65625,0.0625 c 0.287856,1.899821 0.148063,17.231138 -0.15625,9.25 0.108283,-3.008537 -0.213264,-6.509794 0.15625,-9.25 z m 12.15625,7.1875 c 0.46178,3.678089 0.798025,4.980192 -1.28125,0.46875 0.470165,0.0083 1.567843,-1.846376 1.28125,-0.46875 z"/>
   <path style="opacity:0.03333297;fill:#000000;fill-opacity:1;stroke:none;display:inline" id="path4940" d="m 28.1875,22.25 c -6.630194,0.543404 -8.045752,8.374583 -6.96875,13.75 0.860173,7.514488 -1.623597,15.69089 1,22.875 1.269121,2.142166 3.555093,3.681202 6.0625,3.875 0.924316,3.468565 -2.344056,17.00966 3.09375,9.5 4.590221,-3.38946 7.407542,-11.029144 14.0625,-9.46875 1.92607,6.434127 -3.418924,10.900587 -0.5625,15 3.844959,-1.321708 13.144272,2.810938 12.71875,-2.78125 -0.305895,-8.469192 2.152879,7.341397 8.375,2.78125 1.770177,-1.004494 1.800519,-0.565236 4.53125,0.0625 3.510701,0.556578 7.968223,-0.262455 6.25,-4.9375 0.33001,-3.02622 -5.294798,1.74977 -6.21875,-1.78125 -0.643557,-2.989217 -2.232392,-9.539227 1.78125,-10.59375 5.247924,3.474601 6.10647,-4.149217 2.46875,-5.625 -0.621622,-9.263433 1.123152,-18.916761 -0.625,-28 C 70.556774,19.259471 60.505833,23.112788 54,22.21875 45.396559,22.242415 36.788268,22.173269 28.1875,22.25 z m 30,38.4375 c 2.808407,-0.136979 0.220392,5.931739 -0.59375,2.5 0.385857,-0.561629 -0.732866,-2.934194 0.59375,-2.5 z M 63.375,68.25 c 0.579869,3.49589 -1.039117,-1.697116 0,0 z"/>
   <path style="opacity:0.03333297;fill:#000000;fill-opacity:1;stroke:none;display:inline" id="path4944" d="m 28.46875,21.875 c -6.960444,0.282585 -8.836724,8.481746 -7.625,14.125 0.900047,7.565707 -1.718623,15.869851 1.09375,23.0625 1.235092,2.161122 3.507889,3.7022 5.96875,4 0.852956,3.997952 -2.419178,18.143489 3.582957,9.574453 4.516512,-3.179516 7.167272,-10.830792 13.573293,-9.480703 1.264682,6.785516 -2.252108,8.789558 -1.5625,15 4.822917,0 9.645833,0 14.46875,0 -0.506133,-10.007415 0.835606,2.7801 7,0 3.09489,0.0186 3.138788,-0.639424 6.03125,0.125 3.060842,0.17925 7.647093,-0.06236 6.125,-4.375 1.817331,-5.811286 -5.729365,1.127941 -6.5,-3.5 -0.247608,-2.755232 -1.689574,-7.99792 1.4375,-9.5 5.118312,3.258526 7.314623,-3.369687 3.40625,-5.75 -1.319458,-8.880778 0.968764,-19.156837 -0.9375,-28.3125 C 70.915452,18.932023 60.660622,22.648711 54,21.84375 45.491047,21.865611 36.971226,21.800708 28.46875,21.875 z M 58.1875,61.0625 c 2.461568,0.112778 -0.837385,5.884959 -0.21875,0.75 l 0,-0.75 0.21875,0 z"/>
   <path style="opacity:0.03333297;fill:#000000;fill-opacity:1;stroke:none;display:inline" id="path4948" d="M 28.125,21.53125 C 21.136879,22.096267 19.309657,30.259226 20.5,36 c 0.911974,7.634158 -1.750306,15.981291 1.125,23.25 1.07605,3.769558 7.452565,2.7128 5.949795,7.124975 0.210259,5.114497 -1.560232,15.127766 4.300205,6.375025 3.85765,-2.632195 8.574584,-12.242676 12.84375,-8.25 1.776085,5.871862 -4.090446,9.647641 -0.5625,14 4.228457,-1.323626 13.934017,2.82985 14.15625,-2.5 -0.770707,0.10779 6.782348,4.646568 10.6875,2.28125 3.58611,0.845295 10.116989,0.861278 8.46875,-4.375 1.758163,-6.036098 -3.616777,-0.650033 -6,-2.5625 C 70.367665,68.6012 69.249526,62.944119 72.1875,61.25 c 4.861914,1.753026 6.27779,0.478724 5.28125,-5 C 73.471531,53.405597 76.377177,45.121684 75.5,39.8125 75.602427,33.74973 77.240548,24.067391 69.4375,21.875 55.821953,20.911209 41.827357,21.787494 28.125,21.53125 z m 30.25,39.875 c 1.14137,1.174256 -0.770101,3.612035 0,0 z"/>
  </g>
 </g>
 <g style="display:inline" id="layer2">
  <path style="fill:#ffffff;fill-opacity:1;stroke:none" id="rect4611" d="m 29,23 c -3.324,0 -6,2.676 -6,6 l 0,25 c 0,3.324 2.676,6 6,6 l 1.0625,0 0.03125,10 L 40,60 l 4,0 0,-5.9375 9.53125,0 4.90625,0 c 2.211744,2.2e-5 4.169479,0.511083 5.5625,1.8125 0.474538,0.443363 0.729804,1.050669 1.03125,1.625 0.0799,-0.121374 0.10186,-0.289067 0.1875,-0.40625 1.542469,-2.110438 4.076927,-3.218727 6.84375,-3.21875 0.315195,6e-6 0.630148,0.01097 0.9375,0.03125 L 73,29 c 0,-3.324 -2.676,-6 -6,-6 z m 43.0625,32.875 c -2.302089,1.9e-5 -4.046554,0.802427 -5.21875,2.40625 -1.172202,1.603856 -1.750001,3.933607 -1.75,7.03125 -10e-7,3.436204 0.594725,5.957035 1.75,7.53125 1.155269,1.574219 2.854161,2.34375 5.15625,2.34375 0.973298,0 1.978505,-0.135417 2.96875,-0.40625 l 0,-1.875 c -0.863292,0.262372 -1.710296,0.406252 -2.53125,0.40625 -1.481127,2e-6 -2.603196,-0.685545 -3.34375,-2.03125 C 68.353186,69.935552 67.999996,67.918627 68,65.21875 c -4e-6,-2.488269 0.343094,-4.349595 1.0625,-5.59375 0.719395,-1.244124 1.811191,-1.874983 3.25,-1.875 0.880199,1.7e-5 1.767568,0.15822 2.65625,0.4375 l 0,-1.9375 C 74.105458,55.996113 73.128897,55.875019 72.0625,55.875 z m -26.40625,0.1875 0,1.90625 1.5625,0 0,15.125 -1.5625,0 0,1.90625 5.875,0 0,-1.90625 -1.59375,0 0,-15.125 1.59375,0 0,-1.90625 z m 7.4375,0 0,18.9375 2.71875,0 0,-8.1875 2,0 4,8.1875 3.15625,0 -4.53125,-8.625 c 1.159495,-0.363923 2.055327,-1.013337 2.65625,-1.90625 0.600899,-0.892892 0.906237,-1.971993 0.90625,-3.25 -1.3e-5,-1.751938 -0.473645,-3.032861 -1.375,-3.875 -0.901378,-0.842104 -2.283212,-1.281231 -4.1875,-1.28125 z m 2.71875,1.84375 2.375,0 c 0.99869,1.7e-5 1.750642,0.289405 2.25,0.84375 0.499339,0.554378 0.74999,1.368504 0.75,2.46875 -1e-5,1.244153 -0.275075,2.190441 -0.8125,2.8125 -0.537444,0.622081 -1.331388,0.93751 -2.40625,0.9375 l -2.15625,0 z"/>
 </g>
</svg>
