<?xml version="1.0" encoding="UTF-8" standalone="no"?>
<!-- Generator: Adobe Illustrator 15.0.0, SVG Export Plug-In . SVG Version: 6.00 Build 0)  -->

<svg
   xmlns:dc="http://purl.org/dc/elements/1.1/"
   xmlns:cc="http://creativecommons.org/ns#"
   xmlns:rdf="http://www.w3.org/1999/02/22-rdf-syntax-ns#"
   xmlns:svg="http://www.w3.org/2000/svg"
   xmlns="http://www.w3.org/2000/svg"
   xmlns:sodipodi="http://sodipodi.sourceforge.net/DTD/sodipodi-0.dtd"
   xmlns:inkscape="http://www.inkscape.org/namespaces/inkscape"
   version="1.1"
   x="0px"
   y="0px"
   width="30px"
   height="30px"
   viewBox="0 0 30 30"
   enable-background="new 0 0 30 30"
   xml:space="preserve"
   id="svg2"
   inkscape:version="0.48.2 r9819"
   sodipodi:docname="icon-users.svg"><metadata
   id="metadata23"><rdf:RDF><cc:Work
       rdf:about=""><dc:format>image/svg+xml</dc:format><dc:type
         rdf:resource="http://purl.org/dc/dcmitype/StillImage" /><dc:title></dc:title></cc:Work></rdf:RDF></metadata><defs
   id="defs21">
	

		
		
		
		
		
	</defs><sodipodi:namedview
   pagecolor="#ffffff"
   bordercolor="#666666"
   borderopacity="1"
   objecttolerance="10"
   gridtolerance="10"
   guidetolerance="10"
   inkscape:pageopacity="0"
   inkscape:pageshadow="2"
   inkscape:window-width="1366"
   inkscape:window-height="706"
   id="namedview19"
   showgrid="false"
   inkscape:zoom="29.8"
   inkscape:cx="14.66443"
   inkscape:cy="20.369128"
   inkscape:window-x="-8"
   inkscape:window-y="-8"
   inkscape:window-maximized="1"
   inkscape:current-layer="svg2" />
<g
   id="DO_NOT_EDIT_-_BOUNDING_BOX">
	<rect
   id="BOUNDING_BOX"
   fill="none"
   width="30"
   height="30" />
</g>
<path
   style="opacity:0.3"
   d="m 7.557,20.969 c 1.318,-0.775 2.677,-1.305 2.734,-1.328 0.522,-0.207 0.852,-0.57 0.978,-1.078 0.03,-0.117 0.054,-0.217 0.071,-0.299 C 10.826,17.643 10.513,16.817 10.334,16.201 9.837,15.803 9.681,15.082 9.576,14.597 9.548,14.46 9.529,14.368 9.508,14.302 9.316,13.685 9.239,13.245 9.268,12.913 9.268,12.628 9.331,12.36 9.456,12.128 9.341,11.675 9.296,11.261 9.311,10.792 9.319,10.593 9.306,10.415 9.294,10.245 9.227,9.249 9.253,8.388 10.204,6.862 10.34,6.626 10.642,6.313 11.079,6.137 11.248,5.826 11.606,5.274 12.427,5.153 12.314,4.936 12.181,4.702 11.994,4.419 11.668,3.925 11.219,3.843 9.351,3.233 7.49,2.626 7.224,3.397 6.605,3.323 5.99,3.248 5.904,3.502 5.785,3.727 5.664,3.95 5.785,4.127 5.447,4.143 5.108,4.158 4.959,4.42 4.959,4.42 3.953,6.049 4.326,6.539 4.292,7.58 4.273,8.133 4.362,8.545 4.647,9.309 L 4.616,9.268 c 0,0 -0.394,-0.188 -0.364,0.354 0,0 -0.055,0.168 0.169,0.891 0.134,0.416 0.235,1.574 0.619,1.207 0.013,0.043 0.03,0.088 0.044,0.133 0,0 0.301,1.594 1.067,2.264 0.155,0.146 0.056,0.602 -0.05,1.033 -0.044,0.164 -0.263,1.291 -1.609,1.836 0,0 -1.23,0.482 -2.468,1.215 0,0 -0.833,0.42 -1.006,1.117 L 1,19.42 c 0.704,0.406 1.534,0.738 2.501,0.992 1.688,0.439 2.997,0.559 4.011,0.58 0.014,-0.006 0.037,-0.019 0.045,-0.023 z"
   id="path3784" /><path
   style="opacity:0.3"
   d="m 28.966,19.316 c -0.172,-0.697 -1.001,-1.117 -1.001,-1.117 -1.239,-0.732 -2.47,-1.215 -2.47,-1.215 -0.173,-0.068 -0.324,-0.148 -0.461,-0.234 -0.757,-0.525 -1.144,-1.461 -1.182,-1.602 -0.106,-0.432 -0.2,-0.887 -0.049,-1.033 0.765,-0.67 1.069,-2.264 1.069,-2.264 0.02,-0.063 0.038,-0.121 0.061,-0.178 0.375,0.467 0.567,-0.629 0.723,-1.131 0.162,-0.529 0.23,-0.877 0.23,-0.877 C 25.952,9.128 25.548,9.286 25.548,9.286 L 25.517,9.321 C 25.576,8.571 25.789,8.114 25.789,7.44 25.794,6.397 26.047,6.016 24.994,4.419 24.668,3.925 24.219,3.843 22.351,3.233 20.49,2.626 20.224,3.397 19.605,3.323 18.989,3.247 18.903,3.501 18.784,3.725 c -0.121,0.223 0,0.4 -0.338,0.416 -0.339,0.016 -0.488,0.277 -0.488,0.277 -0.258,0.418 -0.423,0.758 -0.529,1.055 1.208,0.389 1.815,0.637 2.297,1.359 1.074,1.611 1.119,2.359 1.065,3.402 -0.008,0.158 -0.015,0.299 -0.016,0.457 0,0.51 -0.089,0.924 -0.167,1.291 0.128,0.166 0.339,0.572 0.261,1.201 -0.019,0.117 -0.105,0.533 -0.29,1.131 l -0.069,0.242 c -0.156,0.576 -0.358,1.318 -0.906,1.691 -0.179,0.596 -0.49,1.393 -0.994,2.01 0.016,0.072 0.036,0.162 0.063,0.275 0.033,0.082 0.331,0.684 0.775,0.99 0.043,0.025 0.139,0.074 0.248,0.117 0.013,0.004 1.379,0.533 2.788,1.355 1.038,-0.014 2.405,-0.117 4.199,-0.586 0.896,-0.236 1.658,-0.539 2.315,-0.908 l -0.032,-0.184 z"
   id="path3782" /><path
   style="opacity:0.3"
   d="M 21.896,22.043 C 20.574,21.27 19.261,20.76 19.261,20.76 c -0.185,-0.07 -0.346,-0.154 -0.492,-0.246 -0.807,-0.555 -1.22,-1.541 -1.26,-1.691 -0.113,-0.455 -0.214,-0.936 -0.053,-1.09 0.816,-0.707 1.141,-2.391 1.141,-2.391 0.021,-0.064 0.041,-0.127 0.064,-0.186 0.4,0.49 0.605,-0.666 0.771,-1.195 0.173,-0.559 0.246,-0.924 0.246,-0.924 0.07,-0.568 -0.361,-0.4 -0.361,-0.4 l -0.033,0.037 c 0.063,-0.791 0.291,-1.273 0.291,-1.986 C 19.58,9.586 19.85,9.186 18.727,7.499 18.379,6.978 17.899,6.892 15.908,6.249 13.923,5.606 13.639,6.421 12.979,6.343 12.321,6.263 12.23,6.532 12.102,6.769 c -0.129,0.234 0,0.422 -0.359,0.438 -0.361,0.018 -0.521,0.293 -0.521,0.293 -1.072,1.721 -0.675,2.236 -0.711,3.336 -0.02,0.584 0.074,1.02 0.379,1.826 l -0.033,-0.045 c 0,0 -0.42,-0.197 -0.389,0.373 0,0 -0.059,0.178 0.18,0.941 0.143,0.439 0.252,1.66 0.661,1.273 0.013,0.045 0.032,0.094 0.047,0.139 0,0 0.321,1.684 1.138,2.391 0.166,0.154 0.061,0.635 -0.053,1.09 -0.047,0.174 -0.279,1.363 -1.717,1.938 0,0 -1.313,0.51 -2.632,1.283 0,0 -0.889,0.443 -1.073,1.18 L 7,23.332 c 0.751,0.43 1.637,0.779 2.668,1.047 2.52,0.652 4.256,0.637 5.432,0.611 1.176,0.025 2.91,0.041 5.431,-0.611 0.955,-0.248 1.769,-0.568 2.47,-0.959 l -0.037,-0.197 c -0.184,-0.737 -1.068,-1.18 -1.068,-1.18 z"
   id="path9" /><path
   style="opacity:0.15"
   d="m 15.799,26.999 c -0.26,0 -0.5,-0.004 -0.721,-0.009 -0.178,0.005 -0.417,0.009 -0.678,0.009 -1.058,0 -2.725,-0.067 -4.982,-0.652 C 8.314,26.061 7.334,25.675 6.504,25.201 6.137,24.991 5.942,24.573 6.016,24.157 l 0.02,-0.109 C 6.146,23.604 6.374,23.239 6.624,22.952 5.525,22.872 4.413,22.683 3.25,22.381 2.21,22.108 1.286,21.74 0.501,21.287 0.136,21.076 -0.058,20.659 0.017,20.244 L 0.036,20.14 c 0.283,-1.151 1.333,-1.729 1.54,-1.833 1.232,-0.732 2.5,-1.232 2.553,-1.253 0.527,-0.214 0.866,-0.591 0.997,-1.116 0.02,-0.08 0.056,-0.23 0.082,-0.358 -0.52,-0.602 -0.82,-1.44 -0.976,-2 C 3.779,13.242 3.636,12.567 3.54,12.114 3.516,12 3.496,11.893 3.472,11.819 3.274,11.178 3.234,10.81 3.254,10.567 3.254,10.246 3.337,10.004 3.441,9.827 3.332,9.412 3.28,9.017 3.296,8.547 3.299,8.34 3.286,8.159 3.274,7.985 3.214,7.095 3.238,6.303 4.107,4.894 4.237,4.668 4.515,4.39 4.909,4.244 5.041,3.989 5.398,3.311 6.401,3.311 6.499,3.311 6.608,3.317 6.729,3.332 6.692,3.322 6.741,3.298 6.796,3.276 7.068,3.166 7.479,3 8.1,3 8.565,3 9.077,3.093 9.663,3.284 l 0.689,0.223 c 1.417,0.455 2.002,0.643 2.478,1.363 0.209,0.317 0.358,0.58 0.484,0.822 0.083,0.159 0.121,0.335 0.113,0.51 C 13.701,6.102 14.071,6 14.572,6 c 0.489,0 1.027,0.097 1.645,0.297 l 0.219,0.069 c 0.009,-0.078 0.026,-0.154 0.053,-0.229 0.137,-0.382 0.34,-0.789 0.619,-1.242 0.13,-0.227 0.407,-0.505 0.802,-0.651 0.132,-0.255 0.489,-0.933 1.492,-0.933 0.097,0 0.206,0.006 0.328,0.021 C 19.693,3.322 19.742,3.298 19.796,3.276 20.067,3.166 20.479,3 21.1,3 c 0.466,0 0.978,0.093 1.563,0.284 l 0.689,0.223 c 1.416,0.455 2.002,0.643 2.478,1.363 0.982,1.491 1.023,2.18 0.976,3.137 -0.007,0.135 -0.015,0.278 -0.016,0.44 0,0.466 -0.081,0.851 -0.152,1.191 -0.005,0.027 -0.011,0.054 -0.017,0.081 0.163,0.207 0.322,0.55 0.258,1.07 -0.011,0.07 -0.086,0.458 -0.267,1.047 -0.023,0.077 -0.047,0.166 -0.072,0.261 -0.137,0.506 -0.324,1.208 -0.825,1.524 -0.159,0.553 -0.458,1.357 -0.966,1.955 0.015,0.078 0.038,0.185 0.074,0.333 0.032,0.083 0.323,0.701 0.781,1.02 0.05,0.03 0.147,0.082 0.259,0.126 0.05,0.02 1.317,0.52 2.61,1.283 0.149,0.074 1.195,0.651 1.463,1.739 l 0.047,0.247 c 0.077,0.42 -0.121,0.843 -0.494,1.052 -0.746,0.419 -1.58,0.747 -2.55,1.003 -1.472,0.385 -2.655,0.53 -3.552,0.587 0.234,0.271 0.445,0.61 0.546,1.016 l 0.049,0.254 c 0.08,0.423 -0.12,0.849 -0.496,1.059 -0.793,0.441 -1.678,0.786 -2.705,1.053 -2.259,0.584 -3.925,0.651 -4.982,0.651 0,0 0,0 0,0 z"
   id="path11" /><path
   style="opacity:0.15"
   d="m 7.557,21.969 c 1.318,-0.775 2.677,-1.305 2.734,-1.328 0.522,-0.207 0.852,-0.57 0.978,-1.078 0.03,-0.117 0.054,-0.217 0.071,-0.299 C 10.826,18.643 10.513,17.817 10.334,17.201 9.837,16.803 9.681,16.082 9.576,15.597 9.548,15.46 9.529,15.368 9.508,15.302 9.316,14.685 9.239,14.245 9.268,13.913 9.268,13.628 9.331,13.36 9.456,13.128 9.341,12.675 9.296,12.261 9.311,11.792 9.319,11.593 9.306,11.415 9.294,11.245 9.227,10.249 9.253,9.388 10.204,7.862 10.34,7.626 10.642,7.313 11.079,7.137 11.248,6.826 11.606,6.274 12.427,6.153 12.314,5.936 12.181,5.702 11.994,5.419 11.668,4.925 11.219,4.843 9.351,4.233 7.49,3.626 7.224,4.397 6.605,4.323 5.99,4.248 5.904,4.502 5.785,4.727 5.664,4.95 5.785,5.127 5.447,5.143 5.108,5.158 4.959,5.42 4.959,5.42 3.953,7.049 4.326,7.539 4.292,8.58 4.273,9.133 4.362,9.545 4.647,10.309 L 4.616,10.268 c 0,0 -0.394,-0.188 -0.364,0.354 0,0 -0.055,0.168 0.169,0.891 0.134,0.416 0.235,1.574 0.619,1.207 0.013,0.043 0.03,0.088 0.044,0.133 0,0 0.301,1.594 1.067,2.264 0.155,0.146 0.056,0.602 -0.05,1.033 -0.044,0.164 -0.263,1.291 -1.609,1.836 0,0 -1.23,0.482 -2.468,1.215 0,0 -0.833,0.42 -1.006,1.117 L 1,20.42 c 0.704,0.406 1.534,0.738 2.501,0.992 1.688,0.439 2.997,0.559 4.011,0.58 0.014,-0.006 0.037,-0.019 0.045,-0.023 z"
   id="path3792" /><path
   style="opacity:0.15"
   d="m 28.966,20.316 c -0.172,-0.697 -1.001,-1.117 -1.001,-1.117 -1.239,-0.732 -2.47,-1.215 -2.47,-1.215 -0.173,-0.068 -0.324,-0.148 -0.461,-0.234 -0.757,-0.525 -1.144,-1.461 -1.182,-1.602 -0.106,-0.432 -0.2,-0.887 -0.049,-1.033 0.765,-0.67 1.069,-2.264 1.069,-2.264 0.02,-0.063 0.038,-0.121 0.061,-0.178 0.375,0.467 0.567,-0.629 0.723,-1.131 0.162,-0.529 0.23,-0.877 0.23,-0.877 0.066,-0.537 -0.338,-0.379 -0.338,-0.379 l -0.031,0.035 C 25.576,9.571 25.789,9.114 25.789,8.44 25.794,7.397 26.047,7.016 24.994,5.419 24.668,4.925 24.219,4.843 22.351,4.233 20.49,3.626 20.224,4.397 19.605,4.323 18.989,4.247 18.903,4.501 18.784,4.725 c -0.121,0.223 0,0.4 -0.338,0.416 -0.339,0.016 -0.488,0.277 -0.488,0.277 -0.258,0.418 -0.423,0.758 -0.529,1.055 1.208,0.389 1.815,0.637 2.297,1.359 1.074,1.611 1.119,2.359 1.065,3.402 -0.008,0.158 -0.015,0.299 -0.016,0.457 0,0.51 -0.089,0.924 -0.167,1.291 0.128,0.166 0.339,0.572 0.261,1.201 -0.019,0.117 -0.105,0.533 -0.29,1.131 l -0.069,0.242 c -0.156,0.576 -0.358,1.318 -0.906,1.691 -0.179,0.596 -0.49,1.393 -0.994,2.01 0.016,0.072 0.036,0.162 0.063,0.275 0.033,0.082 0.331,0.684 0.775,0.99 0.043,0.025 0.139,0.074 0.248,0.117 0.013,0.004 1.379,0.533 2.788,1.355 1.038,-0.014 2.405,-0.117 4.199,-0.586 0.896,-0.236 1.658,-0.539 2.315,-0.908 l -0.032,-0.184 z"
   id="path3790" /><path
   style="opacity:0.15"
   d="M 21.896,23.043 C 20.574,22.27 19.261,21.76 19.261,21.76 c -0.185,-0.07 -0.346,-0.154 -0.492,-0.246 -0.807,-0.555 -1.22,-1.541 -1.26,-1.691 -0.113,-0.455 -0.214,-0.936 -0.053,-1.09 0.816,-0.707 1.141,-2.391 1.141,-2.391 0.021,-0.064 0.041,-0.127 0.064,-0.186 0.4,0.49 0.605,-0.666 0.771,-1.195 0.173,-0.559 0.246,-0.924 0.246,-0.924 0.07,-0.568 -0.361,-0.4 -0.361,-0.4 l -0.033,0.037 c 0.063,-0.791 0.291,-1.273 0.291,-1.986 C 19.58,10.586 19.85,10.186 18.727,8.499 18.379,7.978 17.899,7.892 15.908,7.249 13.923,6.606 13.639,7.421 12.979,7.343 12.321,7.263 12.23,7.532 12.102,7.769 c -0.129,0.234 0,0.422 -0.359,0.438 -0.361,0.018 -0.521,0.293 -0.521,0.293 -1.072,1.721 -0.675,2.236 -0.711,3.336 -0.02,0.584 0.074,1.02 0.379,1.826 l -0.033,-0.045 c 0,0 -0.42,-0.197 -0.389,0.373 0,0 -0.059,0.178 0.18,0.941 0.143,0.439 0.252,1.66 0.661,1.273 0.013,0.045 0.032,0.094 0.047,0.139 0,0 0.321,1.684 1.138,2.391 0.166,0.154 0.061,0.635 -0.053,1.09 -0.047,0.174 -0.279,1.363 -1.717,1.938 0,0 -1.313,0.51 -2.632,1.283 0,0 -0.889,0.443 -1.073,1.18 L 7,24.332 c 0.751,0.43 1.637,0.779 2.668,1.047 2.52,0.652 4.256,0.637 5.432,0.611 1.176,0.025 2.91,0.041 5.431,-0.611 0.955,-0.248 1.769,-0.568 2.47,-0.959 l -0.037,-0.197 c -0.184,-0.737 -1.068,-1.18 -1.068,-1.18 z"
   id="path13" /><path
   style="fill:#282828;fill-opacity:0.94117647"
   d="m 7.557,21.969 c 1.318,-0.775 2.677,-1.305 2.734,-1.328 0.522,-0.207 0.852,-0.57 0.978,-1.078 0.03,-0.117 0.054,-0.217 0.071,-0.299 C 10.826,18.643 10.513,17.817 10.334,17.201 9.837,16.803 9.681,16.082 9.576,15.597 9.548,15.46 9.529,15.368 9.508,15.302 9.316,14.685 9.239,14.245 9.268,13.913 9.268,13.628 9.331,13.36 9.456,13.128 9.341,12.675 9.296,12.261 9.311,11.792 9.319,11.593 9.306,11.415 9.294,11.245 9.227,10.249 9.253,9.388 10.204,7.862 10.34,7.626 10.642,7.313 11.079,7.137 11.248,6.826 11.606,6.274 12.427,6.153 12.314,5.936 12.181,5.702 11.994,5.419 11.668,4.925 11.219,4.843 9.351,4.233 7.49,3.626 7.224,4.397 6.605,4.323 5.99,4.248 5.904,4.502 5.785,4.727 5.664,4.95 5.785,5.127 5.447,5.143 5.108,5.158 4.959,5.42 4.959,5.42 3.953,7.049 4.326,7.539 4.292,8.58 4.273,9.133 4.362,9.545 4.647,10.309 L 4.616,10.268 c 0,0 -0.394,-0.188 -0.364,0.354 0,0 -0.055,0.168 0.169,0.891 0.134,0.416 0.235,1.574 0.619,1.207 0.013,0.043 0.03,0.088 0.044,0.133 0,0 0.301,1.594 1.067,2.264 0.155,0.146 0.056,0.602 -0.05,1.033 -0.044,0.164 -0.263,1.291 -1.609,1.836 0,0 -1.23,0.482 -2.468,1.215 0,0 -0.833,0.42 -1.006,1.117 L 1,20.42 c 0.704,0.406 1.534,0.738 2.501,0.992 1.688,0.439 2.997,0.559 4.011,0.58 0.014,-0.006 0.037,-0.019 0.045,-0.023 z"
   id="path3798" /><path
   style="fill:#282828;fill-opacity:0.94117647"
   d="m 28.966,20.316 c -0.172,-0.697 -1.001,-1.117 -1.001,-1.117 -1.239,-0.732 -2.47,-1.215 -2.47,-1.215 -0.173,-0.068 -0.324,-0.148 -0.461,-0.234 -0.757,-0.525 -1.144,-1.461 -1.182,-1.602 -0.106,-0.432 -0.2,-0.887 -0.049,-1.033 0.765,-0.67 1.069,-2.264 1.069,-2.264 0.02,-0.063 0.038,-0.121 0.061,-0.178 0.375,0.467 0.567,-0.629 0.723,-1.131 0.162,-0.529 0.23,-0.877 0.23,-0.877 0.066,-0.537 -0.338,-0.379 -0.338,-0.379 l -0.031,0.035 C 25.576,9.571 25.789,9.114 25.789,8.44 25.794,7.397 26.047,7.016 24.994,5.419 24.668,4.925 24.219,4.843 22.351,4.233 20.49,3.626 20.224,4.397 19.605,4.323 18.989,4.247 18.903,4.501 18.784,4.725 c -0.121,0.223 0,0.4 -0.338,0.416 -0.339,0.016 -0.488,0.277 -0.488,0.277 -0.258,0.418 -0.423,0.758 -0.529,1.055 1.208,0.389 1.815,0.637 2.297,1.359 1.074,1.611 1.119,2.359 1.065,3.402 -0.008,0.158 -0.015,0.299 -0.016,0.457 0,0.51 -0.089,0.924 -0.167,1.291 0.128,0.166 0.339,0.572 0.261,1.201 -0.019,0.117 -0.105,0.533 -0.29,1.131 l -0.069,0.242 c -0.156,0.576 -0.358,1.318 -0.906,1.691 -0.179,0.596 -0.49,1.393 -0.994,2.01 0.016,0.072 0.036,0.162 0.063,0.275 0.033,0.082 0.331,0.684 0.775,0.99 0.043,0.025 0.139,0.074 0.248,0.117 0.013,0.004 1.379,0.533 2.788,1.355 1.038,-0.014 2.405,-0.117 4.199,-0.586 0.896,-0.236 1.658,-0.539 2.315,-0.908 l -0.032,-0.184 z"
   id="path3796" /><path
   style="fill:#282828;fill-opacity:0.94117647"
   d="M 21.896,23.043 C 20.574,22.27 19.261,21.76 19.261,21.76 c -0.185,-0.07 -0.346,-0.154 -0.492,-0.246 -0.807,-0.555 -1.22,-1.541 -1.26,-1.691 -0.113,-0.455 -0.214,-0.936 -0.053,-1.09 0.816,-0.707 1.141,-2.391 1.141,-2.391 0.021,-0.064 0.041,-0.127 0.064,-0.186 0.4,0.49 0.605,-0.666 0.771,-1.195 0.173,-0.559 0.246,-0.924 0.246,-0.924 0.07,-0.568 -0.361,-0.4 -0.361,-0.4 l -0.033,0.037 c 0.063,-0.791 0.291,-1.273 0.291,-1.986 C 19.58,10.586 19.85,10.186 18.727,8.499 18.379,7.978 17.899,7.892 15.908,7.249 13.923,6.606 13.639,7.421 12.979,7.343 12.321,7.263 12.23,7.532 12.102,7.769 c -0.129,0.234 0,0.422 -0.359,0.438 -0.361,0.018 -0.521,0.293 -0.521,0.293 -1.072,1.721 -0.675,2.236 -0.711,3.336 -0.02,0.584 0.074,1.02 0.379,1.826 l -0.033,-0.045 c 0,0 -0.42,-0.197 -0.389,0.373 0,0 -0.059,0.178 0.18,0.941 0.143,0.439 0.252,1.66 0.661,1.273 0.013,0.045 0.032,0.094 0.047,0.139 0,0 0.321,1.684 1.138,2.391 0.166,0.154 0.061,0.635 -0.053,1.09 -0.047,0.174 -0.279,1.363 -1.717,1.938 0,0 -1.313,0.51 -2.632,1.283 0,0 -0.889,0.443 -1.073,1.18 L 7,24.332 c 0.751,0.43 1.637,0.779 2.668,1.047 2.52,0.652 4.256,0.637 5.432,0.611 1.176,0.025 2.91,0.041 5.431,-0.611 0.955,-0.248 1.769,-0.568 2.47,-0.959 l -0.037,-0.197 c -0.184,-0.737 -1.068,-1.18 -1.068,-1.18 z"
   id="path15" /><path
   style="fill:none"
   d="M 0,0 30,0 30,30 0,30 z"
   id="rect17" />
</svg>