<?xml version="1.0" encoding="UTF-8" standalone="no"?>
<!-- Generator: Adobe Illustrator 14.0.0, SVG Export Plug-In  -->

<svg
   xmlns:dc="http://purl.org/dc/elements/1.1/"
   xmlns:cc="http://creativecommons.org/ns#"
   xmlns:rdf="http://www.w3.org/1999/02/22-rdf-syntax-ns#"
   xmlns:svg="http://www.w3.org/2000/svg"
   xmlns="http://www.w3.org/2000/svg"
   xmlns:xlink="http://www.w3.org/1999/xlink"
   xmlns:sodipodi="http://sodipodi.sourceforge.net/DTD/sodipodi-0.dtd"
   xmlns:inkscape="http://www.inkscape.org/namespaces/inkscape"
   version="1.1"
   x="0px"
   y="0px"
   width="30"
   height="30"
   viewBox="0 0 30 30"
   enable-background="new 0 0 67 57"
   xml:space="preserve"
   id="svg2"
   inkscape:version="0.48.2 r9819"
   sodipodi:docname="icon-return_original.svg"
   style="display:inline"><metadata
   id="metadata25"><rdf:RDF><cc:Work
       rdf:about=""><dc:format>image/svg+xml</dc:format><dc:type
         rdf:resource="http://purl.org/dc/dcmitype/StillImage" /><dc:title /></cc:Work></rdf:RDF></metadata><sodipodi:namedview
   pagecolor="#ffffff"
   bordercolor="#666666"
   borderopacity="1"
   objecttolerance="10"
   gridtolerance="10"
   guidetolerance="10"
   inkscape:pageopacity="0"
   inkscape:pageshadow="2"
   inkscape:window-width="1366"
   inkscape:window-height="706"
   id="namedview23"
   showgrid="false"
   inkscape:zoom="16"
   inkscape:cx="-3.174016"
   inkscape:cy="13.390625"
   inkscape:window-x="-8"
   inkscape:window-y="-8"
   inkscape:window-maximized="1"
   inkscape:current-layer="layer1"
   showguides="true"
   inkscape:guide-bbox="true"><inkscape:grid
     type="xygrid"
     id="grid3826"
     empspacing="5"
     visible="true"
     enabled="true"
     snapvisiblegridlinesonly="true" /></sodipodi:namedview>
<defs
   id="defs4"><linearGradient
   id="linearGradient4941"><stop
     style="stop-color:#000000;stop-opacity:1;"
     offset="0"
     id="stop4943" /><stop
     style="stop-color:#000000;stop-opacity:0;"
     offset="1"
     id="stop4945" /></linearGradient>
<linearGradient
   id="SVGID_1_-1"
   gradientUnits="userSpaceOnUse"
   x1="33.0005"
   y1="43.276402"
   x2="33.0005"
   y2="14.7246"><stop
     offset="0"
     style="stop-color:#D0CBC5"
     id="stop13-7" /><stop
     offset="0.49727899"
     style="stop-color:#FAFCEF"
     id="stop15-4" /><stop
     offset="0.82879829"
     style="stop-color:#FFFFFF"
     id="stop17-0" /></linearGradient><linearGradient
   id="SVGID_1_-17"
   gradientUnits="userSpaceOnUse"
   x1="170.9805"
   y1="-248.71091"
   x2="170.9805"
   y2="-213.32761"
   gradientTransform="matrix(1,0,0,-1,-137.48,-203.0195)"><stop
     offset="0"
     style="stop-color:#D0CBC5"
     id="stop3038" /><stop
     offset="0.96929997"
     style="stop-color:#FAFCEF"
     id="stop3040" /><stop
     offset="0.96929997"
     style="stop-color:#FFFFFF"
     id="stop3042" /></linearGradient><linearGradient
   y2="-213.32761"
   x2="170.9805"
   y1="-248.71091"
   x1="170.9805"
   gradientTransform="matrix(1,0,0,-1,-137.48,-203.0195)"
   gradientUnits="userSpaceOnUse"
   id="linearGradient3069-4"
   xlink:href="#SVGID_1_-17-0"
   inkscape:collect="always" /><linearGradient
   id="SVGID_1_-17-0"
   gradientUnits="userSpaceOnUse"
   x1="170.9805"
   y1="-248.71091"
   x2="170.9805"
   y2="-213.32761"
   gradientTransform="matrix(1,0,0,-1,-137.48,-203.0195)"><stop
     offset="0"
     style="stop-color:#D0CBC5"
     id="stop3038-9" /><stop
     offset="0.5031"
     style="stop-color:#FAFCEF"
     id="stop3040-4" /><stop
     offset="0.9693"
     style="stop-color:#FFFFFF"
     id="stop3042-8" /></linearGradient><linearGradient
   inkscape:collect="always"
   xlink:href="#SVGID_1_-8"
   id="linearGradient5023"
   gradientUnits="userSpaceOnUse"
   x1="33.5005"
   y1="51.5"
   x2="33.5005"
   y2="5.5005002" /><linearGradient
   y2="5.5005002"
   x2="33.5005"
   y1="51.5"
   x1="33.5005"
   gradientUnits="userSpaceOnUse"
   id="SVGID_1_-8"><stop
     id="stop5000"
     style="stop-color:#D0CBC5"
     offset="0" /><stop
     id="stop5002"
     style="stop-color:#FAFCEF"
     offset="0.5031" /><stop
     id="stop5004"
     style="stop-color:#FFFFFF"
     offset="0.9693" /></linearGradient><linearGradient
   id="SVGID_1_-3"
   gradientUnits="userSpaceOnUse"
   x1="170.9805"
   y1="-248.71091"
   x2="170.9805"
   y2="-213.32761"
   gradientTransform="matrix(1,0,0,-1,-137.48,-203.0195)"><stop
     offset="0"
     style="stop-color:#D0CBC5"
     id="stop5102" /><stop
     offset="0.5031"
     style="stop-color:#FAFCEF"
     id="stop5104" /><stop
     offset="0.9693"
     style="stop-color:#FFFFFF"
     id="stop5106" /></linearGradient><linearGradient
   inkscape:collect="always"
   xlink:href="#SVGID_1_-4"
   id="linearGradient5247"
   gradientUnits="userSpaceOnUse"
   x1="33.5005"
   y1="51.5"
   x2="33.5005"
   y2="5.5005002" /><linearGradient
   y2="5.5005002"
   x2="33.5005"
   y1="51.5"
   x1="33.5005"
   gradientUnits="userSpaceOnUse"
   id="SVGID_1_-4"><stop
     id="stop5224"
     style="stop-color:#D0CBC5"
     offset="0" /><stop
     id="stop5226"
     style="stop-color:#FAFCEF"
     offset="0.5031" /><stop
     id="stop5228"
     style="stop-color:#FFFFFF"
     offset="0.9693" /></linearGradient><linearGradient
   gradientTransform="translate(118,-54.5)"
   y2="5.5005002"
   x2="33.5005"
   y1="51.5"
   x1="33.5005"
   gradientUnits="userSpaceOnUse"
   id="linearGradient5269"
   xlink:href="#SVGID_1_-4"
   inkscape:collect="always" /><filter
   id="filter5326"
   inkscape:label="filter1"
   color-interpolation-filters="sRGB" /><linearGradient
   inkscape:collect="always"
   xlink:href="#SVGID_1_-4-4"
   id="linearGradient3878-2"
   gradientUnits="userSpaceOnUse"
   x1="33.5005"
   y1="45.617443"
   x2="33.5005"
   y2="12.674352" /><linearGradient
   y2="5.5005002"
   x2="33.5005"
   y1="51.5"
   x1="33.5005"
   gradientUnits="userSpaceOnUse"
   id="SVGID_1_-4-4"><stop
     id="stop5224-5"
     style="stop-color:#D0CBC5"
     offset="0" /><stop
     id="stop5226-5"
     style="stop-color:#FAFCEF"
     offset="0.5031" /><stop
     id="stop5228-1"
     style="stop-color:#FFFFFF"
     offset="0.9693" /></linearGradient></defs>
<g
   inkscape:groupmode="layer"
   id="layer5"
   inkscape:label="DO NOT EDIT - Bounding Box"
   style="display:inline"
   transform="translate(0,-27)"
   sodipodi:insensitive="true"><rect
     style="fill:#000000;fill-opacity:0;stroke:none;display:inline"
     id="rect3119"
     width="30"
     height="30"
     x="0"
     y="27" /></g><g
   inkscape:groupmode="layer"
   id="layer1"
   inkscape:label="CREATE YOUR LIGHT SHADOW HERE"
   style="display:inline"><path
     style="font-size:36px;font-style:normal;font-variant:normal;font-weight:normal;font-stretch:normal;text-align:center;line-height:125%;letter-spacing:0px;word-spacing:0px;text-anchor:middle;fill:#000000;fill-opacity:0.15686275;stroke:none;display:inline;font-family:Cambria Math;-inkscape-font-specification:Cambria Math"
     d="m 17.6875,1.75 a 1.0001,1.0001 0 0 0 -0.90625,1 l 0,10.65625 -2.8125,0 0,-3.28125 a 1.0001,1.0001 0 0 0 -1.6875,-0.75 l -9.3125,8.5625 a 1.0001,1.0001 0 0 0 0,1.5 L 12.28125,28 a 1.0001,1.0001 0 0 0 1.6875,-0.75 l 0,-3.28125 12.375,0 a 1.0001,1.0001 0 0 0 1,-1 l 0,-20.21875 a 1.0001,1.0001 0 0 0 -1,-1 l -8.5625,0 a 1.0001,1.0001 0 0 0 -0.09375,0 z m 2.5,3.40625 3.75,0 0,15.40625 -12.34375,0 a 1.0001,1.0001 0 0 0 -1,1 l 0,0.125 L 7.375,18.71875 10.59375,15.75 l 0,0.0625 a 1.0001,1.0001 0 0 0 1,1 l 7.59375,0 a 1.0001,1.0001 0 0 0 1,-1 l 0,-10.65625 z"
     id="path3861" /></g><g
   inkscape:groupmode="layer"
   id="layer4"
   inkscape:label="CREATE YOUR DARK SHADOW HERE"
   style="display:inline"
   transform="translate(0,-27)"><g
   style="font-size:36px;font-style:normal;font-variant:normal;font-weight:normal;font-stretch:normal;text-align:center;line-height:125%;letter-spacing:0px;word-spacing:0px;text-anchor:middle;fill:#000000;fill-opacity:0.31372549;stroke:none;display:inline;font-family:Cambria Math;-inkscape-font-specification:Cambria Math"
   id="text3807-1"><path
     d="m 3.6708984,44.700195 9.2988286,-8.578125 0,4.289063 4.798828,0 0,-11.671875 8.560547,0 0,20.232422 -13.359375,0 0,4.289062 z m 2.2324219,0 5.6777347,5.25586 0,-2.390625 13.341797,0 0,-17.419922 -5.748047,0 0,11.671875 -7.59375,0 0,-2.390625 z"
     style=""
     id="path3189" /></g>
</g>


<linearGradient
   id="SVGID_1_"
   gradientUnits="userSpaceOnUse"
   x1="33.0005"
   y1="43.276402"
   x2="33.0005"
   y2="14.7246">
	<stop
   offset="0"
   style="stop-color:#D0CBC5"
   id="stop13" />
	<stop
   offset="0.5031"
   style="stop-color:#FAFCEF"
   id="stop15" />
	<stop
   offset="0.9693"
   style="stop-color:#FFFFFF"
   id="stop17" />
</linearGradient>


<g
   inkscape:groupmode="layer"
   id="layer2"
   inkscape:label="PLACE YOUR GRAPHIC HERE"
   style="display:inline"
   transform="translate(0,-27)"><g
   style="font-size:36px;font-style:normal;font-variant:normal;font-weight:normal;font-stretch:normal;text-align:center;line-height:125%;letter-spacing:0px;word-spacing:0px;text-anchor:middle;fill:#ffffff;fill-opacity:1;stroke:none;font-family:Cambria Math;-inkscape-font-specification:Cambria Math"
   id="text3807"><path
     d="m 3.6708984,45.700195 9.2988286,-8.578125 0,4.289063 4.798828,0 0,-11.671875 8.560547,0 0,20.232422 -13.359375,0 0,4.289062 z m 2.2324219,0 5.6777347,5.25586 0,-2.390625 13.341797,0 0,-17.419922 -5.748047,0 0,11.671875 -7.59375,0 0,-2.390625 z"
     style=""
     id="path3186" /></g>
</g><rect
   style="fill:none;stroke:none"
   id="rect4949"
   width="16.263456"
   height="0.17677669"
   x="130.28442"
   y="5.9583702" /></svg>