<?xml version="1.0" encoding="UTF-8" standalone="no"?>
<!-- Generator: Adobe Illustrator 14.0.0, SVG Export Plug-In  -->

<svg
   xmlns:dc="http://purl.org/dc/elements/1.1/"
   xmlns:cc="http://creativecommons.org/ns#"
   xmlns:rdf="http://www.w3.org/1999/02/22-rdf-syntax-ns#"
   xmlns:svg="http://www.w3.org/2000/svg"
   xmlns="http://www.w3.org/2000/svg"
   xmlns:xlink="http://www.w3.org/1999/xlink"
   xmlns:sodipodi="http://sodipodi.sourceforge.net/DTD/sodipodi-0.dtd"
   xmlns:inkscape="http://www.inkscape.org/namespaces/inkscape"
   version="1.1"
   x="0px"
   y="0px"
   width="30"
   height="30"
   viewBox="0 0 30 30"
   enable-background="new 0 0 67 57"
   xml:space="preserve"
   id="svg2"
   inkscape:version="0.48.2 r9819"
   sodipodi:docname="icon-channels.svg"
   style="display:inline"><metadata
   id="metadata25"><rdf:RDF><cc:Work
       rdf:about=""><dc:format>image/svg+xml</dc:format><dc:type
         rdf:resource="http://purl.org/dc/dcmitype/StillImage" /><dc:title></dc:title></cc:Work></rdf:RDF></metadata><sodipodi:namedview
   pagecolor="#ffffff"
   bordercolor="#666666"
   borderopacity="1"
   objecttolerance="10"
   gridtolerance="10"
   guidetolerance="10"
   inkscape:pageopacity="0"
   inkscape:pageshadow="2"
   inkscape:window-width="1366"
   inkscape:window-height="706"
   id="namedview23"
   showgrid="true"
   inkscape:zoom="16"
   inkscape:cx="11.482234"
   inkscape:cy="15.234375"
   inkscape:window-x="-8"
   inkscape:window-y="-8"
   inkscape:window-maximized="1"
   inkscape:current-layer="layer2"
   showguides="true"
   inkscape:guide-bbox="true"><inkscape:grid
     type="xygrid"
     id="grid3826"
     empspacing="5"
     visible="true"
     enabled="true"
     snapvisiblegridlinesonly="true" /></sodipodi:namedview>
<defs
   id="defs4"><linearGradient
   id="linearGradient4941"><stop
     style="stop-color:#000000;stop-opacity:1;"
     offset="0"
     id="stop4943" /><stop
     style="stop-color:#000000;stop-opacity:0;"
     offset="1"
     id="stop4945" /></linearGradient>
<linearGradient
   id="SVGID_1_-1"
   gradientUnits="userSpaceOnUse"
   x1="33.0005"
   y1="43.276402"
   x2="33.0005"
   y2="14.7246"><stop
     offset="0"
     style="stop-color:#D0CBC5"
     id="stop13-7" /><stop
     offset="0.49727899"
     style="stop-color:#FAFCEF"
     id="stop15-4" /><stop
     offset="0.82879829"
     style="stop-color:#FFFFFF"
     id="stop17-0" /></linearGradient><linearGradient
   id="SVGID_1_-17"
   gradientUnits="userSpaceOnUse"
   x1="170.9805"
   y1="-248.71091"
   x2="170.9805"
   y2="-213.32761"
   gradientTransform="matrix(1,0,0,-1,-137.48,-203.0195)"><stop
     offset="0"
     style="stop-color:#D0CBC5"
     id="stop3038" /><stop
     offset="0.96929997"
     style="stop-color:#FAFCEF"
     id="stop3040" /><stop
     offset="0.96929997"
     style="stop-color:#FFFFFF"
     id="stop3042" /></linearGradient><linearGradient
   y2="-213.32761"
   x2="170.9805"
   y1="-248.71091"
   x1="170.9805"
   gradientTransform="matrix(1,0,0,-1,-137.48,-203.0195)"
   gradientUnits="userSpaceOnUse"
   id="linearGradient3069-4"
   xlink:href="#SVGID_1_-17-0"
   inkscape:collect="always" /><linearGradient
   id="SVGID_1_-17-0"
   gradientUnits="userSpaceOnUse"
   x1="170.9805"
   y1="-248.71091"
   x2="170.9805"
   y2="-213.32761"
   gradientTransform="matrix(1,0,0,-1,-137.48,-203.0195)"><stop
     offset="0"
     style="stop-color:#D0CBC5"
     id="stop3038-9" /><stop
     offset="0.5031"
     style="stop-color:#FAFCEF"
     id="stop3040-4" /><stop
     offset="0.9693"
     style="stop-color:#FFFFFF"
     id="stop3042-8" /></linearGradient><linearGradient
   inkscape:collect="always"
   xlink:href="#SVGID_1_-8"
   id="linearGradient5023"
   gradientUnits="userSpaceOnUse"
   x1="33.5005"
   y1="51.5"
   x2="33.5005"
   y2="5.5005002" /><linearGradient
   y2="5.5005002"
   x2="33.5005"
   y1="51.5"
   x1="33.5005"
   gradientUnits="userSpaceOnUse"
   id="SVGID_1_-8"><stop
     id="stop5000"
     style="stop-color:#D0CBC5"
     offset="0" /><stop
     id="stop5002"
     style="stop-color:#FAFCEF"
     offset="0.5031" /><stop
     id="stop5004"
     style="stop-color:#FFFFFF"
     offset="0.9693" /></linearGradient><linearGradient
   id="SVGID_1_-3"
   gradientUnits="userSpaceOnUse"
   x1="170.9805"
   y1="-248.71091"
   x2="170.9805"
   y2="-213.32761"
   gradientTransform="matrix(1,0,0,-1,-137.48,-203.0195)"><stop
     offset="0"
     style="stop-color:#D0CBC5"
     id="stop5102" /><stop
     offset="0.5031"
     style="stop-color:#FAFCEF"
     id="stop5104" /><stop
     offset="0.9693"
     style="stop-color:#FFFFFF"
     id="stop5106" /></linearGradient><linearGradient
   inkscape:collect="always"
   xlink:href="#SVGID_1_-4"
   id="linearGradient5247"
   gradientUnits="userSpaceOnUse"
   x1="33.5005"
   y1="51.5"
   x2="33.5005"
   y2="5.5005002" /><linearGradient
   y2="5.5005002"
   x2="33.5005"
   y1="51.5"
   x1="33.5005"
   gradientUnits="userSpaceOnUse"
   id="SVGID_1_-4"><stop
     id="stop5224"
     style="stop-color:#D0CBC5"
     offset="0" /><stop
     id="stop5226"
     style="stop-color:#FAFCEF"
     offset="0.5031" /><stop
     id="stop5228"
     style="stop-color:#FFFFFF"
     offset="0.9693" /></linearGradient><linearGradient
   gradientTransform="translate(118,-54.5)"
   y2="5.5005002"
   x2="33.5005"
   y1="51.5"
   x1="33.5005"
   gradientUnits="userSpaceOnUse"
   id="linearGradient5269"
   xlink:href="#SVGID_1_-4"
   inkscape:collect="always" /><filter
   id="filter5326"
   inkscape:label="filter1"
   color-interpolation-filters="sRGB" /><linearGradient
   inkscape:collect="always"
   xlink:href="#SVGID_1_-4-4"
   id="linearGradient3878-2"
   gradientUnits="userSpaceOnUse"
   x1="33.5005"
   y1="45.617443"
   x2="33.5005"
   y2="12.674352" /><linearGradient
   y2="5.5005002"
   x2="33.5005"
   y1="51.5"
   x1="33.5005"
   gradientUnits="userSpaceOnUse"
   id="SVGID_1_-4-4"><stop
     id="stop5224-5"
     style="stop-color:#D0CBC5"
     offset="0" /><stop
     id="stop5226-5"
     style="stop-color:#FAFCEF"
     offset="0.5031" /><stop
     id="stop5228-1"
     style="stop-color:#FFFFFF"
     offset="0.9693" /></linearGradient></defs>
<g
   inkscape:groupmode="layer"
   id="layer5"
   inkscape:label="DO NOT EDIT - Bounding Box"
   style="display:inline"
   transform="translate(0,-27)"
   sodipodi:insensitive="true"><rect
     style="fill:#000000;fill-opacity:0;stroke:none;display:inline"
     id="rect3119"
     width="30"
     height="30"
     x="0"
     y="27" /></g><g
   inkscape:groupmode="layer"
   id="layer1"
   inkscape:label="CREATE YOUR LIGHT SHADOW HERE"
   style="display:inline;opacity:0.4"><g
     transform="matrix(0.99311001,0,0,1.0069378,0.51793453,-26.546557)"
     style="font-size:35.11260223000000000px;font-style:normal;font-variant:normal;font-weight:normal;font-stretch:normal;text-align:center;line-height:125%;letter-spacing:0px;word-spacing:0px;text-anchor:middle;fill:#000000;fill-opacity:1;stroke:none;display:inline;font-family:Arial Rounded MT Bold;-inkscape-font-specification:Arial Rounded MT Bold;opacity:0.40000000000000002"
     id="text4350-4"><path
       sodipodi:type="inkscape:offset"
       inkscape:radius="1.1793181"
       inkscape:original="M 20.5625 28.25 C 20.04814 28.250025 19.643587 28.404818 19.375 28.65625 C 19.106383 28.907732 18.915355 29.196768 18.8125 29.5625 C 18.709617 29.92828 18.614285 30.405669 18.5 31 L 17.65625 34.9375 L 13.90625 34.9375 L 14.5625 31.75 C 14.756802 30.709904 14.843741 30.114323 14.84375 30 C 14.843741 29.49711 14.695027 29.101311 14.375 28.78125 C 14.054954 28.461238 13.574526 28.312525 12.96875 28.3125 C 12.534407 28.312525 12.174845 28.399467 11.90625 28.59375 C 11.637641 28.788083 11.435547 29.060338 11.28125 29.4375 C 11.126941 29.81471 11.000723 30.33709 10.875 31 L 10.0625 34.9375 L 7.5 34.9375 C 6.734196 34.937519 6.1443297 35.120157 5.75 35.46875 C 5.3556685 35.81738 5.1562497 36.272273 5.15625 36.84375 C 5.1562497 37.380971 5.3754886 37.816045 5.78125 38.1875 C 6.1870096 38.558987 6.7570557 38.750015 7.5 38.75 L 9.28125 38.75 L 8.3125 43.75 L 7.5 43.75 C 6.734196 43.75001 6.1443297 43.921219 5.75 44.28125 C 5.3556685 44.641301 5.1562497 45.116015 5.15625 45.6875 C 5.1562497 46.910505 5.953925 47.528217 7.53125 47.5625 L 6.90625 50.78125 C 6.8605285 51.03271 6.812862 51.330501 6.75 51.65625 C 6.687134 51.982004 6.6562482 52.268364 6.65625 52.53125 C 6.6562482 53.045595 6.8247815 53.461214 7.15625 53.78125 C 7.487714 54.101286 7.9170729 54.25 8.5 54.25 C 9.2315082 54.25 9.7146125 54.053621 9.9375 53.625 C 10.160377 53.19638 10.388006 52.471541 10.59375 51.5 L 11.40625 47.5625 L 15.1875 47.5625 L 14.5625 50.78125 C 14.402473 51.478475 14.31249 52.062626 14.3125 52.53125 C 14.31249 53.045595 14.481024 53.461214 14.8125 53.78125 C 15.143956 54.101286 15.584745 54.25 16.15625 54.25 C 16.670583 54.25 17.069421 54.132173 17.34375 53.875 C 17.618054 53.617828 17.80908 53.311647 17.90625 52.96875 C 18.003391 52.625855 18.124258 52.128645 18.25 51.5 L 19.03125 47.5625 L 21.6875 47.5625 C 22.464714 47.562506 23.02333 47.379868 23.40625 47.03125 C 23.789132 46.682646 23.999981 46.247572 24 45.6875 C 23.999981 45.127445 23.794847 44.647015 23.40625 44.28125 C 23.017616 43.915503 22.453284 43.75001 21.6875 43.75 L 19.78125 43.75 L 20.8125 38.75 L 21.6875 38.75 C 22.453284 38.750015 23.017616 38.592912 23.40625 38.25 C 23.794847 37.90712 23.999981 37.446511 24 36.875 C 23.999981 35.640591 23.165705 35.00306 21.53125 34.96875 L 22.1875 31.75 C 22.19891 31.692873 22.20426 31.555225 22.25 31.34375 C 22.295701 31.13232 22.34641 30.916121 22.375 30.6875 C 22.40355 30.458926 22.406233 30.208802 22.40625 29.96875 C 22.406233 29.443 22.263234 29.027382 21.9375 28.71875 C 21.611731 28.410169 21.156838 28.250025 20.5625 28.25 z M 13.15625 38.75 L 16.9375 38.75 L 15.96875 43.75 L 12.125 43.75 L 13.15625 38.75 z "
       id="path4403"
       d="m 20.5625,27.0625 c -0.750935,3.6e-5 -1.476388,0.228582 -2,0.71875 -0.394088,0.368949 -0.712958,0.892561 -0.875,1.46875 -0.121479,0.431893 -0.231551,0.916814 -0.34375,1.5 -0.0022,0.01156 0.0022,0.01962 0,0.03125 L 16.6875,33.75 l -1.34375,0 0.375,-1.75 a 1.179436,1.179436 0 0 0 0,-0.03125 c 0.09878,-0.52878 0.170242,-0.940976 0.21875,-1.25 0.04851,-0.309024 0.09372,-0.362805 0.09375,-0.71875 -1.3e-5,-0.735377 -0.277909,-1.527852 -0.8125,-2.0625 -0.60815,-0.608086 -1.451241,-0.812467 -2.25,-0.8125 -0.591681,3.4e-5 -1.211817,0.110715 -1.75,0.5 -0.464815,0.336284 -0.815618,0.847911 -1.03125,1.375 -0.2099439,0.51321 -0.3394699,1.071769 -0.46875,1.75 -0.00216,0.01131 0.00216,0.01987 0,0.03125 L 9.09375,33.75 7.5,33.75 c -0.9532941,2.4e-5 -1.8528228,0.244011 -2.53125,0.84375 -0.6278965,0.555126 -1.0000004,1.404171 -1,2.25 -5e-7,0.858073 0.4432515,1.680466 1.03125,2.21875 0.6629984,0.606998 1.5548904,0.875019 2.5,0.875 l 0.34375,0 -0.5,2.65625 c -0.8840525,0.02337 -1.7251831,0.219204 -2.375,0.8125 -0.6293001,0.574593 -1.0000004,1.435417 -1,2.28125 -2e-7,0.867896 0.3733803,1.771071 1.0625,2.3125 0.3221688,0.253122 0.7701004,0.22762 1.15625,0.34375 L 5.75,50.5625 c -0.049229,0.270753 -0.097709,0.571642 -0.15625,0.875 -0.073614,0.38145 -0.1250024,0.738488 -0.125,1.09375 -2.7e-6,0.771962 0.3201935,1.558079 0.875,2.09375 0.5662309,0.546709 1.3727477,0.8125 2.15625,0.8125 0.9425729,0 1.992075,-0.364586 2.46875,-1.28125 C 11.291065,53.536398 11.532361,52.777709 11.75,51.75 l 0.625,-3 1.375,0 -0.34375,1.78125 0,0.03125 c -0.166118,0.7291 -0.281263,1.358634 -0.28125,1.96875 -1.5e-5,0.771973 0.320181,1.558079 0.875,2.09375 0.575975,0.556131 1.380161,0.8125 2.15625,0.8125 0.694444,0 1.440706,-0.163183 2,-0.6875 0.415726,-0.389762 0.717498,-0.912952 0.875,-1.46875 0.108706,-0.383719 0.244207,-0.908603 0.375,-1.5625 L 20,48.75 l 1.6875,0 c 0.961971,7e-6 1.846502,-0.248792 2.5,-0.84375 0.584698,-0.532352 0.999971,-1.362715 1,-2.21875 -2.9e-5,-0.848002 -0.355684,-1.672954 -0.96875,-2.25 -0.674266,-0.634558 -1.595566,-0.874988 -2.53125,-0.875 l -0.46875,0 0.5625,-2.625 c 0.892886,-0.01315 1.750159,-0.233597 2.40625,-0.8125 0.627099,-0.553323 0.999972,-1.396313 1,-2.25 -1.4e-5,-0.882882 -0.389808,-1.801618 -1.09375,-2.34375 -0.329631,-0.253861 -0.791766,-0.22666 -1.1875,-0.34375 L 23.34375,32 a 1.179436,1.179436 0 0 0 0,-0.03125 c 0.06881,-0.344498 0.0351,-0.248302 0.0625,-0.375 0.04272,-0.19762 0.08646,-0.441844 0.125,-0.75 0.04054,-0.324551 0.06248,-0.626219 0.0625,-0.875 C 23.593726,29.229178 23.33436,28.42868 22.75,27.875 22.174194,27.329574 21.368657,27.062534 20.5625,27.0625 z m -6.4375,12.875 1.375,0 -0.5,2.625 -1.4375,0 0.5625,-2.625 z" /></g></g><g
   inkscape:groupmode="layer"
   id="layer4"
   inkscape:label="CREATE YOUR DARK SHADOW HERE"
   style="display:none"
   transform="translate(0,-27)"><g
     transform="matrix(0.99311001,0,0,1.0069378,0.51793453,-0.54655661)"
     style="font-size:35.11260223px;font-style:normal;font-variant:normal;font-weight:normal;font-stretch:normal;text-align:center;line-height:125%;letter-spacing:0px;word-spacing:0px;text-anchor:middle;opacity:0.8;fill:#000000;fill-opacity:1;stroke:none;display:inline;font-family:Arial Rounded MT Bold;-inkscape-font-specification:Arial Rounded MT Bold"
     id="text4350-1"><path
       d="M 6.9016543,50.775679 7.5360129,47.569596 C 5.9586879,47.535313 5.1700267,46.90667 5.170027,45.683665 5.1700267,45.11218 5.367192,44.646413 5.7615235,44.286362 6.1558532,43.926331 6.7359192,43.74631 7.5017232,43.7463 l 0.8058068,0 0.9772551,-4.989144 -1.7830619,0 C 6.7587789,38.757171 6.1844279,38.571436 5.7786683,38.199949 5.3729069,37.828494 5.1700267,37.374157 5.170027,36.836936 c -3e-7,-0.571477 0.197165,-1.031529 0.5914965,-1.380159 0.3943297,-0.348593 0.9743957,-0.522898 1.7401997,-0.522917 l 2.5545788,0 0.805807,-3.926165 c 0.125723,-0.66291 0.265739,-1.182969 0.420048,-1.560179 0.154297,-0.377162 0.36575,-0.662908 0.634359,-0.857241 0.268595,-0.194283 0.620063,-0.291437 1.054406,-0.291462 0.605776,2.5e-5 1.068685,0.160043 1.388731,0.480055 0.320027,0.320061 0.480046,0.731537 0.480055,1.234427 -9e-6,0.114323 -0.09716,0.691531 -0.291462,1.731627 l -0.634358,3.188938 3.754717,0 0.822951,-3.926165 c 0.114285,-0.594331 0.222869,-1.074385 0.325752,-1.440165 0.102855,-0.365732 0.28859,-0.674339 0.557207,-0.925821 0.268587,-0.251432 0.66006,-0.377161 1.17442,-0.377186 0.594338,2.5e-5 1.05439,0.154329 1.380159,0.46291 0.325734,0.308632 0.48861,0.725822 0.488627,1.251572 -1.7e-5,0.240052 -0.01431,0.474364 -0.04286,0.702938 -0.02859,0.228621 -0.06574,0.448646 -0.111441,0.660076 -0.04574,0.211475 -0.07431,0.345776 -0.08572,0.402903 l -0.634359,3.223228 c 1.634455,0.03431 2.451691,0.668666 2.45171,1.903075 -1.9e-5,0.571511 -0.194327,1.028706 -0.582924,1.371586 -0.388634,0.342912 -0.965843,0.51436 -1.731627,0.514345 l -0.874386,0 -1.02869,4.989144 1.903076,0 c 0.765784,1e-5 1.342993,0.182888 1.731627,0.548635 0.388597,0.365765 0.582905,0.828675 0.582924,1.38873 -1.9e-5,0.560072 -0.191469,1.01441 -0.574351,1.363014 -0.38292,0.348618 -0.962986,0.522923 -1.7402,0.522917 l -2.640303,0 -0.805807,3.94331 c -0.125742,0.628645 -0.237183,1.114415 -0.334324,1.45731 -0.09717,0.342897 -0.282903,0.642931 -0.557207,0.900103 -0.274329,0.257173 -0.66866,0.385759 -1.182993,0.385759 -0.571505,0 -1.022985,-0.160019 -1.354441,-0.480055 -0.331476,-0.320036 -0.49721,-0.737227 -0.4972,-1.251572 -10e-6,-0.468624 0.08,-1.051547 0.240027,-1.748772 l 0.634359,-3.206083 -3.789006,0 -0.805807,3.94331 c -0.205744,0.971541 -0.420054,1.671621 -0.6429312,2.100241 -0.2228875,0.428621 -0.7000847,0.642931 -1.4315929,0.642931 -0.5829271,0 -1.040122,-0.160019 -1.371586,-0.480055 -0.3314685,-0.320036 -0.4972017,-0.737227 -0.4971999,-1.251572 -1.8e-6,-0.262886 0.03143,-0.557205 0.094296,-0.882959 0.062862,-0.325749 0.1171543,-0.614353 0.1628758,-0.865813 z m 10.0297227,-12.018523 -3.789006,0 -1.011545,4.989144 3.823296,0 z"
       id="path4355-7"
       inkscape:connector-curvature="0" /></g></g>


<linearGradient
   id="SVGID_1_"
   gradientUnits="userSpaceOnUse"
   x1="33.0005"
   y1="43.276402"
   x2="33.0005"
   y2="14.7246">
	<stop
   offset="0"
   style="stop-color:#D0CBC5"
   id="stop13" />
	<stop
   offset="0.5031"
   style="stop-color:#FAFCEF"
   id="stop15" />
	<stop
   offset="0.9693"
   style="stop-color:#FFFFFF"
   id="stop17" />
</linearGradient>


<g
   inkscape:groupmode="layer"
   id="layer2"
   inkscape:label="PLACE YOUR GRAPHIC HERE"
   style="display:inline"
   transform="translate(0,-27)"><g
     transform="matrix(0.99311001,0,0,1.0069378,0.51793455,0.45344379)"
     style="font-size:35.11260223000000000px;font-style:normal;font-variant:normal;font-weight:normal;font-stretch:normal;text-align:center;line-height:125%;letter-spacing:0px;word-spacing:0px;text-anchor:middle;fill:#282828;fill-opacity:1;stroke:none;font-family:Arial Rounded MT Bold;-inkscape-font-specification:Arial Rounded MT Bold"
     id="text4350"><path
       d="M 6.9016543,50.775679 7.5360129,47.569596 C 5.9586879,47.535313 5.1700267,46.90667 5.170027,45.683665 5.1700267,45.11218 5.367192,44.646413 5.7615235,44.286362 6.1558532,43.926331 6.7359192,43.74631 7.5017232,43.7463 l 0.8058068,0 0.9772551,-4.989144 -1.7830619,0 C 6.7587789,38.757171 6.1844279,38.571436 5.7786683,38.199949 5.3729069,37.828494 5.1700267,37.374157 5.170027,36.836936 c -3e-7,-0.571477 0.197165,-1.031529 0.5914965,-1.380159 0.3943297,-0.348593 0.9743957,-0.522898 1.7401997,-0.522917 l 2.5545788,0 0.805807,-3.926165 c 0.125723,-0.66291 0.265739,-1.182969 0.420048,-1.560179 0.154297,-0.377162 0.36575,-0.662908 0.634359,-0.857241 0.268595,-0.194283 0.620063,-0.291437 1.054406,-0.291462 0.605776,2.5e-5 1.068685,0.160043 1.388731,0.480055 0.320027,0.320061 0.480046,0.731537 0.480055,1.234427 -9e-6,0.114323 -0.09716,0.691531 -0.291462,1.731627 l -0.634358,3.188938 3.754717,0 0.822951,-3.926165 c 0.114285,-0.594331 0.222869,-1.074385 0.325752,-1.440165 0.102855,-0.365732 0.28859,-0.674339 0.557207,-0.925821 0.268587,-0.251432 0.66006,-0.377161 1.17442,-0.377186 0.594338,2.5e-5 1.05439,0.154329 1.380159,0.46291 0.325734,0.308632 0.48861,0.725822 0.488627,1.251572 -1.7e-5,0.240052 -0.01431,0.474364 -0.04286,0.702938 -0.02859,0.228621 -0.06574,0.448646 -0.111441,0.660076 -0.04574,0.211475 -0.07431,0.345776 -0.08572,0.402903 l -0.634359,3.223228 c 1.634455,0.03431 2.451691,0.668666 2.45171,1.903075 -1.9e-5,0.571511 -0.194327,1.028706 -0.582924,1.371586 -0.388634,0.342912 -0.965843,0.51436 -1.731627,0.514345 l -0.874386,0 -1.02869,4.989144 1.903076,0 c 0.765784,1e-5 1.342993,0.182888 1.731627,0.548635 0.388597,0.365765 0.582905,0.828675 0.582924,1.38873 -1.9e-5,0.560072 -0.191469,1.01441 -0.574351,1.363014 -0.38292,0.348618 -0.962986,0.522923 -1.7402,0.522917 l -2.640303,0 -0.805807,3.94331 c -0.125742,0.628645 -0.237183,1.114415 -0.334324,1.45731 -0.09717,0.342897 -0.282903,0.642931 -0.557207,0.900103 -0.274329,0.257173 -0.66866,0.385759 -1.182993,0.385759 -0.571505,0 -1.022985,-0.160019 -1.354441,-0.480055 -0.331476,-0.320036 -0.49721,-0.737227 -0.4972,-1.251572 -10e-6,-0.468624 0.08,-1.051547 0.240027,-1.748772 l 0.634359,-3.206083 -3.789006,0 -0.805807,3.94331 c -0.205744,0.971541 -0.420054,1.671621 -0.6429312,2.100241 -0.2228875,0.428621 -0.7000847,0.642931 -1.4315929,0.642931 -0.5829271,0 -1.040122,-0.160019 -1.371586,-0.480055 -0.3314685,-0.320036 -0.4972017,-0.737227 -0.4971999,-1.251572 -1.8e-6,-0.262886 0.03143,-0.557205 0.094296,-0.882959 0.062862,-0.325749 0.1171543,-0.614353 0.1628758,-0.865813 z m 10.0297227,-12.018523 -3.789006,0 -1.011545,4.989144 3.823296,0 z"
       id="path4355"
       inkscape:connector-curvature="0"
       style="fill:#282828;fill-opacity:1" /></g></g><rect
   style="fill:none;stroke:none"
   id="rect4949"
   width="16.263456"
   height="0.17677669"
   x="130.28442"
   y="5.9583702" /></svg>