<?xml version="1.0"?>
<!-- Converted with SVG Converter - Version 0.9.5 (Compiled Mon May 30 09:08:51 2011) - Copyright (C) 2011 Nokia -->
<svg xmlns="http://www.w3.org/2000/svg" width="30" x="0px" y="0px" version="1.1" viewBox="0 0 30 30" height="30" xmlns:xlink="http://www.w3.org/1999/xlink" baseProfile="tiny" id="svg2" xml:space="preserve">
 <metadata id="metadata25"/>
 <defs id="defs4">
  <linearGradient id="linearGradient4941">
   <stop offset="0" style="stop-color:#000000;stop-opacity:1;" id="stop4943"/>
   <stop offset="1" style="stop-color:#000000;stop-opacity:0;" id="stop4945"/>
  </linearGradient>
  <linearGradient id="SVGID_1_-1" y1="43.276402" x1="33.0005" y2="14.7246" gradientUnits="userSpaceOnUse" x2="33.0005">
   <stop offset="0" style="stop-color:#D0CBC5" id="stop13-7"/>
   <stop offset="0.49727899" style="stop-color:#FAFCEF" id="stop15-4"/>
   <stop offset="0.82879829" style="stop-color:#FFFFFF" id="stop17-0"/>
  </linearGradient>
  <linearGradient gradientTransform="matrix(1,0,0,-1,-137.48,-203.0195)" id="SVGID_1_-17" y1="-248.71091" x1="170.9805" y2="-213.32761" gradientUnits="userSpaceOnUse" x2="170.9805">
   <stop offset="0" style="stop-color:#D0CBC5" id="stop3038"/>
   <stop offset="0.96929997" style="stop-color:#FAFCEF" id="stop3040"/>
   <stop offset="0.96929997" style="stop-color:#FFFFFF" id="stop3042"/>
  </linearGradient>
  <linearGradient gradientTransform="matrix(1,0,0,-1,-137.48,-203.0195)" id="linearGradient3069-4" y1="-248.71091" y2="-213.32761" x1="170.9805" x2="170.9805" gradientUnits="userSpaceOnUse">
   <stop offset="0" style="stop-color:#D0CBC5" id="stop3038-9"/>
   <stop offset="0.5031" style="stop-color:#FAFCEF" id="stop3040-4"/>
   <stop offset="0.9693" style="stop-color:#FFFFFF" id="stop3042-8"/>
  </linearGradient>
  <linearGradient gradientTransform="matrix(1,0,0,-1,-137.48,-203.0195)" id="SVGID_1_-17-0" y1="-248.71091" x1="170.9805" y2="-213.32761" gradientUnits="userSpaceOnUse" x2="170.9805">
   <stop offset="0" style="stop-color:#D0CBC5" id="stop3038-9"/>
   <stop offset="0.5031" style="stop-color:#FAFCEF" id="stop3040-4"/>
   <stop offset="0.9693" style="stop-color:#FFFFFF" id="stop3042-8"/>
  </linearGradient>
  <linearGradient id="linearGradient5023" y1="51.5" x1="33.5005" y2="5.5005002" gradientUnits="userSpaceOnUse" x2="33.5005">
   <stop offset="0" style="stop-color:#D0CBC5" id="stop5000"/>
   <stop offset="0.5031" style="stop-color:#FAFCEF" id="stop5002"/>
   <stop offset="0.9693" style="stop-color:#FFFFFF" id="stop5004"/>
  </linearGradient>
  <linearGradient id="SVGID_1_-8" y1="51.5" y2="5.5005002" x1="33.5005" x2="33.5005" gradientUnits="userSpaceOnUse">
   <stop offset="0" style="stop-color:#D0CBC5" id="stop5000"/>
   <stop offset="0.5031" style="stop-color:#FAFCEF" id="stop5002"/>
   <stop offset="0.9693" style="stop-color:#FFFFFF" id="stop5004"/>
  </linearGradient>
  <linearGradient gradientTransform="matrix(1,0,0,-1,-137.48,-203.0195)" id="SVGID_1_-3" y1="-248.71091" x1="170.9805" y2="-213.32761" gradientUnits="userSpaceOnUse" x2="170.9805">
   <stop offset="0" style="stop-color:#D0CBC5" id="stop5102"/>
   <stop offset="0.5031" style="stop-color:#FAFCEF" id="stop5104"/>
   <stop offset="0.9693" style="stop-color:#FFFFFF" id="stop5106"/>
  </linearGradient>
  <linearGradient id="linearGradient5247" y1="51.5" x1="33.5005" y2="5.5005002" gradientUnits="userSpaceOnUse" x2="33.5005">
   <stop offset="0" style="stop-color:#D0CBC5" id="stop5224"/>
   <stop offset="0.5031" style="stop-color:#FAFCEF" id="stop5226"/>
   <stop offset="0.9693" style="stop-color:#FFFFFF" id="stop5228"/>
  </linearGradient>
  <linearGradient id="SVGID_1_-4" y1="51.5" y2="5.5005002" x1="33.5005" x2="33.5005" gradientUnits="userSpaceOnUse">
   <stop offset="0" style="stop-color:#D0CBC5" id="stop5224"/>
   <stop offset="0.5031" style="stop-color:#FAFCEF" id="stop5226"/>
   <stop offset="0.9693" style="stop-color:#FFFFFF" id="stop5228"/>
  </linearGradient>
  <linearGradient gradientTransform="translate(118,-54.5)" id="linearGradient5269" y1="51.5" y2="5.5005002" x1="33.5005" x2="33.5005" gradientUnits="userSpaceOnUse">
   <stop offset="0" style="stop-color:#D0CBC5" id="stop5224"/>
   <stop offset="0.5031" style="stop-color:#FAFCEF" id="stop5226"/>
   <stop offset="0.9693" style="stop-color:#FFFFFF" id="stop5228"/>
  </linearGradient>
  <linearGradient id="linearGradient3878-2" y1="45.617443" x1="33.5005" y2="12.674352" gradientUnits="userSpaceOnUse" x2="33.5005">
   <stop offset="0" style="stop-color:#D0CBC5" id="stop5224-5"/>
   <stop offset="0.5031" style="stop-color:#FAFCEF" id="stop5226-5"/>
   <stop offset="0.9693" style="stop-color:#FFFFFF" id="stop5228-1"/>
  </linearGradient>
  <linearGradient id="SVGID_1_-4-4" y1="51.5" y2="5.5005002" x1="33.5005" x2="33.5005" gradientUnits="userSpaceOnUse">
   <stop offset="0" style="stop-color:#D0CBC5" id="stop5224-5"/>
   <stop offset="0.5031" style="stop-color:#FAFCEF" id="stop5226-5"/>
   <stop offset="0.9693" style="stop-color:#FFFFFF" id="stop5228-1"/>
  </linearGradient>
 </defs>
 <g style="display:inline" id="layer5" transform="translate(0,-27)">
  <rect width="30" x="0" y="27" height="30" style="fill:#000000;fill-opacity:0;stroke:none;display:inline" id="rect3119"/>
 </g>
 <g style="display:inline" id="layer1">
  <path style="font-size:medium;font-style:normal;font-variant:normal;font-weight:normal;font-stretch:normal;text-indent:0;text-align:start;text-decoration:none;line-height:normal;letter-spacing:normal;word-spacing:normal;text-transform:none;direction:ltr;block-progression:tb;writing-mode:lr-tb;text-anchor:start;baseline-shift:baseline;color:#000000;fill:#000000;fill-opacity:0.15686275;fill-rule:nonzero;stroke:none;stroke-width:2;marker:none;visibility:visible;display:inline;overflow:visible;enable-background:accumulate;font-family:Sans;-inkscape-font-specification:Sans" id="path5318" d="M 12.90625,1 C 11.531841,1.3230169 10.131121,1.6859697 8.75,2.03125 8.2811281,2.1484103 7.9403284,2.6454099 8,3.125 L 8.5,7.15625 C 8.550621,7.5528714 8.8620488,7.9032277 9.25,8 8.846744,8.043965 8.526005,8.1678165 8.3125,8.25 7.7581411,8.3603765 7.1887238,8.4990555 6.75,8.65625 6.375596,8.935111 6.250414,9.253873 6.21875,9.3125 6.0640754,9.5007238 5.6574176,9.7612215 5.375,9.96875 4.197516,11.859094 4.527953,12.958383 4.5,13.8125 c 0.1407326,0.459284 0.1078955,1.136463 0.125,1.40625 -0.09541,0.175168 -0.07543,0.337543 -0.09375,0.5 l -0.03125,0 c 0,0 -0.02761,0.187184 -0.03125,0.28125 -0.0025,0.106615 0,0.222248 0,0.3125 0.02745,0.224417 0.08663,0.515697 0.21875,0.9375 0.010416,1.63e-4 0.020834,1.63e-4 0.03125,0 0.0085,0.02619 0.08729,0.50352 0.21875,0.9375 0.06573,0.21699 0.09728,0.450056 0.4375,0.78125 0.238451,0.131857 0.2406145,0.502264 0.3125,0.65625 0.167791,0.453614 0.507535,0.955748 0.90625,1.4375 -0.01373,0.10172 -0.07228,0.289571 -0.125,0.5 -0.03207,0.118722 -0.03082,0.128742 -0.0625,0.21875 -0.03168,0.09001 -0.08057,0.191327 -0.15625,0.3125 -0.151369,0.242345 -0.390449,0.512501 -0.90625,0.71875 0,0 -1.329937,0.534731 -2.71875,1.34375 -0.01286,0.0075 -0.01838,-0.0075 -0.03125,0 -0.04284,0.01654 -1.195392,0.467243 -1.53125,1.8125 -0.16721696,0.583162 0.2411003,0.927494 0.4375,1.25 0.848073,0.485581 1.813114,0.840848 2.90625,1.125 C 6.999157,29.014613 8.863104,29.025209 10.0625,29 12.294675,28.91285 14.114491,28.763612 15.78125,28.34375 16.811379,28.07624 17.720714,27.715916 18.5,27.28125 18.855187,27.082942 19.064281,26.651686 19,26.25 18.801836,25.244657 18.028151,24.640365 17.40625,24.15625 16.520601,23.656861 15.548187,23.217143 14.59375,22.8125 14.466076,22.77629 14.405261,22.707784 14.3125,22.65625 14.07858,22.485295 13.845993,22.215428 13.6875,21.96875 13.61233,21.834571 13.541667,21.697917 13.46875,21.5625 13.42227,21.375368 13.38439,21.222748 13.375,21.125 c 0.555626,-0.62895 0.847823,-1.410741 1.09375,-2.15625 0.01309,-0.04094 0.02353,-0.08272 0.03125,-0.125 4.53e-4,-0.03141 0,-0.06393 0,-0.09375 0.03174,-0.07333 -0.02277,-0.136643 -0.03125,-0.1875 -0.02313,-0.07462 -0.04143,-0.144994 -0.0625,-0.21875 2.629528,1.627927 4.724291,4.514295 7.3125,5.3125 l 1.375,2.78125 c 0.319804,0.685193 1.492696,0.685193 1.8125,0 0.940372,-1.880743 1.650507,-2.590878 3.53125,-3.53125 0.685193,-0.319804 0.685193,-1.492696 0,-1.8125 l -2.78125,-1.375 c -0.822457,-3.812955 -3.592406,-6.92748 -7.21875,-8.15625 0.181193,0.01789 0.367125,-0.01492 0.53125,-0.09375 l 3.4375,-1.5625 C 22.846344,9.7029952 23.088152,9.1482596 22.9375,8.6875 l -1,-3 C 21.750116,5.1034655 20.950698,4.8203383 20.4375,5.15625 L 19.84375,5.5625 C 20.145625,5.1231971 20.010116,4.4456547 19.5625,4.15625 l -3,-2 C 16.123197,1.8543751 15.445655,1.9898836 15.15625,2.4375 l -1.875,2.8125 0.6875,-3.03125 C 14.108372,1.6068489 13.531474,0.94511278 12.90625,1 z"/>
 </g>
 <g style="display:inline" id="layer4" transform="translate(0,-27)">
  <path style="fill:#000000;fill-opacity:0.31372549;stroke:none;display:inline" id="path4302-5" d="m 13,28 -4,1 0.5,4.03125 c 0.600892,-0.0065 1.286229,0.07117 2.03125,0.3125 0.101953,0.03293 0.155965,0.06383 0.25,0.09375 L 13,28 z m 3,1 -3.15625,4.75 c 0.301468,0.09816 0.579173,0.205354 0.84375,0.3125 0.367029,0.148636 0.769683,0.410901 1.125,0.71875 L 19,31 16,29 z m 5,3 -5.46875,3.65625 c 0.07948,0.129178 0.118619,0.250191 0.1875,0.375 0.985972,0.05969 1.934556,0.244373 2.84375,0.53125 L 22,35 21,32 z M 9.71875,35 c -0.9482344,-0.0457 -1.255,0.40225 -1.75,0.34375 -0.658,-0.08 -0.747,0.2005 -0.875,0.4375 -0.129,0.234 0.01525,0.4215 -0.34375,0.4375 C 6.389,36.23675 6.21875,36.5 6.21875,36.5 5.14675,38.221 5.536,38.74375 5.5,39.84375 c -0.02,0.584001 0.07,1.006501 0.375,1.8125 L 5.84375,41.625 c 0,0 -0.406,-0.195 -0.375,0.375 0,0 -0.0515,0.1745 0.1875,0.9375 0.143,0.439 0.24725,1.66825 0.65625,1.28125 0.013,0.045 0.01625,0.08 0.03125,0.125 0,0 0.33925,1.668 1.15625,2.375 0.166,0.154 0.0515,0.63875 -0.0625,1.09375 -0.047,0.174 -0.28075,1.3625 -1.71875,1.9375 0,0 -1.306,0.50825 -2.625,1.28125 0,0 -0.8785,0.4505 -1.0625,1.1875 L 2,52.34375 c 0.751,0.43 1.62525,0.76325 2.65625,1.03125 2.52,0.652 4.2615,0.651 5.4375,0.625 1.176,0.025 2.9165,0.027 5.4375,-0.625 C 16.48625,53.127 17.299,52.79725 18,52.40625 l -0.03125,-0.1875 c -0.184,-0.737 -1.0625,-1.1875 -1.0625,-1.1875 C 15.58425,50.25825 14.25,49.75 14.25,49.75 14.065,49.68 13.92725,49.592 13.78125,49.5 12.97425,48.945 12.54,47.9625 12.5,47.8125 12.387,47.3575 12.30775,46.87275 12.46875,46.71875 13.033278,46.229631 13.355231,45.319761 13.5,44.78125 13.4955,44.77305 13.5045,44.75819 13.5,44.75 12.553615,43.038455 12,41.082143 12,39  c -0.0084 -1.1057 0.5920 -2.1264 1.5625 -2.6562 C 13.211516,35.969469 12.648375,35.812625 10.90625,35.25 10.41,35.08925 10.034828,35.015234 9.71875,35 z M 15,38 c -0.552285,0 -1,0.447715 -1,1 0,4.977228 3.668445,9.087775 8.4375,9.84375 L 24,52 c 1,-2 2,-3 4,-4 L 24.84375,46.4375 C 24.087775,41.668445 19.977228,38 15,38 z m 3,2 c 0.552285,0 1,0.447715 1,1 0,0.552285 -0.447715,1 -1,1 -0.552285,0 -1,-0.447715 -1,-1 0,-0.552285 0.447715,-1 1,-1 z"/>
 </g>
 <linearGradient id="SVGID_1_" y1="43.276402" x1="33.0005" y2="14.7246" gradientUnits="userSpaceOnUse" x2="33.0005">
  <stop offset="0" style="stop-color:#D0CBC5" id="stop13"/>
  <stop offset="0.5031" style="stop-color:#FAFCEF" id="stop15"/>
  <stop offset="0.9693" style="stop-color:#FFFFFF" id="stop17"/>
 </linearGradient>
 <g style="display:inline" id="layer2" transform="translate(0,-27)">
  <path style="fill:#ffffff;fill-opacity:1;stroke:none" id="path4302" d="M 13,2 9,3 9.5,7.03125 c 0.600892,-0.0065 1.286229,0.07117 2.03125,0.3125 0.101953,0.03293 0.155965,0.06383 0.25,0.09375 L 13,2 z m 3,1 -3.15625,4.75 c 0.301468,0.09816 0.579173,0.205354 0.84375,0.3125 0.367029,0.148636 0.769683,0.410901 1.125,0.71875 L 19,5 16,3 z m 5,3 -5.46875,3.65625 c 0.07948,0.1291779 0.118619,0.2501908 0.1875,0.375 0.985972,0.05969 1.934556,0.244373 2.84375,0.53125 L 22,9 21,6 z M 9.71875,9 c -0.9482344,-0.045703 -1.255,0.40225 -1.75,0.34375 -0.658,-0.08 -0.747,0.2005 -0.875,0.4375 -0.129,0.234 0.01525,0.4215 -0.34375,0.4375 C 6.389,10.23675 6.21875,10.5 6.21875,10.5 5.14675,12.221 5.536,12.74375 5.5,13.84375 c -0.02,0.584001 0.07,1.006501 0.375,1.8125 L 5.84375,15.625 c 0,0 -0.406,-0.195 -0.375,0.375 0,0 -0.0515,0.1745 0.1875,0.9375 0.143,0.439 0.24725,1.66825 0.65625,1.28125 0.013,0.045 0.01625,0.08 0.03125,0.125 0,0 0.33925,1.668 1.15625,2.375 0.166,0.154 0.0515,0.63875 -0.0625,1.09375 -0.047,0.174 -0.28075,1.3625 -1.71875,1.9375 0,0 -1.306,0.50825 -2.625,1.28125 0,0 -0.8785,0.4505 -1.0625,1.1875 L 2,26.34375 c 0.751,0.43 1.62525,0.76325 2.65625,1.03125 2.52,0.652 4.2615,0.651 5.4375,0.625 1.176,0.025 2.9165,0.027 5.4375,-0.625 C 16.48625,27.127 17.299,26.79725 18,26.40625 l -0.03125,-0.1875 c -0.184,-0.737 -1.0625,-1.1875 -1.0625,-1.1875 C 15.58425,24.25825 14.25,23.75 14.25,23.75 14.065,23.68 13.92725,23.592 13.78125,23.5 12.97425,22.945 12.54,21.9625 12.5,21.8125 12.387,21.3575 12.30775,20.87275 12.46875,20.71875 13.033278,20.229631 13.355231,19.319761 13.5,18.78125 13.4955,18.77305 13.5045,18.75819 13.5,18.75 12.553615,17.038455 12,15.082143 12,13  c -0.0084 -1.1057 0.5920 -2.1264 1.5625 -2.6562 C 13.211516,9.9694687 12.648375,9.812625 10.90625,9.25 10.41,9.08925 10.034828,9.0152344 9.71875,9 z M 15,12 c -0.552285,0 -1,0.447715 -1,1 0,4.977228 3.668445,9.087775 8.4375,9.84375 L 24,26 c 1,-2 2,-3 4,-4 L 24.84375,20.4375 C 24.087775,15.668445 19.977228,12 15,12 z m 3,2 c 0.552285,0 1,0.447715 1,1 0,0.552285 -0.447715,1 -1,1 -0.552285,0 -1,-0.447715 -1,-1 0,-0.552285 0.447715,-1 1,-1 z" transform="translate(0,27)"/>
 </g>
 <rect width="16.263456" x="130.28442" y="5.9583702" height="0.17677669" style="fill:none;stroke:none" id="rect4949"/>
</svg>
