<?xml version="1.0" encoding="UTF-8" standalone="no"?>
<!-- Generator: Adobe Illustrator 14.0.0, SVG Export Plug-In  -->

<svg
   xmlns:dc="http://purl.org/dc/elements/1.1/"
   xmlns:cc="http://creativecommons.org/ns#"
   xmlns:rdf="http://www.w3.org/1999/02/22-rdf-syntax-ns#"
   xmlns:svg="http://www.w3.org/2000/svg"
   xmlns="http://www.w3.org/2000/svg"
   xmlns:xlink="http://www.w3.org/1999/xlink"
   xmlns:sodipodi="http://sodipodi.sourceforge.net/DTD/sodipodi-0.dtd"
   xmlns:inkscape="http://www.inkscape.org/namespaces/inkscape"
   version="1.1"
   x="0px"
   y="0px"
   width="30"
   height="30"
   viewBox="0 0 30 30"
   enable-background="new 0 0 67 57"
   xml:space="preserve"
   id="svg2"
   inkscape:version="0.48.2 r9819"
   sodipodi:docname="New document 2"
   style="display:inline"><metadata
   id="metadata25"><rdf:RDF><cc:Work
       rdf:about=""><dc:format>image/svg+xml</dc:format><dc:type
         rdf:resource="http://purl.org/dc/dcmitype/StillImage" /><dc:title></dc:title></cc:Work></rdf:RDF></metadata><sodipodi:namedview
   pagecolor="#ffffff"
   bordercolor="#666666"
   borderopacity="1"
   objecttolerance="10"
   gridtolerance="10"
   guidetolerance="10"
   inkscape:pageopacity="0"
   inkscape:pageshadow="2"
   inkscape:window-width="1275"
   inkscape:window-height="746"
   id="namedview23"
   showgrid="false"
   inkscape:zoom="26.1"
   inkscape:cx="15"
   inkscape:cy="18.868436"
   inkscape:window-x="9"
   inkscape:window-y="7"
   inkscape:window-maximized="0"
   inkscape:current-layer="layer2"
   showguides="true"
   inkscape:guide-bbox="true"><inkscape:grid
     type="xygrid"
     id="grid3826"
     empspacing="5"
     visible="true"
     enabled="true"
     snapvisiblegridlinesonly="true" /></sodipodi:namedview>
<defs
   id="defs4"><linearGradient
   id="linearGradient4941"><stop
     style="stop-color:#000000;stop-opacity:1;"
     offset="0"
     id="stop4943" /><stop
     style="stop-color:#000000;stop-opacity:0;"
     offset="1"
     id="stop4945" /></linearGradient>
<linearGradient
   id="SVGID_1_-1"
   gradientUnits="userSpaceOnUse"
   x1="33.0005"
   y1="43.276402"
   x2="33.0005"
   y2="14.7246"><stop
     offset="0"
     style="stop-color:#D0CBC5"
     id="stop13-7" /><stop
     offset="0.49727899"
     style="stop-color:#FAFCEF"
     id="stop15-4" /><stop
     offset="0.82879829"
     style="stop-color:#FFFFFF"
     id="stop17-0" /></linearGradient><linearGradient
   id="SVGID_1_-17"
   gradientUnits="userSpaceOnUse"
   x1="170.9805"
   y1="-248.71091"
   x2="170.9805"
   y2="-213.32761"
   gradientTransform="matrix(1,0,0,-1,-137.48,-203.0195)"><stop
     offset="0"
     style="stop-color:#D0CBC5"
     id="stop3038" /><stop
     offset="0.96929997"
     style="stop-color:#FAFCEF"
     id="stop3040" /><stop
     offset="0.96929997"
     style="stop-color:#FFFFFF"
     id="stop3042" /></linearGradient><linearGradient
   y2="-213.32761"
   x2="170.9805"
   y1="-248.71091"
   x1="170.9805"
   gradientTransform="matrix(1,0,0,-1,-137.48,-203.0195)"
   gradientUnits="userSpaceOnUse"
   id="linearGradient3069-4"
   xlink:href="#SVGID_1_-17-0"
   inkscape:collect="always" /><linearGradient
   id="SVGID_1_-17-0"
   gradientUnits="userSpaceOnUse"
   x1="170.9805"
   y1="-248.71091"
   x2="170.9805"
   y2="-213.32761"
   gradientTransform="matrix(1,0,0,-1,-137.48,-203.0195)"><stop
     offset="0"
     style="stop-color:#D0CBC5"
     id="stop3038-9" /><stop
     offset="0.5031"
     style="stop-color:#FAFCEF"
     id="stop3040-4" /><stop
     offset="0.9693"
     style="stop-color:#FFFFFF"
     id="stop3042-8" /></linearGradient><linearGradient
   inkscape:collect="always"
   xlink:href="#SVGID_1_-8"
   id="linearGradient5023"
   gradientUnits="userSpaceOnUse"
   x1="33.5005"
   y1="51.5"
   x2="33.5005"
   y2="5.5005002" /><linearGradient
   y2="5.5005002"
   x2="33.5005"
   y1="51.5"
   x1="33.5005"
   gradientUnits="userSpaceOnUse"
   id="SVGID_1_-8"><stop
     id="stop5000"
     style="stop-color:#D0CBC5"
     offset="0" /><stop
     id="stop5002"
     style="stop-color:#FAFCEF"
     offset="0.5031" /><stop
     id="stop5004"
     style="stop-color:#FFFFFF"
     offset="0.9693" /></linearGradient><linearGradient
   id="SVGID_1_-3"
   gradientUnits="userSpaceOnUse"
   x1="170.9805"
   y1="-248.71091"
   x2="170.9805"
   y2="-213.32761"
   gradientTransform="matrix(1,0,0,-1,-137.48,-203.0195)"><stop
     offset="0"
     style="stop-color:#D0CBC5"
     id="stop5102" /><stop
     offset="0.5031"
     style="stop-color:#FAFCEF"
     id="stop5104" /><stop
     offset="0.9693"
     style="stop-color:#FFFFFF"
     id="stop5106" /></linearGradient><linearGradient
   inkscape:collect="always"
   xlink:href="#SVGID_1_-4"
   id="linearGradient5247"
   gradientUnits="userSpaceOnUse"
   x1="33.5005"
   y1="51.5"
   x2="33.5005"
   y2="5.5005002" /><linearGradient
   y2="5.5005002"
   x2="33.5005"
   y1="51.5"
   x1="33.5005"
   gradientUnits="userSpaceOnUse"
   id="SVGID_1_-4"><stop
     id="stop5224"
     style="stop-color:#D0CBC5"
     offset="0" /><stop
     id="stop5226"
     style="stop-color:#FAFCEF"
     offset="0.5031" /><stop
     id="stop5228"
     style="stop-color:#FFFFFF"
     offset="0.9693" /></linearGradient><linearGradient
   gradientTransform="translate(118,-54.5)"
   y2="5.5005002"
   x2="33.5005"
   y1="51.5"
   x1="33.5005"
   gradientUnits="userSpaceOnUse"
   id="linearGradient5269"
   xlink:href="#SVGID_1_-4"
   inkscape:collect="always" /><filter
   id="filter5326"
   inkscape:label="filter1"
   color-interpolation-filters="sRGB" /><linearGradient
   inkscape:collect="always"
   xlink:href="#SVGID_1_-4-4"
   id="linearGradient3878-2"
   gradientUnits="userSpaceOnUse"
   x1="33.5005"
   y1="45.617443"
   x2="33.5005"
   y2="12.674352" /><linearGradient
   y2="5.5005002"
   x2="33.5005"
   y1="51.5"
   x1="33.5005"
   gradientUnits="userSpaceOnUse"
   id="SVGID_1_-4-4"><stop
     id="stop5224-5"
     style="stop-color:#D0CBC5"
     offset="0" /><stop
     id="stop5226-5"
     style="stop-color:#FAFCEF"
     offset="0.5031" /><stop
     id="stop5228-1"
     style="stop-color:#FFFFFF"
     offset="0.9693" /></linearGradient></defs>
<g
   inkscape:groupmode="layer"
   id="layer5"
   inkscape:label="DO NOT EDIT - Bounding Box"
   style="display:inline"
   transform="translate(0,-27)"
   sodipodi:insensitive="true"><rect
     style="fill:#000000;fill-opacity:0;stroke:none;display:inline"
     id="rect3119"
     width="30"
     height="30"
     x="0"
     y="27" /></g><g
   inkscape:groupmode="layer"
   id="layer1"
   inkscape:label="CREATE YOUR LIGHT SHADOW HERE"
   style="display:inline"
   sodipodi:insensitive="true"><path
     sodipodi:type="inkscape:offset"
     inkscape:radius="1.3423091"
     inkscape:original="M 5.9375 9.03125 C 5.9375 9.03125 6.1142 10.5721 5.9375 11.03125 C 5.76065 11.49055 5.5917 12.03365 5.625 12.40625 C 5.6583 12.77855 5.44105 12.66275 5.5 13.15625 C 5.5591 13.6499 4.9641 14.05945 4.875 14.5 C 4.78575 14.9407 4.08005 16.51455 4.34375 18.1875 L 4.3125 20.15625 C 4.3125 20.15625 6.7494495 21.30815 9.6875 20.9375 C 12.62525 20.56685 15.195 21.0405 15.9375 21.09375 C 16.6803 21.14685 22.0476 21.29785 25.125 19 C 25.125 19 26.1411 18.1728 25.5 16.875 C 24.8589 15.5775 22.57065 15.77705 21.46875 15.96875 C 21.46875 15.96875 20.47385 15.9967 19.90625 15.90625 C 19.33865 15.81595 18.17075 15.4267 17.65625 15.15625 C 17.1416 14.88595 16.4451 14.45505 16.21875 14.25 C 16.06425 14.11005 15.7428 13.78295 15.46875 13.53125 C 15.34155 13.41425 15.2105 13.31195 15.125 13.25 C 14.855 13.05425 14.5202 12.74225 14.46875 12.5 C 14.4173 12.25775 14.25295 11.8803 14.21875 11.71875 C 14.1844 11.5575 14.2629 9.13215 13.40625 9.1875 C 12.5496 9.24285 8.3400505 9.9408 7.0625 9.28125 C 6.23285 8.85285 5.99555 8.76335 5.9375 9.03125 z "
     style="fill:#000000;fill-opacity:0.15686275;display:inline"
     id="path3871"
     d="M 6.53125,7.59375 C 6.2948738,7.5348425 5.8993764,7.4619278 5.40625,7.71875 4.9131236,7.9755722 4.6828718,8.4829224 4.625,8.75 A 1.3424433,1.3424433 0 0 0 4.59375,9.1875 c 0,0 0.042921,0.3576537 0.0625,0.75 0.00979,0.196173 0.00577,0.385696 0,0.53125 -0.00577,0.145554 -0.041894,0.283813 0.03125,0.09375 -0.1565271,0.406519 -0.268105,0.941459 -0.3125,1.53125 0.090037,-0.166842 -0.099076,0.377958 -0.09375,0.4375 -0.067995,0.262762 -0.1576087,0.508267 -0.125,0.78125 -0.03886,-0.324586 0.1161337,-0.385649 0,-0.21875 -0.1161337,0.166899 -0.4501359,0.414908 -0.59375,1.125 0.030285,-0.149543 -0.2279258,0.58525 -0.40625,1.34375 -0.1626776,0.691947 -0.2321227,1.623417 -0.125,2.59375 L 3,18.15625 2.96875,20.125 A 1.3424433,1.3424433 0 0 0 3.75,21.375 c 0,0 2.7216188,1.331661 6.09375,0.90625 1.3502,-0.170352 2.643501,-0.168312 3.6875,-0.09375 1.043999,0.07456 1.768219,0.210966 2.3125,0.25 0.510496,0.03649 2.058544,0.07164 4,-0.1875 1.941456,-0.259142 4.243989,-0.806311 6.09375,-2.1875 a 1.3424433,1.3424433 0 0 0 0.03125,-0.03125 c 0,0 0.506171,-0.381156 0.8125,-1.03125 0.306329,-0.650094 0.432926,-1.715843 -0.0625,-2.71875 -0.613615,-1.241874 -1.902167,-1.637715 -2.90625,-1.75 -0.930788,-0.104089 -1.752366,0.02347 -2.375,0.125 l 0,-0.03125 c 0,0 -1.028068,0.01408 -1.3125,-0.03125 -0.258649,-0.04115 -1.600252,-0.497004 -1.84375,-0.625 C 17.845136,13.739698 17.029394,13.163391 17.125,13.25 c -0.0698,-0.06322 -0.43438,-0.428871 -0.75,-0.71875 -0.178364,-0.164061 -0.342422,-0.283468 -0.46875,-0.375 -0.06275,-0.0455 -0.137905,-0.107961 -0.1875,-0.15625 -0.009,-0.0087 -0.02461,-0.02414 -0.03125,-0.03125 -0.03575,-0.114826 -0.0626,-0.256654 -0.09375,-0.34375 -0.03541,-0.09901 -0.02192,-0.09988 -0.03125,-0.125 -0.0026,-0.0749 -0.02532,-0.176471 -0.03125,-0.3125 -0.01185,-0.272059 -0.03682,-0.615556 -0.09375,-1 C 15.38057,9.8030565 15.328789,9.3968742 15.09375,8.9375 14.976231,8.7078129 14.798688,8.4480273 14.5,8.21875 14.201312,7.9894727 13.733646,7.8165389 13.3125,7.84375 c -0.649423,0.041961 -1.774855,0.2182462 -3.03125,0.3125 -0.6281976,0.047127 -1.2494831,0.085028 -1.75,0.0625 C 8.0307331,8.1962219 7.6541415,8.0765283 7.6875,8.09375 7.260178,7.873097 7.0040023,7.711565 6.53125,7.59375 z" /></g><g
   inkscape:groupmode="layer"
   id="layer4"
   inkscape:label="CREATE YOUR DARK SHADOW HERE"
   style="display:inline"
   transform="translate(0,-27)"><path
     style="display:inline;fill:#000000;fill-opacity:0.3137255"
     inkscape:connector-curvature="0"
     d="m 5.9448348,35.041403 c 0,0 0.1635,1.528049 -0.0132,1.9872 -0.17685,0.459299 -0.33645,0.99915 -0.30315,1.371749 0.0333,0.3723 -0.1758,0.2481 -0.11685,0.7416 0.0591,0.49365 -0.53715,0.9153 -0.62625,1.355851 -0.08925,0.4407 -0.804,2.026199 -0.5403,3.699149 l -0.04335,1.949101 c 0,0 2.442,1.1685 5.3800505,0.79785 2.9377497,-0.37065 5.5051497,0.0966 6.2476497,0.14985 0.7428,0.0531 6.125249,0.21795 9.202649,-2.0799 0,0 1.00875,-0.84675 0.36765,-2.144551 -0.6411,-1.2975 -2.9316,-1.106699 -4.0335,-0.915 0,0 -0.9966,0.0429 -1.5642,-0.04755 -0.5676,-0.0903 -1.745699,-0.472649 -2.260199,-0.7431 -0.51465,-0.270299 -1.203,-0.714599 -1.42935,-0.919649 -0.1545,-0.13995 -0.4755,-0.4611 -0.74955,-0.7128 -0.1272,-0.117 -0.2442,-0.21885 -0.3297,-0.2808 -0.27,-0.195751 -0.6096,-0.503101 -0.66105,-0.745351 -0.05145,-0.242249 -0.22455,-0.62715 -0.25875,-0.788699 -0.03435,-0.161251 0.04605,-2.5821 -0.8106,-2.52675 -0.85665,0.05535 -5.0593497,0.7365 -6.3369002,0.07695 -0.82965,-0.4284 -1.06305,-0.49305 -1.1211,-0.22515 z"
     id="path11-1" /></g>


<linearGradient
   id="SVGID_1_"
   gradientUnits="userSpaceOnUse"
   x1="33.0005"
   y1="43.276402"
   x2="33.0005"
   y2="14.7246">
	<stop
   offset="0"
   style="stop-color:#D0CBC5"
   id="stop13" />
	<stop
   offset="0.5031"
   style="stop-color:#FAFCEF"
   id="stop15" />
	<stop
   offset="0.9693"
   style="stop-color:#FFFFFF"
   id="stop17" />
</linearGradient>


<g
   inkscape:groupmode="layer"
   id="layer2"
   inkscape:label="PLACE YOUR GRAPHIC HERE"
   style="display:inline"
   transform="translate(0,-27)"><path
     inkscape:connector-curvature="0"
     d="m 5.9448348,36.041403 c 0,0 0.1635,1.52805 -0.0132,1.9872 -0.17685,0.4593 -0.33645,0.99915 -0.30315,1.37175 0.0333,0.3723 -0.1758,0.2481 -0.11685,0.7416 0.0591,0.49365 -0.53715,0.9153 -0.62625,1.35585 -0.08925,0.4407 -0.804,2.0262 -0.5403,3.69915 l -0.04335,1.9491 c 0,0 2.442,1.1685 5.3800505,0.79785 2.9377497,-0.37065 5.5051497,0.0966 6.2476497,0.14985 0.7428,0.0531 6.125249,0.21795 9.202649,-2.0799 0,0 1.00875,-0.84675 0.36765,-2.14455 -0.6411,-1.2975 -2.9316,-1.1067 -4.0335,-0.915 0,0 -0.9966,0.0429 -1.5642,-0.04755 -0.5676,-0.0903 -1.745699,-0.47265 -2.260199,-0.7431 -0.51465,-0.2703 -1.203,-0.7146 -1.42935,-0.91965 -0.1545,-0.13995 -0.4755,-0.4611 -0.74955,-0.7128 -0.1272,-0.117 -0.2442,-0.21885 -0.3297,-0.2808 -0.27,-0.19575 -0.6096,-0.5031 -0.66105,-0.74535 -0.05145,-0.24225 -0.22455,-0.62715 -0.25875,-0.7887 -0.03435,-0.16125 0.04605,-2.5821 -0.8106,-2.52675 -0.85665,0.05535 -5.0593497,0.7365 -6.3369002,0.07695 -0.82965,-0.4284 -1.06305,-0.49305 -1.1211,-0.22515 z"
     id="path11"
     style="fill:#ffffff;fill-opacity:1" /></g><rect
   style="fill:none;stroke:none"
   id="rect4949"
   width="16.263456"
   height="0.17677669"
   x="130.28442"
   y="5.9583702" /></svg>