<?xml version="1.0"?>
<!-- Converted with SVG Converter - Version 0.9.5 (Compiled Mon May 30 09:08:51 2011) - Copyright (C) 2011 Nokia -->
<svg xmlns="http://www.w3.org/2000/svg" width="30" x="0px" y="0px" version="1.1" viewBox="0 0 30 30" height="30" xmlns:xlink="http://www.w3.org/1999/xlink" baseProfile="tiny" id="svg2" xml:space="preserve">
 <metadata id="metadata25"/>
 <defs id="defs4">
  <linearGradient id="linearGradient4941">
   <stop offset="0" style="stop-color:#000000;stop-opacity:1;" id="stop4943"/>
   <stop offset="1" style="stop-color:#000000;stop-opacity:0;" id="stop4945"/>
  </linearGradient>
  <linearGradient id="SVGID_1_-1" y1="43.276402" x1="33.0005" y2="14.7246" gradientUnits="userSpaceOnUse" x2="33.0005">
   <stop offset="0" style="stop-color:#D0CBC5" id="stop13-7"/>
   <stop offset="0.49727899" style="stop-color:#FAFCEF" id="stop15-4"/>
   <stop offset="0.82879829" style="stop-color:#FFFFFF" id="stop17-0"/>
  </linearGradient>
  <linearGradient gradientTransform="matrix(1,0,0,-1,-137.48,-203.0195)" id="SVGID_1_-17" y1="-248.71091" x1="170.9805" y2="-213.32761" gradientUnits="userSpaceOnUse" x2="170.9805">
   <stop offset="0" style="stop-color:#D0CBC5" id="stop3038"/>
   <stop offset="0.96929997" style="stop-color:#FAFCEF" id="stop3040"/>
   <stop offset="0.96929997" style="stop-color:#FFFFFF" id="stop3042"/>
  </linearGradient>
  <linearGradient gradientTransform="matrix(1,0,0,-1,-137.48,-203.0195)" id="linearGradient3069-4" y1="-248.71091" y2="-213.32761" x1="170.9805" x2="170.9805" gradientUnits="userSpaceOnUse">
   <stop offset="0" style="stop-color:#D0CBC5" id="stop3038-9"/>
   <stop offset="0.5031" style="stop-color:#FAFCEF" id="stop3040-4"/>
   <stop offset="0.9693" style="stop-color:#FFFFFF" id="stop3042-8"/>
  </linearGradient>
  <linearGradient gradientTransform="matrix(1,0,0,-1,-137.48,-203.0195)" id="SVGID_1_-17-0" y1="-248.71091" x1="170.9805" y2="-213.32761" gradientUnits="userSpaceOnUse" x2="170.9805">
   <stop offset="0" style="stop-color:#D0CBC5" id="stop3038-9"/>
   <stop offset="0.5031" style="stop-color:#FAFCEF" id="stop3040-4"/>
   <stop offset="0.9693" style="stop-color:#FFFFFF" id="stop3042-8"/>
  </linearGradient>
  <linearGradient id="linearGradient5023" y1="51.5" x1="33.5005" y2="5.5005002" gradientUnits="userSpaceOnUse" x2="33.5005">
   <stop offset="0" style="stop-color:#D0CBC5" id="stop5000"/>
   <stop offset="0.5031" style="stop-color:#FAFCEF" id="stop5002"/>
   <stop offset="0.9693" style="stop-color:#FFFFFF" id="stop5004"/>
  </linearGradient>
  <linearGradient id="SVGID_1_-8" y1="51.5" y2="5.5005002" x1="33.5005" x2="33.5005" gradientUnits="userSpaceOnUse">
   <stop offset="0" style="stop-color:#D0CBC5" id="stop5000"/>
   <stop offset="0.5031" style="stop-color:#FAFCEF" id="stop5002"/>
   <stop offset="0.9693" style="stop-color:#FFFFFF" id="stop5004"/>
  </linearGradient>
  <linearGradient gradientTransform="matrix(1,0,0,-1,-137.48,-203.0195)" id="SVGID_1_-3" y1="-248.71091" x1="170.9805" y2="-213.32761" gradientUnits="userSpaceOnUse" x2="170.9805">
   <stop offset="0" style="stop-color:#D0CBC5" id="stop5102"/>
   <stop offset="0.5031" style="stop-color:#FAFCEF" id="stop5104"/>
   <stop offset="0.9693" style="stop-color:#FFFFFF" id="stop5106"/>
  </linearGradient>
  <linearGradient id="linearGradient5247" y1="51.5" x1="33.5005" y2="5.5005002" gradientUnits="userSpaceOnUse" x2="33.5005">
   <stop offset="0" style="stop-color:#D0CBC5" id="stop5224"/>
   <stop offset="0.5031" style="stop-color:#FAFCEF" id="stop5226"/>
   <stop offset="0.9693" style="stop-color:#FFFFFF" id="stop5228"/>
  </linearGradient>
  <linearGradient id="SVGID_1_-4" y1="51.5" y2="5.5005002" x1="33.5005" x2="33.5005" gradientUnits="userSpaceOnUse">
   <stop offset="0" style="stop-color:#D0CBC5" id="stop5224"/>
   <stop offset="0.5031" style="stop-color:#FAFCEF" id="stop5226"/>
   <stop offset="0.9693" style="stop-color:#FFFFFF" id="stop5228"/>
  </linearGradient>
  <linearGradient gradientTransform="translate(118,-54.5)" id="linearGradient5269" y1="51.5" y2="5.5005002" x1="33.5005" x2="33.5005" gradientUnits="userSpaceOnUse">
   <stop offset="0" style="stop-color:#D0CBC5" id="stop5224"/>
   <stop offset="0.5031" style="stop-color:#FAFCEF" id="stop5226"/>
   <stop offset="0.9693" style="stop-color:#FFFFFF" id="stop5228"/>
  </linearGradient>
  <linearGradient id="linearGradient3878-2" y1="45.617443" x1="33.5005" y2="12.674352" gradientUnits="userSpaceOnUse" x2="33.5005">
   <stop offset="0" style="stop-color:#D0CBC5" id="stop5224-5"/>
   <stop offset="0.5031" style="stop-color:#FAFCEF" id="stop5226-5"/>
   <stop offset="0.9693" style="stop-color:#FFFFFF" id="stop5228-1"/>
  </linearGradient>
  <linearGradient id="SVGID_1_-4-4" y1="51.5" y2="5.5005002" x1="33.5005" x2="33.5005" gradientUnits="userSpaceOnUse">
   <stop offset="0" style="stop-color:#D0CBC5" id="stop5224-5"/>
   <stop offset="0.5031" style="stop-color:#FAFCEF" id="stop5226-5"/>
   <stop offset="0.9693" style="stop-color:#FFFFFF" id="stop5228-1"/>
  </linearGradient>
 </defs>
 <g style="display:inline" id="layer5" transform="translate(0,-27)">
  <rect width="30" x="0" y="27" height="30" style="fill:#000000;fill-opacity:0;stroke:none;display:inline" id="rect3119"/>
 </g>
 <g style="display:inline" id="layer1">
  <path style="fill:#000000;fill-opacity:0.15686275;display:inline" id="path3879" d="m 8.21875,3.5625 c -2.2659676,0.082095 -2.9446957,0.2511086 -4.40625,1 -0.9718269,0.4979578 -1.7522193,0.9929608 -2.34375,1.46875 -0.59153073,0.4757892 -1.1875,0.8987002 -1.1875,1.875 0,0.7095861 0.28032282,1.2850459 0.625,1.875 0.3446772,0.589954 0.8143945,1.160215 1.34375,1.75 1.058711,1.17957 2.3830019,2.325245 3.75,3.0625 0.4424771,0.238638 0.8138559,0.43532 1.21875,0.5625 0.3689035,0.115875 0.8243367,0.132203 1.28125,0 0.027357,0.14804 -0.050769,0.276712 0.03125,0.40625 0.2648823,0.418344 0.5620622,0.50964 0.78125,0.59375 0.4440071,0.170381 0.882532,0.03623 1.3125,-0.0625 3.68e-4,0.212383 -0.08281,0.41733 0,0.59375 0.170089,0.362363 0.369202,0.521761 0.53125,0.65625 0.49792,0.160488 1.52721,0.479148 1.59375,0.5 0.163164,0.4252 0.561035,0.813586 1,0.96875 0.480107,-0.128604 1.186922,0.265252 1.25,0.28125 0.169206,0.384786 0.396445,0.526428 0.53125,0.625 0.48088,0.351628 1.054436,0.339285 1.5625,0.21875 0.096,0.326816 0.175714,0.684887 0.46875,0.875 0.416785,0.270397 0.827341,0.266558 1.15625,0.21875 0.306601,0.415866 0.546065,1.537725 0.71875,2.09375 0.320443,1.080394 0.582293,2.007925 0.65625,2.25 0.0771,0.252337 0.188216,0.464419 0.375,0.65625 0.186784,0.191831 0.478661,0.4375 0.96875,0.4375 0.404969,0 0.787652,-0.205467 1.03125,-0.40625 0.243598,-0.200783 0.419103,-0.43069 0.59375,-0.6875 0.349295,-0.51362 0.693356,-1.171725 1.1875,-2.1875 0.82373,-1.693273 1.080186,-2.047636 2.9375,-3.90625 0.610601,-0.611029 1.172558,-1.208763 1.59375,-1.6875 0.210596,-0.239369 0.388313,-0.433303 0.53125,-0.625 0.07147,-0.09585 0.122226,-0.199653 0.1875,-0.3125 0.06527,-0.112847 0.21875,-0.147482 0.21875,-0.65625 0,-0.479044 -0.288184,-0.897815 -0.5625,-1.125 -0.274316,-0.227185 -0.537736,-0.334106 -0.8125,-0.40625 -0.549529,-0.144288 -1.137985,-0.158338 -1.75,-0.03125 -0.171707,0.03566 -1.324028,0.187041 -2.21875,0.25 -0.409708,0.02883 -0.629251,0.09108 -0.90625,0.125 -0.04904,-0.241298 -0.09464,-0.493072 -0.28125,-0.75 C 22.991734,13.792968 22.585837,13.551958 22.15625,13.5 22.127511,13.208706 22.097801,12.902149 22,12.6875 c -0.112329,-0.246536 -0.223052,-0.475411 -0.46875,-0.71875 -0.369579,-0.04493 -0.663827,-0.442572 -0.75,-0.5 -0.02199,-0.283413 -0.03553,-0.630202 -0.4375,-1.03125 -0.200986,-0.200524 -0.553517,-0.370558 -0.875,-0.375 -0.199342,0.09008 -0.4375,0 -0.65625,0 C 18.83692,9.3763716 18.680473,8.5529303 17.9375,8.09375 17.510019,7.8295517 17.02339,7.8425392 16.6875,7.9375 16.39687,8.1832897 16.581251,7.5975024 16.53125,7.4375 16.47945,7.0794582 16.50191,6.6135818 15.8125,6.1875 15.486609,5.9860885 15.028004,5.8656034 14.625,5.9375 14.221996,6.009397 13.906237,6.214718 13.65625,6.4375 13.300397,7.0066788 13.610333,6.4145413 13.59375,6.40625 13.64949,6.2631166 13.75,6.2052626 13.75,5.78125 13.75,5.2242677 13.504196,5.0559149 13.375,4.90625 13.245804,4.7565851 13.133981,4.6636323 13,4.5625 12.732037,4.3602353 12.412217,4.1546972 12.0625,4 11.579598,3.7863896 11.087769,3.6524566 10.5,3.59375 9.9122312,3.5350434 9.2624643,3.5246847 8.21875,3.5625 z"/>
 </g>
 <g style="display:inline" id="layer4" transform="translate(0,-27)">
  <path style="fill:#000000;fill-opacity:0.31372549;display:inline" id="path1890-1" d="M 21.15581,51.071975 C 21.11053,50.923766 20.809485,49.91245 20.486831,48.824601 l -0.586642,-1.977905 0.675747,-0.819795 c 0.37166,-0.450889 0.675745,-0.943209 0.675745,-1.094042 0,-0.46871 -0.720669,-0.28565 -1.500884,0.381241 -0.849222,0.725879 -1.732742,0.854662 -1.732742,0.252565 0,-0.211971 0.287084,-0.721267 0.637964,-1.13177 0.350881,-0.410504 0.641908,-0.819128 0.646725,-0.908052 0.01921,-0.354361 -0.592055,-0.130376 -1.085431,0.397739 -0.818389,0.876013 -1.573648,1.203374 -2.021236,0.87609 -0.336626,-0.246148 -0.280736,-0.369995 0.618158,-1.369782 0.886617,-0.986131 1.210287,-1.574755 0.865916,-1.574755 -0.06728,0 -0.658225,0.43654 -1.313212,0.970088 -1.280681,1.043235 -2.335769,1.289518 -2.597901,0.60641 -0.09941,-0.259053 0.150611,-0.619014 0.869067,-1.251221 0.958502,-0.843438 1.272316,-1.403153 0.786705,-1.403153 -0.122054,0 -0.704845,0.381732 -1.295087,0.848293 -1.268338,1.002562 -1.839765,1.221388 -2.265908,0.867723 -0.477132,-0.395986 -0.399544,-0.572144 0.764859,-1.736547 0.592832,-0.592832 1.077876,-1.170265 1.077876,-1.283186 0,-0.458091 -0.759853,-0.155944 -1.633858,0.649686 -0.948062,0.873895 -1.777094,1.228712 -2.3538008,1.007409 -0.5062743,-0.194274 -0.3958434,-0.455304 0.6462428,-1.527532 0.533549,-0.548982 0.970089,-1.134436 0.970089,-1.301011 0,-0.404609 -0.840694,-0.974037 -1.4380526,-0.974037 -0.4031928,0 -0.5386473,0.209667 -0.8482068,1.312928 -0.4876268,1.737892 -0.85883,1.882077 -2.5279038,0.981908 -2.408063,-1.298726 -5.1022963,-4.319985 -5.1022963,-5.721612 0,-0.555173 1.0300208,-1.39047 2.8895446,-2.343278 1.4356399,-0.735613 1.6772305,-0.789175 3.9271716,-0.870689 2.0680903,-0.07493 2.5345003,-0.02622 3.3953103,0.354557 0.548835,0.242777 0.997885,0.573835 0.997885,0.735685 0,0.161849 -0.339531,0.858118 -0.754513,1.547265 -0.414982,0.689146 -0.754515,1.388179 -0.754515,1.553407 0,0.281256 1.190326,1.153794 1.57644,1.155571 0.09636,4.5e-4 0.45781,-0.622473 0.803221,-1.38426 0.601368,-1.32629 1.190042,-1.850425 1.71434,-1.526391 0.395537,0.244456 0.240905,2.205032 -0.254305,3.224324 -0.478754,0.985419 -0.427391,1.458486 0.109938,1.012544 0.1624,-0.134781 0.465446,-0.622433 0.673437,-1.083676 0.384664,-0.853035 1.193605,-1.480671 1.591469,-1.234777 0.532491,0.329096 0.497935,1.41201 -0.08663,2.714582 -0.640364,1.426925 -0.526892,1.985 0.202743,0.997124 0.952339,-1.289398 1.181405,-1.528972 1.32508,-1.385872 0.252957,0.251942 -0.963509,2.230263 -2.290811,3.725507 -0.697948,0.786261 -1.268998,1.473433 -1.268998,1.527049 0,0.331449 0.609289,-0.04658 1.628157,-1.010188 1.150608,-1.088197 2.252196,-2.958819 2.252196,-3.824487 0,-0.237477 0.09769,-0.492156 0.217098,-0.565949 0.419077,-0.259005 0.495975,0.611787 0.139068,1.574776 -0.443139,1.195648 -0.334809,1.36609 0.312118,0.491075 0.596786,-0.807201 0.908466,-0.836281 1.236916,-0.115413 0.206716,0.453693 0.175503,0.693904 -0.180974,1.39265 -0.775652,1.520404 -0.396121,2.114267 0.48344,0.756449 0.267862,-0.413515 0.601749,-0.753045 0.741966,-0.754513 0.42696,-0.0045 0.5639,0.873816 0.27346,1.753862 -0.151117,0.457881 -0.20529,0.901979 -0.120388,0.986881 0.209379,0.20938 0.554709,-0.372846 0.558774,-0.942089 0.003,-0.422321 0.147515,-0.472366 1.674008,-0.57977 0.918889,-0.06466 1.984745,-0.182761 2.368568,-0.262463 0.91541,-0.19009 1.781255,0.03925 1.781255,0.471801 0,0.189642 -0.977414,1.322896 -2.172031,2.518349 -1.876185,1.877498 -2.305628,2.448178 -3.152889,4.189822 -0.972393,1.998874 -1.412096,2.639698 -1.811224,2.639698 -0.11382,0 -0.243997,-0.121262 -0.289283,-0.269469 z m 1.304744,-2.441169 c 0.122286,-0.486985 -0.876514,-1.816441 -1.364664,-1.816441 -0.349857,0 -0.347308,0.04268 0.08202,1.372306 0.196556,0.608743 0.397504,1.252321 0.446548,1.430171 0.07217,0.261715 0.149667,0.241166 0.406497,-0.107787 0.174532,-0.237133 0.367852,-0.632345 0.429602,-0.878249 z m 0.731305,-1.70107 c 0,-0.173676 -0.194018,-0.419613 -0.431151,-0.546522 -0.485343,-0.259749 -0.53194,-0.159982 -0.207991,0.445323 0.26315,0.491699 0.639142,0.551232 0.639142,0.101199 z m 0.8623,-1.426881 c 0,-0.256128 -1.087149,-0.691477 -1.269455,-0.508354 -0.184806,0.185635 0.840321,0.981763 1.076334,0.835896 0.106217,-0.06565 0.193121,-0.213037 0.193121,-0.327542 z m 1.23356,-0.98763 c 0.08391,-0.252029 -0.141009,-0.351584 -1.341347,-0.593729 l -0.646726,-0.130464 0.646726,0.543806 c 0.661632,0.556337 1.192415,0.627718 1.341347,0.180387 z m -3.935467,-1.650062 c 0.35908,-0.585692 0.358146,-0.598357 -0.02566,-0.348387 -0.219054,0.14267 -0.730502,0.707201 -1.136553,1.254512 l -0.738272,0.995112 0.763928,-0.646725 c 0.42016,-0.355699 0.931608,-0.920231 1.136551,-1.254512 z m 5.370343,-0.06901 c 0.396143,-0.543459 0.396143,-0.553013 0,-0.442035 -0.222695,0.06239 -0.986949,0.185289 -1.698347,0.273116 l -1.293451,0.15969 0.8623,0.272554 c 1.274733,0.40291 1.680425,0.352744 2.129498,-0.263325 z m -7.81985,-0.139195 c 0.395727,-0.301404 1.352408,-2.084783 1.200083,-2.237108 -0.101803,-0.101805 -0.844803,0.823912 -1.542102,1.921331 -0.395082,0.621789 -0.243502,0.761739 0.342019,0.315777 z m -3.715126,-2.84988 c 0.657009,-0.748292 1.755659,-2.728725 2.062337,-3.717577 0.107622,-0.347023 0.0627,-0.485044 -0.157868,-0.485044 -0.169565,0 -0.607153,0.606305 -0.972419,1.347345 -0.365268,0.741039 -1.057646,1.874161 -1.538621,2.51805 -0.480973,0.643886 -0.874497,1.253603 -0.874497,1.354928 0,0.318651 0.775775,-0.214415 1.481068,-1.017702 z m -2.207128,-1.435289 c 0.717647,-0.764617 2.01951,-3.267874 2.01951,-3.883171 0,-0.640345 -0.422823,-0.658819 -0.66152,-0.0289 -0.468794,1.237124 -1.529859,3.151554 -2.398248,4.327051 -0.825193,1.11702 -0.84587,1.176172 -0.26498,0.75798 0.346532,-0.249472 0.93389,-0.777303 1.305238,-1.172955 z M 8.3040394,38.178118 c 0.1862267,-0.526266 0.5589518,-1.344885 0.8282804,-1.81915 1.2475942,-2.196919 1.6472922,-2.852513 2.1468662,-3.521333 0.692616,-0.92726 0.487587,-1.124541 -1.3683379,-1.316636 -1.704208,-0.176392 -3.1720054,0.0173 -4.8351163,0.638047 -1.161599,0.433558 -2.5802667,1.370756 -2.3635166,1.561383 0.059283,0.05214 0.9566145,0.643457 1.9940702,1.314043 1.0374556,0.670588 1.886283,1.303807 1.886283,1.407159 0,0.103348 -0.1412838,0.305163 -0.3139637,0.448473 -0.255105,0.211719 -0.5474232,0.09339 -1.5592963,-0.631198 -1.352538,-0.968529 -1.8050607,-0.825633 -0.7912751,0.249869 0.8071587,0.856293 3.5465949,2.7898 3.8223981,2.697865 0.11826,-0.03942 0.3673832,-0.502253 0.553608,-1.028522 z M 6.2846041,34.618968 C 6.0982843,34.432651 5.9458428,34.13515 5.9458428,33.957859 c 0,-0.493857 1.0828746,-1.802607 1.4914975,-1.802607 0.9667791,0 1.2191423,1.546251 0.3808913,2.33375 -0.5902623,0.55452 -1.0685417,0.595052 -1.5336279,0.129966 z m 5.9129199,2.266215 c 0,-0.111569 -0.09701,-0.202852 -0.215575,-0.202852 -0.118567,0 -0.215575,0.151239 -0.215575,0.336086 0,0.184847 0.09701,0.27613 0.215575,0.202852 0.118566,-0.07328 0.215575,-0.224518 0.215575,-0.336086 z M 10.904072,36.13067 c 0,-0.05229 -0.09701,-0.09506 -0.215575,-0.09506 -0.118567,0 -0.215575,0.102735 -0.215575,0.228299 0,0.125563 0.09701,0.168342 0.215575,0.09506 0.118567,-0.07328 0.215575,-0.176013 0.215575,-0.228298 z"/>
 </g>
 <linearGradient id="SVGID_1_" y1="43.276402" x1="33.0005" y2="14.7246" gradientUnits="userSpaceOnUse" x2="33.0005">
  <stop offset="0" style="stop-color:#D0CBC5" id="stop13"/>
  <stop offset="0.5031" style="stop-color:#FAFCEF" id="stop15"/>
  <stop offset="0.9693" style="stop-color:#FFFFFF" id="stop17"/>
 </linearGradient>
 <g style="display:inline" id="layer2" transform="translate(0,-27)">
  <path style="fill:#ffffff;fill-opacity:1" id="path1890" d="m 21.15581,52.071975 c -0.04528,-0.148209 -0.346325,-1.159525 -0.668979,-2.247374 l -0.586642,-1.977905 0.675746,-0.819795 c 0.37166,-0.450889 0.675746,-0.943209 0.675746,-1.094042 0,-0.46871 -0.72067,-0.28565 -1.500884,0.381241 -0.849223,0.725879 -1.732743,0.854662 -1.732743,0.252565 0,-0.211971 0.287084,-0.721267 0.637964,-1.13177 0.350882,-0.410504 0.641908,-0.819128 0.646725,-0.908052 0.01921,-0.354361 -0.592055,-0.130376 -1.085431,0.397739 -0.818388,0.876013 -1.573647,1.203374 -2.021235,0.87609 -0.336627,-0.246148 -0.280737,-0.369995 0.618157,-1.369782 0.886618,-0.986131 1.210287,-1.574755 0.865917,-1.574755 -0.06728,0 -0.658225,0.43654 -1.313212,0.970088 -1.280682,1.043235 -2.33577,1.289518 -2.597902,0.60641 -0.09941,-0.259053 0.150611,-0.619014 0.869067,-1.251221 0.958502,-0.843438 1.272316,-1.403153 0.786705,-1.403153 -0.122054,0 -0.704845,0.381732 -1.295087,0.848293 -1.268337,1.002562 -1.839764,1.221388 -2.265907,0.867723 -0.477132,-0.395986 -0.399545,-0.572144 0.764859,-1.736547 0.592832,-0.592832 1.077876,-1.170265 1.077876,-1.283186 0,-0.458091 -0.759853,-0.155944 -1.633858,0.649686 -0.948062,0.873895 -1.777094,1.228712 -2.3538008,1.007409 -0.5062743,-0.194274 -0.3958434,-0.455304 0.6462428,-1.527532 0.533549,-0.548982 0.970089,-1.134436 0.970089,-1.301011 0,-0.404609 -0.840694,-0.974037 -1.4380526,-0.974037 -0.4031928,0 -0.5386473,0.209667 -0.8482068,1.312928 -0.4876268,1.737892 -0.85883,1.882077 -2.5279038,0.981908 -2.408063,-1.298726 -5.1022963,-4.319985 -5.1022963,-5.721612 0,-0.555173 1.0300208,-1.39047 2.8895446,-2.343278 1.4356399,-0.735613 1.6772305,-0.789175 3.9271716,-0.870689 2.0680903,-0.07493 2.5345003,-0.02622 3.3953093,0.354557 0.548835,0.242777 0.997885,0.573835 0.997885,0.735685 0,0.161849 -0.339531,0.858118 -0.754513,1.547265 -0.414982,0.689146 -0.754514,1.388179 -0.754514,1.553407 0,0.281256 1.190325,1.153794 1.576439,1.155571 0.09636,4.5e-4 0.457811,-0.622473 0.803221,-1.38426 0.601368,-1.32629 1.190042,-1.850425 1.71434,-1.526391 0.395537,0.244456 0.240905,2.205032 -0.254305,3.224324 -0.478754,0.985419 -0.427391,1.458486 0.109938,1.012544 0.1624,-0.134781 0.465447,-0.622433 0.673438,-1.083676 0.384665,-0.853035 1.193605,-1.480671 1.591469,-1.234777 0.532492,0.329096 0.497936,1.41201 -0.08663,2.714582 -0.640364,1.426925 -0.526892,1.985 0.202744,0.997124 0.952339,-1.289398 1.181404,-1.528972 1.32508,-1.385872 0.252956,0.251942 -0.963511,2.230263 -2.290813,3.725507 -0.697948,0.786261 -1.268998,1.473433 -1.268998,1.527049 0,0.331449 0.609289,-0.04658 1.628158,-1.010188 1.150609,-1.088197 2.252196,-2.958819 2.252196,-3.824487 0,-0.237477 0.09769,-0.492156 0.217097,-0.565949 0.419079,-0.259005 0.495976,0.611787 0.139068,1.574776 -0.443138,1.195648 -0.334808,1.36609 0.312118,0.491075 0.596787,-0.807201 0.908466,-0.836281 1.236917,-0.115413 0.206715,0.453693 0.175502,0.693904 -0.180974,1.39265 -0.775652,1.520404 -0.396121,2.114267 0.483439,0.756449 0.267862,-0.413515 0.60175,-0.753045 0.741966,-0.754513 0.42696,-0.0045 0.5639,0.873816 0.27346,1.753862 -0.151117,0.457881 -0.20529,0.901979 -0.120388,0.986881 0.209379,0.20938 0.554709,-0.372846 0.558774,-0.942089 0.003,-0.422321 0.147515,-0.472366 1.674008,-0.57977 0.918889,-0.06466 1.984745,-0.182761 2.368568,-0.262463 0.91541,-0.19009 1.781255,0.03925 1.781255,0.471801 0,0.189642 -0.977414,1.322896 -2.172031,2.518349 -1.876185,1.877498 -2.305628,2.448178 -3.152889,4.189822 -0.972393,1.998874 -1.412096,2.639698 -1.811224,2.639698 -0.11382,0 -0.243997,-0.121262 -0.289283,-0.269469 z m 1.304744,-2.441169 c 0.122286,-0.486985 -0.876514,-1.816441 -1.364664,-1.816441 -0.349858,0 -0.347307,0.04268 0.08202,1.372306 0.196557,0.608743 0.397504,1.252321 0.446547,1.430171 0.07217,0.261715 0.149667,0.241166 0.406499,-0.107787 0.17453,-0.237133 0.367852,-0.632345 0.429601,-0.878249 z m 0.731304,-1.70107 c 0,-0.173676 -0.194018,-0.419613 -0.431151,-0.546522 -0.485343,-0.259749 -0.531939,-0.159982 -0.207991,0.445323 0.26315,0.491699 0.639142,0.551232 0.639142,0.101199 z m 0.8623,-1.426881 c 0,-0.256128 -1.087149,-0.691477 -1.269455,-0.508354 -0.184806,0.185635 0.840321,0.981763 1.076334,0.835896 0.106217,-0.06565 0.193121,-0.213037 0.193121,-0.327542 z m 1.23356,-0.98763 c 0.08391,-0.252029 -0.141009,-0.351584 -1.341347,-0.593729 l -0.646726,-0.130464 0.646726,0.543806 c 0.661632,0.556337 1.192415,0.627718 1.341347,0.180387 z m -3.935467,-1.650062 c 0.35908,-0.585692 0.358146,-0.598357 -0.02566,-0.348387 -0.219054,0.14267 -0.730502,0.707201 -1.136553,1.254512 l -0.738272,0.995112 0.763928,-0.646725 c 0.42016,-0.355699 0.931608,-0.920231 1.136551,-1.254512 z m 5.370343,-0.06901 c 0.396143,-0.543459 0.396143,-0.553013 0,-0.442035 -0.222695,0.06239 -0.986949,0.185289 -1.698347,0.273116 l -1.293451,0.15969 0.8623,0.272554 c 1.274733,0.40291 1.680425,0.352744 2.129498,-0.263325 z m -7.81985,-0.139195 c 0.395727,-0.301404 1.352408,-2.084783 1.200083,-2.237108 -0.101803,-0.101805 -0.844803,0.823912 -1.542102,1.921331 -0.395082,0.621789 -0.243502,0.761739 0.342019,0.315777 z m -3.715126,-2.84988 c 0.657009,-0.748292 1.755659,-2.728725 2.062337,-3.717577 0.107622,-0.347023 0.0627,-0.485044 -0.157868,-0.485044 -0.169565,0 -0.607153,0.606305 -0.972419,1.347345 -0.365268,0.741039 -1.057646,1.874161 -1.538621,2.51805 -0.480973,0.643886 -0.874497,1.253603 -0.874497,1.354928 0,0.318651 0.775775,-0.214415 1.481068,-1.017702 z M 12.98049,39.371789 C 13.698137,38.607172 15,36.103915 15,35.488618 c 0,-0.640345 -0.422823,-0.658819 -0.66152,-0.0289 -0.468794,1.237124 -1.529859,3.151554 -2.398248,4.327051 -0.825192,1.11702 -0.845869,1.176172 -0.26498,0.75798 0.346532,-0.249472 0.93389,-0.777303 1.305238,-1.172955 z M 8.3040394,39.178118 c 0.1862267,-0.526266 0.5589518,-1.344885 0.8282804,-1.81915 1.2475942,-2.196919 1.6472922,-2.852513 2.1468662,-3.521333 0.692615,-0.92726 0.487586,-1.124541 -1.3683379,-1.316636 -1.704208,-0.176392 -3.1720054,0.0173 -4.8351163,0.638047 -1.161599,0.433558 -2.5802667,1.370756 -2.3635166,1.561383 0.059283,0.05214 0.9566145,0.643457 1.9940702,1.314043 1.0374556,0.670588 1.886283,1.303807 1.886283,1.407159 0,0.103348 -0.1412838,0.305163 -0.3139637,0.448473 -0.255105,0.211719 -0.5474232,0.09339 -1.5592963,-0.631198 -1.352538,-0.968529 -1.8050607,-0.825633 -0.7912751,0.249869 0.8071587,0.856293 3.5465949,2.7898 3.8223981,2.697865 0.11826,-0.03942 0.3673832,-0.502253 0.553608,-1.028522 z M 6.2846041,35.618968 C 6.0982843,35.432651 5.9458428,35.13515 5.9458428,34.957859 c 0,-0.493857 1.0828746,-1.802607 1.4914975,-1.802607 0.9667791,0 1.2191423,1.546251 0.3808913,2.33375 -0.5902623,0.55452 -1.0685417,0.595052 -1.5336279,0.129966 z m 5.9129189,2.266215 c 0,-0.111569 -0.09701,-0.202852 -0.215575,-0.202852 -0.118567,0 -0.215575,0.151239 -0.215575,0.336086 0,0.184847 0.09701,0.27613 0.215575,0.202852 0.118566,-0.07328 0.215575,-0.224518 0.215575,-0.336086 z M 10.904072,37.13067 c 0,-0.05229 -0.09701,-0.09506 -0.215575,-0.09506 -0.118567,0 -0.215575,0.102735 -0.215575,0.228299 0,0.125563 0.09701,0.168342 0.215575,0.09506 0.118567,-0.07328 0.215575,-0.176013 0.215575,-0.228298 z"/>
 </g>
 <rect width="16.263456" x="130.28442" y="5.9583702" height="0.17677669" style="fill:none;stroke:none" id="rect4949"/>
</svg>
