<?xml version="1.0"?>
<!-- Converted with SVG Converter - Version 0.9.5 (Compiled Mon May 30 09:08:51 2011) - Copyright (C) 2011 Nokia -->
<svg xmlns="http://www.w3.org/2000/svg" width="30" x="0px" y="0px" version="1.1" viewBox="0 0 30 30" height="30" xmlns:xlink="http://www.w3.org/1999/xlink" baseProfile="tiny" id="svg2" xml:space="preserve">
 <metadata id="metadata25"/>
 <defs id="defs4">
  <linearGradient id="linearGradient4941">
   <stop offset="0" style="stop-color:#000000;stop-opacity:1;" id="stop4943"/>
   <stop offset="1" style="stop-color:#000000;stop-opacity:0;" id="stop4945"/>
  </linearGradient>
  <linearGradient id="SVGID_1_-1" y1="43.276402" x1="33.0005" y2="14.7246" gradientUnits="userSpaceOnUse" x2="33.0005">
   <stop offset="0" style="stop-color:#D0CBC5" id="stop13-7"/>
   <stop offset="0.49727899" style="stop-color:#FAFCEF" id="stop15-4"/>
   <stop offset="0.82879829" style="stop-color:#FFFFFF" id="stop17-0"/>
  </linearGradient>
  <linearGradient gradientTransform="matrix(1,0,0,-1,-137.48,-203.0195)" id="SVGID_1_-17" y1="-248.71091" x1="170.9805" y2="-213.32761" gradientUnits="userSpaceOnUse" x2="170.9805">
   <stop offset="0" style="stop-color:#D0CBC5" id="stop3038"/>
   <stop offset="0.96929997" style="stop-color:#FAFCEF" id="stop3040"/>
   <stop offset="0.96929997" style="stop-color:#FFFFFF" id="stop3042"/>
  </linearGradient>
  <linearGradient gradientTransform="matrix(1,0,0,-1,-137.48,-203.0195)" id="linearGradient3069-4" y1="-248.71091" y2="-213.32761" x1="170.9805" x2="170.9805" gradientUnits="userSpaceOnUse">
   <stop offset="0" style="stop-color:#D0CBC5" id="stop3038-9"/>
   <stop offset="0.5031" style="stop-color:#FAFCEF" id="stop3040-4"/>
   <stop offset="0.9693" style="stop-color:#FFFFFF" id="stop3042-8"/>
  </linearGradient>
  <linearGradient gradientTransform="matrix(1,0,0,-1,-137.48,-203.0195)" id="SVGID_1_-17-0" y1="-248.71091" x1="170.9805" y2="-213.32761" gradientUnits="userSpaceOnUse" x2="170.9805">
   <stop offset="0" style="stop-color:#D0CBC5" id="stop3038-9"/>
   <stop offset="0.5031" style="stop-color:#FAFCEF" id="stop3040-4"/>
   <stop offset="0.9693" style="stop-color:#FFFFFF" id="stop3042-8"/>
  </linearGradient>
  <linearGradient id="linearGradient5023" y1="51.5" x1="33.5005" y2="5.5005002" gradientUnits="userSpaceOnUse" x2="33.5005">
   <stop offset="0" style="stop-color:#D0CBC5" id="stop5000"/>
   <stop offset="0.5031" style="stop-color:#FAFCEF" id="stop5002"/>
   <stop offset="0.9693" style="stop-color:#FFFFFF" id="stop5004"/>
  </linearGradient>
  <linearGradient id="SVGID_1_-8" y1="51.5" y2="5.5005002" x1="33.5005" x2="33.5005" gradientUnits="userSpaceOnUse">
   <stop offset="0" style="stop-color:#D0CBC5" id="stop5000"/>
   <stop offset="0.5031" style="stop-color:#FAFCEF" id="stop5002"/>
   <stop offset="0.9693" style="stop-color:#FFFFFF" id="stop5004"/>
  </linearGradient>
  <linearGradient gradientTransform="matrix(1,0,0,-1,-137.48,-203.0195)" id="SVGID_1_-3" y1="-248.71091" x1="170.9805" y2="-213.32761" gradientUnits="userSpaceOnUse" x2="170.9805">
   <stop offset="0" style="stop-color:#D0CBC5" id="stop5102"/>
   <stop offset="0.5031" style="stop-color:#FAFCEF" id="stop5104"/>
   <stop offset="0.9693" style="stop-color:#FFFFFF" id="stop5106"/>
  </linearGradient>
  <linearGradient id="linearGradient5247" y1="51.5" x1="33.5005" y2="5.5005002" gradientUnits="userSpaceOnUse" x2="33.5005">
   <stop offset="0" style="stop-color:#D0CBC5" id="stop5224"/>
   <stop offset="0.5031" style="stop-color:#FAFCEF" id="stop5226"/>
   <stop offset="0.9693" style="stop-color:#FFFFFF" id="stop5228"/>
  </linearGradient>
  <linearGradient id="SVGID_1_-4" y1="51.5" y2="5.5005002" x1="33.5005" x2="33.5005" gradientUnits="userSpaceOnUse">
   <stop offset="0" style="stop-color:#D0CBC5" id="stop5224"/>
   <stop offset="0.5031" style="stop-color:#FAFCEF" id="stop5226"/>
   <stop offset="0.9693" style="stop-color:#FFFFFF" id="stop5228"/>
  </linearGradient>
  <linearGradient gradientTransform="translate(118,-54.5)" id="linearGradient5269" y1="51.5" y2="5.5005002" x1="33.5005" x2="33.5005" gradientUnits="userSpaceOnUse">
   <stop offset="0" style="stop-color:#D0CBC5" id="stop5224"/>
   <stop offset="0.5031" style="stop-color:#FAFCEF" id="stop5226"/>
   <stop offset="0.9693" style="stop-color:#FFFFFF" id="stop5228"/>
  </linearGradient>
  <linearGradient id="linearGradient3878-2" y1="45.617443" x1="33.5005" y2="12.674352" gradientUnits="userSpaceOnUse" x2="33.5005">
   <stop offset="0" style="stop-color:#D0CBC5" id="stop5224-5"/>
   <stop offset="0.5031" style="stop-color:#FAFCEF" id="stop5226-5"/>
   <stop offset="0.9693" style="stop-color:#FFFFFF" id="stop5228-1"/>
  </linearGradient>
  <linearGradient id="SVGID_1_-4-4" y1="51.5" y2="5.5005002" x1="33.5005" x2="33.5005" gradientUnits="userSpaceOnUse">
   <stop offset="0" style="stop-color:#D0CBC5" id="stop5224-5"/>
   <stop offset="0.5031" style="stop-color:#FAFCEF" id="stop5226-5"/>
   <stop offset="0.9693" style="stop-color:#FFFFFF" id="stop5228-1"/>
  </linearGradient>
 </defs>
 <g style="display:inline" id="layer5" transform="translate(0,-27)">
  <rect width="30" x="0" y="27" height="30" style="fill:#000000;fill-opacity:0;stroke:none;display:inline" id="rect3119"/>
 </g>
 <g style="display:inline" id="layer1">
  <path style="font-size:36px;font-style:normal;font-variant:normal;font-weight:normal;font-stretch:normal;text-align:center;line-height:125%;letter-spacing:0px;word-spacing:0px;text-anchor:middle;fill:#000000;fill-opacity:0.15686275;stroke:none;display:inline;font-family:Cambria Math;-inkscape-font-specification:Cambria Math" id="path3861" d="m 17.6875,1.75  c -0.5154 0.0486 -0.9085 0.4824 -0.9063 1.0000 l 0,10.65625 -2.8125,0 0,-3.28125 a 1.0001,1.0001 0 0 0 -1.6875,-0.75 l -9.3125,8.5625 a 1.0001,1.0001 0 0 0 0,1.5 L 12.28125,28 a 1.0001,1.0001 0 0 0 1.6875,-0.75 l 0,-3.28125 12.375,0 a 1.0001,1.0001 0 0 0 1,-1 l 0,-20.21875 a 1.0001,1.0001 0 0 0 -1,-1 l -8.5625,0 a 1.0001,1.0001 0 0 0 -0.09375,0 z m 2.5,3.40625 3.75,0 0,15.40625 -12.34375,0 a 1.0001,1.0001 0 0 0 -1,1 l 0,0.125 L 7.375,18.71875 10.59375,15.75 l 0,0.0625 a 1.0001,1.0001 0 0 0 1,1 l 7.59375,0 a 1.0001,1.0001 0 0 0 1,-1 l 0,-10.65625 z"/>
 </g>
 <g style="display:inline" id="layer4" transform="translate(0,-27)"/>
 <linearGradient id="SVGID_1_" y1="43.276402" x1="33.0005" y2="14.7246" gradientUnits="userSpaceOnUse" x2="33.0005">
  <stop offset="0" style="stop-color:#D0CBC5" id="stop13"/>
  <stop offset="0.5031" style="stop-color:#FAFCEF" id="stop15"/>
  <stop offset="0.9693" style="stop-color:#FFFFFF" id="stop17"/>
 </linearGradient>
 <g style="display:inline" id="layer2" transform="translate(0,-27)">
  <g style="font-size:36px;font-style:normal;font-variant:normal;font-weight:normal;font-stretch:normal;text-align:center;line-height:125%;letter-spacing:0px;word-spacing:0px;text-anchor:middle;fill:#282828;fill-opacity:1;stroke:none;font-family:Cambria Math;-inkscape-font-specification:Cambria Math" id="text3807">
   <path style="fill:#282828;fill-opacity:1" id="path3186" d="m 3.6708984,45.700195 9.2988286,-8.578125 0,4.289063 4.798828,0 0,-11.671875 8.560547,0 0,20.232422 -13.359375,0 0,4.289062 z m 2.2324219,0 5.6777347,5.25586 0,-2.390625 13.341797,0 0,-17.419922 -5.748047,0 0,11.671875 -7.59375,0 0,-2.390625 z"/>
  </g>
 </g>
 <rect width="16.263456" x="130.28442" y="5.9583702" height="0.17677669" style="fill:none;stroke:none" id="rect4949"/>
</svg>
