<?xml version="1.0" encoding="UTF-8" standalone="no"?>
<!-- Generator: Adobe Illustrator 14.0.0, SVG Export Plug-In  -->

<svg
   xmlns:dc="http://purl.org/dc/elements/1.1/"
   xmlns:cc="http://creativecommons.org/ns#"
   xmlns:rdf="http://www.w3.org/1999/02/22-rdf-syntax-ns#"
   xmlns:svg="http://www.w3.org/2000/svg"
   xmlns="http://www.w3.org/2000/svg"
   xmlns:xlink="http://www.w3.org/1999/xlink"
   xmlns:sodipodi="http://sodipodi.sourceforge.net/DTD/sodipodi-0.dtd"
   xmlns:inkscape="http://www.inkscape.org/namespaces/inkscape"
   version="1.1"
   x="0px"
   y="0px"
   width="30"
   height="30"
   viewBox="0 0 30 30"
   enable-background="new 0 0 67 57"
   xml:space="preserve"
   id="svg2"
   inkscape:version="0.48.2 r9819"
   sodipodi:docname="icon-connect.svg"
   style="display:inline"><metadata
   id="metadata25"><rdf:RDF><cc:Work
       rdf:about=""><dc:format>image/svg+xml</dc:format><dc:type
         rdf:resource="http://purl.org/dc/dcmitype/StillImage" /><dc:title></dc:title></cc:Work></rdf:RDF></metadata><sodipodi:namedview
   pagecolor="#ffffff"
   bordercolor="#666666"
   borderopacity="1"
   objecttolerance="10"
   gridtolerance="10"
   guidetolerance="10"
   inkscape:pageopacity="0"
   inkscape:pageshadow="2"
   inkscape:window-width="1366"
   inkscape:window-height="706"
   id="namedview23"
   showgrid="true"
   inkscape:zoom="16"
   inkscape:cx="11.482234"
   inkscape:cy="14.418028"
   inkscape:window-x="-8"
   inkscape:window-y="-8"
   inkscape:window-maximized="1"
   inkscape:current-layer="layer2"
   showguides="true"
   inkscape:guide-bbox="true"><inkscape:grid
     type="xygrid"
     id="grid3826"
     empspacing="5"
     visible="true"
     enabled="true"
     snapvisiblegridlinesonly="true" /></sodipodi:namedview>
<defs
   id="defs4"><linearGradient
   id="linearGradient4941"><stop
     style="stop-color:#000000;stop-opacity:1;"
     offset="0"
     id="stop4943" /><stop
     style="stop-color:#000000;stop-opacity:0;"
     offset="1"
     id="stop4945" /></linearGradient>
<linearGradient
   id="SVGID_1_-1"
   gradientUnits="userSpaceOnUse"
   x1="33.0005"
   y1="43.276402"
   x2="33.0005"
   y2="14.7246"><stop
     offset="0"
     style="stop-color:#D0CBC5"
     id="stop13-7" /><stop
     offset="0.49727899"
     style="stop-color:#FAFCEF"
     id="stop15-4" /><stop
     offset="0.82879829"
     style="stop-color:#FFFFFF"
     id="stop17-0" /></linearGradient><linearGradient
   id="SVGID_1_-17"
   gradientUnits="userSpaceOnUse"
   x1="170.9805"
   y1="-248.71091"
   x2="170.9805"
   y2="-213.32761"
   gradientTransform="matrix(1,0,0,-1,-137.48,-203.0195)"><stop
     offset="0"
     style="stop-color:#D0CBC5"
     id="stop3038" /><stop
     offset="0.96929997"
     style="stop-color:#FAFCEF"
     id="stop3040" /><stop
     offset="0.96929997"
     style="stop-color:#FFFFFF"
     id="stop3042" /></linearGradient><linearGradient
   y2="-213.32761"
   x2="170.9805"
   y1="-248.71091"
   x1="170.9805"
   gradientTransform="matrix(1,0,0,-1,-137.48,-203.0195)"
   gradientUnits="userSpaceOnUse"
   id="linearGradient3069-4"
   xlink:href="#SVGID_1_-17-0"
   inkscape:collect="always" /><linearGradient
   id="SVGID_1_-17-0"
   gradientUnits="userSpaceOnUse"
   x1="170.9805"
   y1="-248.71091"
   x2="170.9805"
   y2="-213.32761"
   gradientTransform="matrix(1,0,0,-1,-137.48,-203.0195)"><stop
     offset="0"
     style="stop-color:#D0CBC5"
     id="stop3038-9" /><stop
     offset="0.5031"
     style="stop-color:#FAFCEF"
     id="stop3040-4" /><stop
     offset="0.9693"
     style="stop-color:#FFFFFF"
     id="stop3042-8" /></linearGradient><linearGradient
   inkscape:collect="always"
   xlink:href="#SVGID_1_-8"
   id="linearGradient5023"
   gradientUnits="userSpaceOnUse"
   x1="33.5005"
   y1="51.5"
   x2="33.5005"
   y2="5.5005002" /><linearGradient
   y2="5.5005002"
   x2="33.5005"
   y1="51.5"
   x1="33.5005"
   gradientUnits="userSpaceOnUse"
   id="SVGID_1_-8"><stop
     id="stop5000"
     style="stop-color:#D0CBC5"
     offset="0" /><stop
     id="stop5002"
     style="stop-color:#FAFCEF"
     offset="0.5031" /><stop
     id="stop5004"
     style="stop-color:#FFFFFF"
     offset="0.9693" /></linearGradient><linearGradient
   id="SVGID_1_-3"
   gradientUnits="userSpaceOnUse"
   x1="170.9805"
   y1="-248.71091"
   x2="170.9805"
   y2="-213.32761"
   gradientTransform="matrix(1,0,0,-1,-137.48,-203.0195)"><stop
     offset="0"
     style="stop-color:#D0CBC5"
     id="stop5102" /><stop
     offset="0.5031"
     style="stop-color:#FAFCEF"
     id="stop5104" /><stop
     offset="0.9693"
     style="stop-color:#FFFFFF"
     id="stop5106" /></linearGradient><linearGradient
   inkscape:collect="always"
   xlink:href="#SVGID_1_-4"
   id="linearGradient5247"
   gradientUnits="userSpaceOnUse"
   x1="33.5005"
   y1="51.5"
   x2="33.5005"
   y2="5.5005002" /><linearGradient
   y2="5.5005002"
   x2="33.5005"
   y1="51.5"
   x1="33.5005"
   gradientUnits="userSpaceOnUse"
   id="SVGID_1_-4"><stop
     id="stop5224"
     style="stop-color:#D0CBC5"
     offset="0" /><stop
     id="stop5226"
     style="stop-color:#FAFCEF"
     offset="0.5031" /><stop
     id="stop5228"
     style="stop-color:#FFFFFF"
     offset="0.9693" /></linearGradient><linearGradient
   gradientTransform="translate(118,-54.5)"
   y2="5.5005002"
   x2="33.5005"
   y1="51.5"
   x1="33.5005"
   gradientUnits="userSpaceOnUse"
   id="linearGradient5269"
   xlink:href="#SVGID_1_-4"
   inkscape:collect="always" /><filter
   id="filter5326"
   inkscape:label="filter1"
   color-interpolation-filters="sRGB" /><linearGradient
   inkscape:collect="always"
   xlink:href="#SVGID_1_-4-4"
   id="linearGradient3878-2"
   gradientUnits="userSpaceOnUse"
   x1="33.5005"
   y1="45.617443"
   x2="33.5005"
   y2="12.674352" /><linearGradient
   y2="5.5005002"
   x2="33.5005"
   y1="51.5"
   x1="33.5005"
   gradientUnits="userSpaceOnUse"
   id="SVGID_1_-4-4"><stop
     id="stop5224-5"
     style="stop-color:#D0CBC5"
     offset="0" /><stop
     id="stop5226-5"
     style="stop-color:#FAFCEF"
     offset="0.5031" /><stop
     id="stop5228-1"
     style="stop-color:#FFFFFF"
     offset="0.9693" /></linearGradient></defs>
<g
   inkscape:groupmode="layer"
   id="layer5"
   inkscape:label="DO NOT EDIT - Bounding Box"
   style="display:inline"
   transform="translate(0,-27)"
   sodipodi:insensitive="true"><rect
     style="fill:#000000;fill-opacity:0;stroke:none;display:inline"
     id="rect3119"
     width="30"
     height="30"
     x="0"
     y="27" /></g><g
   inkscape:groupmode="layer"
   id="layer1"
   inkscape:label="CREATE YOUR LIGHT SHADOW HERE"
   style="display:inline"><path
     sodipodi:type="inkscape:offset"
     inkscape:radius="1.1267347"
     inkscape:original="M 4.25 2.1875 C 2.8636477 2.22193 2.1568356 4.134852 3.1875 5.0625 L 7.5625 9.625 C 5.6031188 11.93372 3.9851159 14.66802 3.625 17.71875 C 3.5131412 19.122539 4.3891276 20.249254 5.34375 21.15625 C 6.6357488 22.473154 7.8806158 23.856816 9.21875 25.125 C 10.65205 26.293566 12.901197 25.962691 14 24.5 C 14.294814 23.934375 14.612266 24.184502 14.90625 24.59375 C 15.867865 25.579959 16.761853 26.636301 17.75 27.59375 C 18.574363 28.23575 19.857151 27.282491 19.46875 26.3125 C 19.047212 25.549728 18.311261 25.007496 17.75 24.34375 L 15.96875 22.46875 L 22.15625 16 C 23.280672 17.147557 24.350403 18.34864 25.5 19.46875 C 26.324363 20.11075 27.607151 19.157491 27.21875 18.1875 C 26.797558 17.424396 26.063493 16.880356 25.5 16.21875 L 23.71875 14.375 C 24.636842 13.515736 25.482655 12.424656 25.40625 11.09375 C 25.46086 9.7324014 24.554148 8.633086 23.625 7.75 C 22.322358 6.425943 21.114192 5.04022 19.75 3.78125 C 18.456889 2.704894 16.7617 3.129678 15.375 3.71875 C 13.309182 4.450345 11.490879 5.763614 9.875 7.21875 C 8.3605452 5.658225 6.8828702 4.065574 5.34375 2.53125 C 5.0321207 2.29608 4.6394552 2.168532 4.25 2.1875 z "
     style="font-size:medium;font-style:normal;font-variant:normal;font-weight:normal;font-stretch:normal;text-indent:0;text-align:start;text-decoration:none;line-height:normal;letter-spacing:normal;word-spacing:normal;text-transform:none;direction:ltr;block-progression:tb;writing-mode:lr-tb;text-anchor:start;baseline-shift:baseline;opacity:0.4;color:#000000;fill:#000000;fill-opacity:1;fill-rule:nonzero;stroke:none;stroke-width:2.39840531;marker:none;visibility:visible;display:inline;overflow:visible;enable-background:accumulate;font-family:Sans;-inkscape-font-specification:Sans"
     id="path4625"
     d="M 4.1875,1.0625 C 1.8324082,1.1485485 0.73210876,4.1855198 2.40625,5.8125 L 2.375,5.84375 2.4375,5.90625 6.125,9.75 C 4.3654911,11.998158 2.8544215,14.59126 2.5,17.59375 a 1.1268474,1.1268474 0 0 0 0,0.03125 c -0.1512101,1.897634 0.9958315,3.322635 2.03125,4.3125 0.00985,0.0094 0.021426,0.02192 0.03125,0.03125 1.2588044,1.284882 2.5040285,2.669445 3.875,3.96875 A 1.1268474,1.1268474 0 0 0 8.5,26 c 1.767723,1.441221 4.293086,1.166697 5.875,-0.34375 0.833717,0.876665 1.651206,1.836737 2.59375,2.75 a 1.1268474,1.1268474 0 0 0 0.09375,0.0625 c 1.697998,1.322372 4.238836,-0.561246 3.4375,-2.5625 a 1.1268474,1.1268474 0 0 0 -0.03125,-0.125 C 19.888015,24.730412 19.068051,24.148951 18.625,23.625 a 1.1268474,1.1268474 0 0 0 -0.0625,-0.0625 l -1.03125,-1.09375 4.625,-4.84375 c 0.831688,0.877108 1.660917,1.777793 2.5625,2.65625 a 1.1268474,1.1268474 0 0 0 0.09375,0.0625 c 1.697998,1.322372 4.238836,-0.561246 3.4375,-2.5625 a 1.1268474,1.1268474 0 0 0 -0.03125,-0.125 C 27.639404,16.606608 26.791744,16.025997 26.34375,15.5 A 1.1268474,1.1268474 0 0 0 26.3125,15.4375 l -1.09375,-1.125 C 25.940825,13.461408 26.541568,12.455837 26.5,11.125 l 0.03125,0 c -3.71e-4,-0.01117 4.62e-4,-0.02005 0,-0.03125 -9.25e-4,-0.0224 0.0013,-0.03996 0,-0.0625 l -0.03125,0 C 26.525393,9.2210757 25.414187,7.9013419 24.4375,6.96875 24.427491,6.958576 24.416253,6.9476873 24.40625,6.9375 23.145779,5.6538141 21.91215,4.2719789 20.5,2.96875 A 1.1268474,1.1268474 0 0 0 20.46875,2.90625 C 19.58011,2.1665666 18.494329,1.9425211 17.53125,2 16.592728,2.0560133 15.742463,2.344472 15,2.65625 c -0.02243,0.00794 -0.04014,0.02319 -0.0625,0.03125 C 13.047387,3.3688192 11.437162,4.4930259 9.96875,5.71875 8.702184,4.3991203 7.4433259,3.0329677 6.125,1.71875 A 1.1268474,1.1268474 0 0 0 6.03125,1.625 C 5.5207595,1.2397601 4.8786277,1.0377401 4.21875,1.0625 c -0.010393,3.9e-4 -0.02084,-5.07e-4 -0.03125,0 z" /></g><g
   inkscape:groupmode="layer"
   id="layer4"
   inkscape:label="CREATE YOUR DARK SHADOW HERE"
   style="display:inline"
   transform="translate(0,-27)"><path
     style="font-size:medium;font-style:normal;font-variant:normal;font-weight:normal;font-stretch:normal;text-indent:0;text-align:start;text-decoration:none;line-height:normal;letter-spacing:normal;word-spacing:normal;text-transform:none;direction:ltr;block-progression:tb;writing-mode:lr-tb;text-anchor:start;baseline-shift:baseline;opacity:0.8;color:#000000;fill:#000000;fill-opacity:1;fill-rule:nonzero;stroke:none;stroke-width:2.39840531;marker:none;visibility:visible;display:inline;overflow:visible;enable-background:accumulate;font-family:Sans;-inkscape-font-specification:Sans"
     d="m 4.25,28.1875 c -1.3863523,0.03443 -2.0931644,1.947352 -1.0625,2.875 1.4583333,1.520833 2.9166667,3.041667 4.375,4.5625 -1.9593812,2.30872 -3.5878578,5.051992 -3.9479737,8.102722 -0.1118588,1.403789 0.7874116,2.532305 1.742034,3.439301 1.2919988,1.316904 2.517226,2.704378 3.8553602,3.972562 1.4333005,1.168566 3.7024515,0.827798 4.8012545,-0.634893 0.294814,-0.565625 0.588926,-0.306343 0.88291,0.102905 0.961615,0.986209 1.880924,2.0183 2.869071,2.975749 0.824363,0.642 2.097944,-0.316165 1.709543,-1.286156 -0.421538,-0.762772 -1.164886,-1.299325 -1.726147,-1.963071 -0.593267,-0.62179 -1.186535,-1.243579 -1.779802,-1.865369 2.0625,-2.15625 4.125,-4.3125 6.1875,-6.46875 1.124422,1.147557 2.209309,2.338236 3.358906,3.458346 0.824363,0.642 2.097944,-0.316165 1.709543,-1.286156 -0.421192,-0.763104 -1.169733,-1.294679 -1.733226,-1.956285 -0.590908,-0.613635 -1.181815,-1.22727 -1.772723,-1.840905 0.918092,-0.859264 1.755591,-1.950344 1.679186,-3.28125 0.05461,-1.361349 -0.829193,-2.449562 -1.758341,-3.332648 -1.302642,-1.324057 -2.525241,-2.732989 -3.889433,-3.991959 -1.293111,-1.076356 -3.002333,-0.642662 -4.389033,-0.05359 C 13.295311,30.447148 11.490879,31.763614 9.875,33.21875 8.3605452,31.658225 6.8847489,30.056628 5.3456287,28.522304 5.0339994,28.287134 4.6394552,28.168532 4.25,28.1875 z"
     id="rect4422-1"
     inkscape:connector-curvature="0"
     sodipodi:nodetypes="cccccccccccccccccccccccc" /></g>


<linearGradient
   id="SVGID_1_"
   gradientUnits="userSpaceOnUse"
   x1="33.0005"
   y1="43.276402"
   x2="33.0005"
   y2="14.7246">
	<stop
   offset="0"
   style="stop-color:#D0CBC5"
   id="stop13" />
	<stop
   offset="0.5031"
   style="stop-color:#FAFCEF"
   id="stop15" />
	<stop
   offset="0.9693"
   style="stop-color:#FFFFFF"
   id="stop17" />
</linearGradient>


<g
   inkscape:groupmode="layer"
   id="layer2"
   inkscape:label="PLACE YOUR GRAPHIC HERE"
   style="display:inline"
   transform="translate(0,-27)"><path
     style="font-size:medium;font-style:normal;font-variant:normal;font-weight:normal;font-stretch:normal;text-indent:0;text-align:start;text-decoration:none;line-height:normal;letter-spacing:normal;word-spacing:normal;text-transform:none;direction:ltr;block-progression:tb;writing-mode:lr-tb;text-anchor:start;baseline-shift:baseline;color:#000000;fill:#ffffff;fill-opacity:1;fill-rule:nonzero;stroke:none;stroke-width:2.39840530999999980;marker:none;visibility:visible;display:inline;overflow:visible;enable-background:accumulate;font-family:Sans;-inkscape-font-specification:Sans"
     d="m 4.25,29.1875 c -1.3863523,0.03443 -2.0931644,1.947352 -1.0625,2.875 1.4583333,1.520833 2.9166667,3.041667 4.375,4.5625 -1.9593812,2.30872 -3.5878578,5.051992 -3.9479737,8.102722 -0.1118588,1.403789 0.7874116,2.532305 1.742034,3.439301 1.2919988,1.316904 2.517226,2.704378 3.8553602,3.972562 1.4333005,1.168566 3.7024515,0.827798 4.8012545,-0.634893 0.294814,-0.565625 0.588926,-0.306343 0.88291,0.102905 0.961615,0.986209 1.880924,2.0183 2.869071,2.975749 0.824363,0.642 2.097944,-0.316165 1.709543,-1.286156 -0.421538,-0.762772 -1.164886,-1.299325 -1.726147,-1.963071 -0.593267,-0.62179 -1.186535,-1.243579 -1.779802,-1.865369 2.0625,-2.15625 4.125,-4.3125 6.1875,-6.46875 1.124422,1.147557 2.209309,2.338236 3.358906,3.458346 0.824363,0.642 2.097944,-0.316165 1.709543,-1.286156 -0.421192,-0.763104 -1.169733,-1.294679 -1.733226,-1.956285 -0.590908,-0.613635 -1.181815,-1.22727 -1.772723,-1.840905 0.918092,-0.859264 1.755591,-1.950344 1.679186,-3.28125 0.05461,-1.361349 -0.829193,-2.449562 -1.758341,-3.332648 -1.302642,-1.324057 -2.525241,-2.732989 -3.889433,-3.991959 -1.293111,-1.076356 -3.002333,-0.642662 -4.389033,-0.05359 C 13.295311,31.447148 11.490879,32.763614 9.875,34.21875 8.3605452,32.658225 6.8847489,31.056628 5.3456287,29.522304 5.0339994,29.287134 4.6394552,29.168532 4.25,29.1875 z"
     id="rect4422"
     inkscape:connector-curvature="0"
     sodipodi:nodetypes="cccccccccccccccccccccccc" /><path
     style="fill:#ff0000;stroke:#ff0000;stroke-width:3;stroke-linecap:round;stroke-linejoin:miter;stroke-opacity:1;stroke-miterlimit:4;stroke-dasharray:none"
     d="M 2,28 28,2"
     id="path4627"
     inkscape:connector-curvature="0"
     transform="translate(0,27)" /></g><rect
   style="fill:none;stroke:none"
   id="rect4949"
   width="16.263456"
   height="0.17677669"
   x="130.28442"
   y="5.9583702" /></svg>