<?xml version="1.0"?>
<!-- Converted with SVG Converter - Version 0.9.5 (Compiled Mon May 30 09:08:51 2011) - Copyright (C) 2011 Nokia -->
<svg xmlns="http://www.w3.org/2000/svg" width="30" x="0px" y="0px" version="1.1" viewBox="0 0 30 30" height="30" xmlns:xlink="http://www.w3.org/1999/xlink" baseProfile="tiny" id="svg2" xml:space="preserve">
 <metadata id="metadata25"/>
 <defs id="defs4">
  <linearGradient id="linearGradient4941">
   <stop offset="0" style="stop-color:#000000;stop-opacity:1;" id="stop4943"/>
   <stop offset="1" style="stop-color:#000000;stop-opacity:0;" id="stop4945"/>
  </linearGradient>
  <linearGradient id="SVGID_1_-1" y1="43.276402" x1="33.0005" y2="14.7246" gradientUnits="userSpaceOnUse" x2="33.0005">
   <stop offset="0" style="stop-color:#D0CBC5" id="stop13-7"/>
   <stop offset="0.49727899" style="stop-color:#FAFCEF" id="stop15-4"/>
   <stop offset="0.82879829" style="stop-color:#FFFFFF" id="stop17-0"/>
  </linearGradient>
  <linearGradient gradientTransform="matrix(1,0,0,-1,-137.48,-203.0195)" id="SVGID_1_-17" y1="-248.71091" x1="170.9805" y2="-213.32761" gradientUnits="userSpaceOnUse" x2="170.9805">
   <stop offset="0" style="stop-color:#D0CBC5" id="stop3038"/>
   <stop offset="0.96929997" style="stop-color:#FAFCEF" id="stop3040"/>
   <stop offset="0.96929997" style="stop-color:#FFFFFF" id="stop3042"/>
  </linearGradient>
  <linearGradient gradientTransform="matrix(1,0,0,-1,-137.48,-203.0195)" id="linearGradient3069-4" y1="-248.71091" y2="-213.32761" x1="170.9805" x2="170.9805" gradientUnits="userSpaceOnUse">
   <stop offset="0" style="stop-color:#D0CBC5" id="stop3038-9"/>
   <stop offset="0.5031" style="stop-color:#FAFCEF" id="stop3040-4"/>
   <stop offset="0.9693" style="stop-color:#FFFFFF" id="stop3042-8"/>
  </linearGradient>
  <linearGradient gradientTransform="matrix(1,0,0,-1,-137.48,-203.0195)" id="SVGID_1_-17-0" y1="-248.71091" x1="170.9805" y2="-213.32761" gradientUnits="userSpaceOnUse" x2="170.9805">
   <stop offset="0" style="stop-color:#D0CBC5" id="stop3038-9"/>
   <stop offset="0.5031" style="stop-color:#FAFCEF" id="stop3040-4"/>
   <stop offset="0.9693" style="stop-color:#FFFFFF" id="stop3042-8"/>
  </linearGradient>
  <linearGradient id="linearGradient5023" y1="51.5" x1="33.5005" y2="5.5005002" gradientUnits="userSpaceOnUse" x2="33.5005">
   <stop offset="0" style="stop-color:#D0CBC5" id="stop5000"/>
   <stop offset="0.5031" style="stop-color:#FAFCEF" id="stop5002"/>
   <stop offset="0.9693" style="stop-color:#FFFFFF" id="stop5004"/>
  </linearGradient>
  <linearGradient id="SVGID_1_-8" y1="51.5" y2="5.5005002" x1="33.5005" x2="33.5005" gradientUnits="userSpaceOnUse">
   <stop offset="0" style="stop-color:#D0CBC5" id="stop5000"/>
   <stop offset="0.5031" style="stop-color:#FAFCEF" id="stop5002"/>
   <stop offset="0.9693" style="stop-color:#FFFFFF" id="stop5004"/>
  </linearGradient>
  <linearGradient gradientTransform="matrix(1,0,0,-1,-137.48,-203.0195)" id="SVGID_1_-3" y1="-248.71091" x1="170.9805" y2="-213.32761" gradientUnits="userSpaceOnUse" x2="170.9805">
   <stop offset="0" style="stop-color:#D0CBC5" id="stop5102"/>
   <stop offset="0.5031" style="stop-color:#FAFCEF" id="stop5104"/>
   <stop offset="0.9693" style="stop-color:#FFFFFF" id="stop5106"/>
  </linearGradient>
  <linearGradient id="linearGradient5247" y1="51.5" x1="33.5005" y2="5.5005002" gradientUnits="userSpaceOnUse" x2="33.5005">
   <stop offset="0" style="stop-color:#D0CBC5" id="stop5224"/>
   <stop offset="0.5031" style="stop-color:#FAFCEF" id="stop5226"/>
   <stop offset="0.9693" style="stop-color:#FFFFFF" id="stop5228"/>
  </linearGradient>
  <linearGradient id="SVGID_1_-4" y1="51.5" y2="5.5005002" x1="33.5005" x2="33.5005" gradientUnits="userSpaceOnUse">
   <stop offset="0" style="stop-color:#D0CBC5" id="stop5224"/>
   <stop offset="0.5031" style="stop-color:#FAFCEF" id="stop5226"/>
   <stop offset="0.9693" style="stop-color:#FFFFFF" id="stop5228"/>
  </linearGradient>
  <linearGradient gradientTransform="translate(118,-54.5)" id="linearGradient5269" y1="51.5" y2="5.5005002" x1="33.5005" x2="33.5005" gradientUnits="userSpaceOnUse">
   <stop offset="0" style="stop-color:#D0CBC5" id="stop5224"/>
   <stop offset="0.5031" style="stop-color:#FAFCEF" id="stop5226"/>
   <stop offset="0.9693" style="stop-color:#FFFFFF" id="stop5228"/>
  </linearGradient>
  <linearGradient id="linearGradient3878-2" y1="45.617443" x1="33.5005" y2="12.674352" gradientUnits="userSpaceOnUse" x2="33.5005">
   <stop offset="0" style="stop-color:#D0CBC5" id="stop5224-5"/>
   <stop offset="0.5031" style="stop-color:#FAFCEF" id="stop5226-5"/>
   <stop offset="0.9693" style="stop-color:#FFFFFF" id="stop5228-1"/>
  </linearGradient>
  <linearGradient id="SVGID_1_-4-4" y1="51.5" y2="5.5005002" x1="33.5005" x2="33.5005" gradientUnits="userSpaceOnUse">
   <stop offset="0" style="stop-color:#D0CBC5" id="stop5224-5"/>
   <stop offset="0.5031" style="stop-color:#FAFCEF" id="stop5226-5"/>
   <stop offset="0.9693" style="stop-color:#FFFFFF" id="stop5228-1"/>
  </linearGradient>
 </defs>
 <g style="display:inline" id="layer5" transform="translate(0,-27)">
  <rect width="30" x="0" y="27" height="30" style="fill:#000000;fill-opacity:0;stroke:none;display:inline" id="rect3119"/>
 </g>
 <g style="display:inline;opacity:0.4" id="layer1">
  <g style="font-size:35.11260223000000000px;font-style:normal;font-variant:normal;font-weight:normal;font-stretch:normal;text-align:center;line-height:125%;letter-spacing:0px;word-spacing:0px;text-anchor:middle;fill:#000000;fill-opacity:1;stroke:none;display:inline;font-family:Arial Rounded MT Bold;-inkscape-font-specification:Arial Rounded MT Bold;opacity:0.40000000000000002" id="text4350-4" transform="matrix(0.99311001,0,0,1.0069378,0.51793453,-26.546557)">
   <path id="path4403" d="m 20.5625,27.0625 c -0.750935,3.6e-5 -1.476388,0.228582 -2,0.71875 -0.394088,0.368949 -0.712958,0.892561 -0.875,1.46875 -0.121479,0.431893 -0.231551,0.916814 -0.34375,1.5 -0.0022,0.01156 0.0022,0.01962 0,0.03125 L 16.6875,33.75 l -1.34375,0 0.375,-1.75  c 0.0001 -0.0104 0.0001 -0.0208 -0.0000 -0.0312 c 0.09878,-0.52878 0.170242,-0.940976 0.21875,-1.25 0.04851,-0.309024 0.09372,-0.362805 0.09375,-0.71875 -1.3e-5,-0.735377 -0.277909,-1.527852 -0.8125,-2.0625 -0.60815,-0.608086 -1.451241,-0.812467 -2.25,-0.8125 -0.591681,3.4e-5 -1.211817,0.110715 -1.75,0.5 -0.464815,0.336284 -0.815618,0.847911 -1.03125,1.375 -0.2099439,0.51321 -0.3394699,1.071769 -0.46875,1.75 -0.00216,0.01131 0.00216,0.01987 0,0.03125 L 9.09375,33.75 7.5,33.75 c -0.9532941,2.4e-5 -1.8528228,0.244011 -2.53125,0.84375 -0.6278965,0.555126 -1.0000004,1.404171 -1,2.25 -5e-7,0.858073 0.4432515,1.680466 1.03125,2.21875 0.6629984,0.606998 1.5548904,0.875019 2.5,0.875 l 0.34375,0 -0.5,2.65625 c -0.8840525,0.02337 -1.7251831,0.219204 -2.375,0.8125 -0.6293001,0.574593 -1.0000004,1.435417 -1,2.28125 -2e-7,0.867896 0.3733803,1.771071 1.0625,2.3125 0.3221688,0.253122 0.7701004,0.22762 1.15625,0.34375 L 5.75,50.5625 c -0.049229,0.270753 -0.097709,0.571642 -0.15625,0.875 -0.073614,0.38145 -0.1250024,0.738488 -0.125,1.09375 -2.7e-6,0.771962 0.3201935,1.558079 0.875,2.09375 0.5662309,0.546709 1.3727477,0.8125 2.15625,0.8125 0.9425729,0 1.992075,-0.364586 2.46875,-1.28125 C 11.291065,53.536398 11.532361,52.777709 11.75,51.75 l 0.625,-3 1.375,0 -0.34375,1.78125 0,0.03125 c -0.166118,0.7291 -0.281263,1.358634 -0.28125,1.96875 -1.5e-5,0.771973 0.320181,1.558079 0.875,2.09375 0.575975,0.556131 1.380161,0.8125 2.15625,0.8125 0.694444,0 1.440706,-0.163183 2,-0.6875 0.415726,-0.389762 0.717498,-0.912952 0.875,-1.46875 0.108706,-0.383719 0.244207,-0.908603 0.375,-1.5625 L 20,48.75 l 1.6875,0 c 0.961971,7e-6 1.846502,-0.248792 2.5,-0.84375 0.584698,-0.532352 0.999971,-1.362715 1,-2.21875 -2.9e-5,-0.848002 -0.355684,-1.672954 -0.96875,-2.25 -0.674266,-0.634558 -1.595566,-0.874988 -2.53125,-0.875 l -0.46875,0 0.5625,-2.625 c 0.892886,-0.01315 1.750159,-0.233597 2.40625,-0.8125 0.627099,-0.553323 0.999972,-1.396313 1,-2.25 -1.4e-5,-0.882882 -0.389808,-1.801618 -1.09375,-2.34375 -0.329631,-0.253861 -0.791766,-0.22666 -1.1875,-0.34375 L 23.34375,32 a 1.179436,1.179436 0 0 0 0,-0.03125 c 0.06881,-0.344498 0.0351,-0.248302 0.0625,-0.375 0.04272,-0.19762 0.08646,-0.441844 0.125,-0.75 0.04054,-0.324551 0.06248,-0.626219 0.0625,-0.875 C 23.593726,29.229178 23.33436,28.42868 22.75,27.875 22.174194,27.329574 21.368657,27.062534 20.5625,27.0625 z m -6.4375,12.875 1.375,0 -0.5,2.625 -1.4375,0 0.5625,-2.625 z"/>
  </g>
 </g>
 <g style="display:inline" id="layer4" transform="translate(0,-27)">
  <g style="font-size:35.11260223px;font-style:normal;font-variant:normal;font-weight:normal;font-stretch:normal;text-align:center;line-height:125%;letter-spacing:0px;word-spacing:0px;text-anchor:middle;opacity:0.8;fill:#000000;fill-opacity:1;stroke:none;display:inline;font-family:Arial Rounded MT Bold;-inkscape-font-specification:Arial Rounded MT Bold" id="text4350-1" transform="matrix(0.99311001,0,0,1.0069378,0.51793453,-0.54655661)">
   <path id="path4355-7" d="M 6.9016543,50.775679 7.5360129,47.569596 C 5.9586879,47.535313 5.1700267,46.90667 5.170027,45.683665 5.1700267,45.11218 5.367192,44.646413 5.7615235,44.286362 6.1558532,43.926331 6.7359192,43.74631 7.5017232,43.7463 l 0.8058068,0 0.9772551,-4.989144 -1.7830619,0 C 6.7587789,38.757171 6.1844279,38.571436 5.7786683,38.199949 5.3729069,37.828494 5.1700267,37.374157 5.170027,36.836936 c -3e-7,-0.571477 0.197165,-1.031529 0.5914965,-1.380159 0.3943297,-0.348593 0.9743957,-0.522898 1.7401997,-0.522917 l 2.5545788,0 0.805807,-3.926165 c 0.125723,-0.66291 0.265739,-1.182969 0.420048,-1.560179 0.154297,-0.377162 0.36575,-0.662908 0.634359,-0.857241 0.268595,-0.194283 0.620063,-0.291437 1.054406,-0.291462 0.605776,2.5e-5 1.068685,0.160043 1.388731,0.480055 0.320027,0.320061 0.480046,0.731537 0.480055,1.234427 -9e-6,0.114323 -0.09716,0.691531 -0.291462,1.731627 l -0.634358,3.188938 3.754717,0 0.822951,-3.926165 c 0.114285,-0.594331 0.222869,-1.074385 0.325752,-1.440165 0.102855,-0.365732 0.28859,-0.674339 0.557207,-0.925821 0.268587,-0.251432 0.66006,-0.377161 1.17442,-0.377186 0.594338,2.5e-5 1.05439,0.154329 1.380159,0.46291 0.325734,0.308632 0.48861,0.725822 0.488627,1.251572 -1.7e-5,0.240052 -0.01431,0.474364 -0.04286,0.702938 -0.02859,0.228621 -0.06574,0.448646 -0.111441,0.660076 -0.04574,0.211475 -0.07431,0.345776 -0.08572,0.402903 l -0.634359,3.223228 c 1.634455,0.03431 2.451691,0.668666 2.45171,1.903075 -1.9e-5,0.571511 -0.194327,1.028706 -0.582924,1.371586 -0.388634,0.342912 -0.965843,0.51436 -1.731627,0.514345 l -0.874386,0 -1.02869,4.989144 1.903076,0 c 0.765784,1e-5 1.342993,0.182888 1.731627,0.548635 0.388597,0.365765 0.582905,0.828675 0.582924,1.38873 -1.9e-5,0.560072 -0.191469,1.01441 -0.574351,1.363014 -0.38292,0.348618 -0.962986,0.522923 -1.7402,0.522917 l -2.640303,0 -0.805807,3.94331 c -0.125742,0.628645 -0.237183,1.114415 -0.334324,1.45731 -0.09717,0.342897 -0.282903,0.642931 -0.557207,0.900103 -0.274329,0.257173 -0.66866,0.385759 -1.182993,0.385759 -0.571505,0 -1.022985,-0.160019 -1.354441,-0.480055 -0.331476,-0.320036 -0.49721,-0.737227 -0.4972,-1.251572 -10e-6,-0.468624 0.08,-1.051547 0.240027,-1.748772 l 0.634359,-3.206083 -3.789006,0 -0.805807,3.94331 c -0.205744,0.971541 -0.420054,1.671621 -0.6429312,2.100241 -0.2228875,0.428621 -0.7000847,0.642931 -1.4315929,0.642931 -0.5829271,0 -1.040122,-0.160019 -1.371586,-0.480055 -0.3314685,-0.320036 -0.4972017,-0.737227 -0.4971999,-1.251572 -1.8e-6,-0.262886 0.03143,-0.557205 0.094296,-0.882959 0.062862,-0.325749 0.1171543,-0.614353 0.1628758,-0.865813 z m 10.0297227,-12.018523 -3.789006,0 -1.011545,4.989144 3.823296,0 z"/>
  </g>
 </g>
 <linearGradient id="SVGID_1_" y1="43.276402" x1="33.0005" y2="14.7246" gradientUnits="userSpaceOnUse" x2="33.0005">
  <stop offset="0" style="stop-color:#D0CBC5" id="stop13"/>
  <stop offset="0.5031" style="stop-color:#FAFCEF" id="stop15"/>
  <stop offset="0.9693" style="stop-color:#FFFFFF" id="stop17"/>
 </linearGradient>
 <g style="display:inline" id="layer2" transform="translate(0,-27)">
  <g style="font-size:35.11260223px;font-style:normal;font-variant:normal;font-weight:normal;font-stretch:normal;text-align:center;line-height:125%;letter-spacing:0px;word-spacing:0px;text-anchor:middle;fill:#000000;fill-opacity:1;stroke:none;font-family:Arial Rounded MT Bold;-inkscape-font-specification:Arial Rounded MT Bold" id="text4350" transform="matrix(0.99311001,0,0,1.0069378,0.51793455,0.45344379)">
   <path style="fill:#ffffff" id="path4355" d="M 6.9016543,50.775679 7.5360129,47.569596 C 5.9586879,47.535313 5.1700267,46.90667 5.170027,45.683665 5.1700267,45.11218 5.367192,44.646413 5.7615235,44.286362 6.1558532,43.926331 6.7359192,43.74631 7.5017232,43.7463 l 0.8058068,0 0.9772551,-4.989144 -1.7830619,0 C 6.7587789,38.757171 6.1844279,38.571436 5.7786683,38.199949 5.3729069,37.828494 5.1700267,37.374157 5.170027,36.836936 c -3e-7,-0.571477 0.197165,-1.031529 0.5914965,-1.380159 0.3943297,-0.348593 0.9743957,-0.522898 1.7401997,-0.522917 l 2.5545788,0 0.805807,-3.926165 c 0.125723,-0.66291 0.265739,-1.182969 0.420048,-1.560179 0.154297,-0.377162 0.36575,-0.662908 0.634359,-0.857241 0.268595,-0.194283 0.620063,-0.291437 1.054406,-0.291462 0.605776,2.5e-5 1.068685,0.160043 1.388731,0.480055 0.320027,0.320061 0.480046,0.731537 0.480055,1.234427 -9e-6,0.114323 -0.09716,0.691531 -0.291462,1.731627 l -0.634358,3.188938 3.754717,0 0.822951,-3.926165 c 0.114285,-0.594331 0.222869,-1.074385 0.325752,-1.440165 0.102855,-0.365732 0.28859,-0.674339 0.557207,-0.925821 0.268587,-0.251432 0.66006,-0.377161 1.17442,-0.377186 0.594338,2.5e-5 1.05439,0.154329 1.380159,0.46291 0.325734,0.308632 0.48861,0.725822 0.488627,1.251572 -1.7e-5,0.240052 -0.01431,0.474364 -0.04286,0.702938 -0.02859,0.228621 -0.06574,0.448646 -0.111441,0.660076 -0.04574,0.211475 -0.07431,0.345776 -0.08572,0.402903 l -0.634359,3.223228 c 1.634455,0.03431 2.451691,0.668666 2.45171,1.903075 -1.9e-5,0.571511 -0.194327,1.028706 -0.582924,1.371586 -0.388634,0.342912 -0.965843,0.51436 -1.731627,0.514345 l -0.874386,0 -1.02869,4.989144 1.903076,0 c 0.765784,1e-5 1.342993,0.182888 1.731627,0.548635 0.388597,0.365765 0.582905,0.828675 0.582924,1.38873 -1.9e-5,0.560072 -0.191469,1.01441 -0.574351,1.363014 -0.38292,0.348618 -0.962986,0.522923 -1.7402,0.522917 l -2.640303,0 -0.805807,3.94331 c -0.125742,0.628645 -0.237183,1.114415 -0.334324,1.45731 -0.09717,0.342897 -0.282903,0.642931 -0.557207,0.900103 -0.274329,0.257173 -0.66866,0.385759 -1.182993,0.385759 -0.571505,0 -1.022985,-0.160019 -1.354441,-0.480055 -0.331476,-0.320036 -0.49721,-0.737227 -0.4972,-1.251572 -10e-6,-0.468624 0.08,-1.051547 0.240027,-1.748772 l 0.634359,-3.206083 -3.789006,0 -0.805807,3.94331 c -0.205744,0.971541 -0.420054,1.671621 -0.6429312,2.100241 -0.2228875,0.428621 -0.7000847,0.642931 -1.4315929,0.642931 -0.5829271,0 -1.040122,-0.160019 -1.371586,-0.480055 -0.3314685,-0.320036 -0.4972017,-0.737227 -0.4971999,-1.251572 -1.8e-6,-0.262886 0.03143,-0.557205 0.094296,-0.882959 0.062862,-0.325749 0.1171543,-0.614353 0.1628758,-0.865813 z m 10.0297227,-12.018523 -3.789006,0 -1.011545,4.989144 3.823296,0 z"/>
  </g>
 </g>
 <rect width="16.263456" x="130.28442" y="5.9583702" height="0.17677669" style="fill:none;stroke:none" id="rect4949"/>
</svg>
